<svg
  height="512pt"
  viewBox="-56 0 512 512"
  width="512pt"
  xmlns="http://www.w3.org/2000/svg"
>
  <path d="m230 452c-5.519531 0-10 4.480469-10 10s4.480469 10 10 10 10-4.480469 10-10-4.480469-10-10-10zm0 0"/>
  <path d="m30 512h320c27.570312 0 50-22.429688 50-50v-412c0-27.570312-22.429688-50-50-50h-320c-16.542969 0-30 13.457031-30 30v452c0 16.542969 13.457031 30 30 30zm50-492h270c16.542969 0 30 13.457031 30 30v96h-300zm0 146h300v180h-300zm0 200h300v96c0 16.542969-13.457031 30-30 30h-270zm-60-336c0-5.515625 4.484375-10 10-10h30v472h-30c-5.515625 0-10-4.484375-10-10zm0 0"/>
  <path d="m230 246c-5.515625 0-10-4.484375-10-10s4.484375-10 10-10c3.542969 0 7.28125 1.808594 10.816406 5.226562 3.96875 3.839844 10.300782 3.738282 14.140625-.234374 3.839844-3.96875 3.734375-10.296876-.234375-14.136719-5.074218-4.914063-10.152344-7.691407-14.722656-9.207031v-11.648438c0-5.523438-4.476562-10-10-10s-10 4.476562-10 10v11.71875c-11.640625 4.128906-20 15.246094-20 28.28125 0 16.542969 13.457031 30 30 30 5.511719 0 10 4.484375 10 10s-4.488281 10-10 10c-4.273438 0-8.886719-2.6875-12.988281-7.566406-3.550781-4.226563-9.859375-4.773438-14.085938-1.21875-4.230469 3.554687-4.773437 9.863281-1.222656 14.089844 5.347656 6.359374 11.632813 10.789062 18.296875 13.023437v11.671875c0 5.523438 4.476562 10 10 10s10-4.476562 10-10v-11.71875c11.636719-4.128906 20-15.246094 20-28.28125 0-16.542969-13.457031-30-30-30zm0 0"/>
  <path d="m360 462c0-5.523438-4.476562-10-10-10h-80c-5.523438 0-10 4.476562-10 10s4.476562 10 10 10h80c5.523438 0 10-4.476562 10-10zm0 0"/>
  <path d="m110 60h40c5.523438 0 10-4.476562 10-10s-4.476562-10-10-10h-40c-5.523438 0-10 4.476562-10 10s4.476562 10 10 10zm0 0"/>
  <path d="m190 80h-80c-5.523438 0-10 4.476562-10 10s4.476562 10 10 10h80c5.523438 0 10-4.476562 10-10s-4.476562-10-10-10zm0 0"/>
</svg>
