<svg
  id="Capa_1"
  enable-background="new 0 0 512 512"
  height="512"
  viewBox="0 0 512 512"
  width="512"
  xmlns="http://www.w3.org/2000/svg"
>
  <g>
    <path d="m256 273.352c13.969 0 25.333 9.104 25.333 20.293h30c0-23.008-17.087-42.458-40.333-48.415v-18.45h-30v18.449c-23.246 5.958-40.333 25.407-40.333 48.415 0 27.731 24.822 50.293 55.333 50.293 13.969 0 25.333 9.104 25.333 20.293s-11.364 20.293-25.333 20.293-25.333-9.104-25.333-20.293h-30c0 23.008 17.087 42.458 40.333 48.415v18.449h30v-18.449c23.246-5.958 40.333-25.407 40.333-48.415 0-27.731-24.822-50.293-55.333-50.293-13.969 0-25.333-9.104-25.333-20.293s11.364-20.292 25.333-20.292z"/>
    <path d="m348.939 29.944h-77.413v-29.944h-30v29.944h-78.466l-66.803 104.089v377.967h319.485v-377.967zm36.804 452.056h-259.486v-339.168l53.197-82.888h62.073v32.541c-17.461 6.191-30 22.873-30 42.429 0 24.813 20.187 45 45 45s45-20.187 45-45c0-19.556-12.539-36.238-30-42.429v-32.541h61.019l53.197 82.888zm-114.216-347.086c0 8.271-6.729 15-15 15s-15-6.729-15-15 6.729-15 15-15 15 6.729 15 15z"/>
  </g>
</svg>
