<svg
  id="Capa_1"
  enable-background="new 0 0 512 512"
  height="512"
  viewBox="0 0 512 512"
  width="512"
  xmlns="http://www.w3.org/2000/svg"
>
  <g>
    <path d="m322.399 0c-33.986 0-67.332 9.103-96.432 26.324-26.328 15.581-48.586 37.389-64.71 63.33-36.93 9.386-70.795 28.556-98.442 56.204-40.506 40.51-62.815 94.371-62.815 151.661 0 32.75 7.181 64.143 21.347 93.366v99.768h99.761c29.22 14.166 60.612 21.347 93.36 21.347 57.287 0 111.145-22.31 151.652-62.82 27.631-27.633 46.794-61.478 56.185-98.386 25.952-16.123 47.769-38.384 63.359-64.721 17.23-29.107 26.336-62.463 26.336-96.461 0-104.552-85.055-189.612-189.601-189.612zm-107.931 482c-29.224 0-57.178-6.64-83.085-19.735l-3.191-1.613h-76.845v-76.851l-1.612-3.191c-13.095-25.909-19.735-53.865-19.735-83.091 0-101.723 82.752-184.481 184.468-184.481 101.717 0 184.469 82.758 184.469 184.481s-82.752 184.481-184.469 184.481zm214.183-173.308c.189-3.708.285-7.434.285-11.174 0-57.29-22.309-111.15-62.816-151.661s-94.365-62.82-151.652-62.82c-3.719 0-7.422.095-11.109.282 29.979-33.472 73.237-53.319 119.04-53.319 88.004 0 159.601 71.602 159.601 159.612 0 45.826-19.858 89.098-53.349 119.08z"/>
    <path d="m213.468 247c12.661 0 22.962 8.172 22.962 18.217h30c0-21.846-16.041-40.345-37.962-46.248v-16.684h-30v16.684c-21.921 5.903-37.961 24.402-37.961 46.248 0 26.587 23.758 48.218 52.961 48.218 12.661 0 22.962 8.172 22.962 18.217s-10.301 18.217-22.962 18.217-22.961-8.172-22.961-18.217h-30c0 21.846 16.04 40.345 37.961 46.248v16.684h30v-16.684c21.921-5.903 37.962-24.402 37.962-46.248 0-26.587-23.759-48.217-52.962-48.217-12.661 0-22.961-8.172-22.961-18.218 0-10.045 10.3-18.217 22.961-18.217z"/>
  </g>
</svg>
