<svg
  height="512pt"
  viewBox="-46 0 512 512"
  width="512pt"
  xmlns="http://www.w3.org/2000/svg"
>
  <path d="m170 126c-5.519531 0-10 4.480469-10 10s4.480469 10 10 10 10-4.480469 10-10-4.480469-10-10-10zm0 0"/>
  <path d="m30 512h360c16.542969 0 30-13.457031 30-30v-452c0-16.542969-13.457031-30-30-30h-360c-16.542969 0-30 13.457031-30 30v452c0 16.542969 13.457031 30 30 30zm-10-482c0-5.515625 4.484375-10 10-10h360c5.515625 0 10 4.484375 10 10v452c0 5.515625-4.484375 10-10 10h-360c-5.515625 0-10-4.484375-10-10zm0 0"/>
  <path d="m70 206h280c5.523438 0 10-4.476562 10-10v-120c0-5.523438-4.476562-10-10-10h-280c-5.523438 0-10 4.476562-10 10v120c0 5.523438 4.476562 10 10 10zm10-120h260v100h-260zm0 0"/>
  <path d="m70 286h120c5.523438 0 10-4.476562 10-10v-40c0-5.523438-4.476562-10-10-10h-120c-5.523438 0-10 4.476562-10 10v40c0 5.523438 4.476562 10 10 10zm10-40h100v20h-100zm0 0"/>
  <path d="m270 226h-40c-5.523438 0-10 4.476562-10 10v40c0 5.523438 4.476562 10 10 10h40c5.523438 0 10-4.476562 10-10v-40c0-5.523438-4.476562-10-10-10zm-10 40h-20v-20h20zm0 0"/>
  <path d="m70 366h40c5.523438 0 10-4.476562 10-10v-40c0-5.523438-4.476562-10-10-10h-40c-5.523438 0-10 4.476562-10 10v40c0 5.523438 4.476562 10 10 10zm10-40h20v20h-20zm0 0"/>
  <path d="m190 306h-40c-5.523438 0-10 4.476562-10 10v40c0 5.523438 4.476562 10 10 10h40c5.523438 0 10-4.476562 10-10v-40c0-5.523438-4.476562-10-10-10zm-10 40h-20v-20h20zm0 0"/>
  <path d="m270 306h-40c-5.523438 0-10 4.476562-10 10v40c0 5.523438 4.476562 10 10 10h40c5.523438 0 10-4.476562 10-10v-40c0-5.523438-4.476562-10-10-10zm-10 40h-20v-20h20zm0 0"/>
  <path d="m70 446h40c5.523438 0 10-4.476562 10-10v-40c0-5.523438-4.476562-10-10-10h-40c-5.523438 0-10 4.476562-10 10v40c0 5.523438 4.476562 10 10 10zm10-40h20v20h-20zm0 0"/>
  <path d="m190 386h-40c-5.523438 0-10 4.476562-10 10v40c0 5.523438 4.476562 10 10 10h40c5.523438 0 10-4.476562 10-10v-40c0-5.523438-4.476562-10-10-10zm-10 40h-20v-20h20zm0 0"/>
  <path d="m270 386h-40c-5.523438 0-10 4.476562-10 10v40c0 5.523438 4.476562 10 10 10h40c5.523438 0 10-4.476562 10-10v-40c0-5.523438-4.476562-10-10-10zm-10 40h-20v-20h20zm0 0"/>
  <path d="m350 226h-40c-5.523438 0-10 4.476562-10 10v40c0 5.523438 4.476562 10 10 10h40c5.523438 0 10-4.476562 10-10v-40c0-5.523438-4.476562-10-10-10zm-10 40h-20v-20h20zm0 0"/>
  <path d="m350 306h-40c-5.523438 0-10 4.476562-10 10v120c0 5.523438 4.476562 10 10 10h40c5.523438 0 10-4.476562 10-10v-120c0-5.523438-4.476562-10-10-10zm-10 120h-20v-100h20zm0 0"/>
  <path d="m310 126h-100c-5.523438 0-10 4.476562-10 10s4.476562 10 10 10h100c5.523438 0 10-4.476562 10-10s-4.476562-10-10-10zm0 0"/>
</svg>
