<svg
  height="511pt"
  viewBox="-46 0 511 511.99975"
  width="511pt"
  xmlns="http://www.w3.org/2000/svg"
>
  <path d="m260.496094 306.003906c-5.519532 0-10 4.480469-10 10 0 5.519532 4.480468 10 10 10 5.523437 0 10-4.480468 10-10 0-5.519531-4.476563-10-10-10zm0 0"/>
  <path
    d="m202.503906 508.019531c4.042969 5.339844 11.957032 5.253907 15.933594.0625.015625-.023437.035156-.042969.050781-.0625l200.003907-266.003906c2.449218-3.25 2.652343-7.699219.582031-11.15625l-60-100.003906c-1.714844-2.898438-5.027344-4.851563-8.574219-4.851563h-280.007812c-.019532 0-.039063.003906-.058594.003906-3.578125.015626-6.796875 1.976563-8.515625 4.847657l-60 100.003906c-2.089844 3.492187-1.8476565 7.929687.582031 11.15625zm-171.980468-262.015625h102.261718l55.066406 209.246094zm202.253906 209.730469 25.574218-99.007813c1.378907-5.347656-1.835937-10.800781-7.183593-12.183593-5.347657-1.378907-10.800781 1.835937-12.183594 7.179687l-28.578125 110.648438-56.9375-216.367188h113.980469l-7.648438 28.410156c-1.433593 5.332032 1.726563 10.820313 7.058594 12.257813 5.332031 1.433594 10.820313-1.722656 12.253906-7.058594l9.050781-33.609375h102.304688zm160.058594-229.730469h-93.128907l50.144531-71.640625zm-61.542969-80-50.792969 72.5625-50.796875-72.5625zm-70.003907 80h-101.585937l50.792969-72.5625zm-70-80-50.792968 72.5625-50.796875-72.5625zm-120.148437 8.359375 50.148437 71.640625h-93.132812zm0 0"
  />
  <path d="m210.496094 66c5.523437 0 10-4.476562 10-10v-46c0-5.523438-4.476563-10-10-10-5.519532 0-10 4.476562-10 10v46c0 5.523438 4.476562 10 10 10zm0 0"/>
  <path d="m378.992188 101.652344 28.289062-28.289063c3.90625-3.90625 3.90625-10.238281 0-14.144531s-10.238281-3.90625-14.144531 0l-28.289063 28.289062c-3.90625 3.90625-3.90625 10.238282 0 14.144532s10.238282 3.90625 14.144532 0zm0 0"/>
  <path d="m42.003906 101.652344c3.90625 3.90625 10.234375 3.90625 14.140625 0s3.90625-10.238282 0-14.144532l-28.289062-28.289062c-3.90625-3.90625-10.238281-3.90625-14.144531 0-3.902344 3.90625-3.902344 10.238281 0 14.144531zm0 0"/>
</svg>
