<svg
  id="Capa_1"
  enable-background="new 0 0 512 512"
  height="512"
  viewBox="0 0 512 512"
  width="512"
  xmlns="http://www.w3.org/2000/svg"
>
  <g>
    <path
      d="m512 321.483v-130.966h-36.223c-4.499-15.131-10.548-29.73-18.072-43.614l25.617-25.618-92.606-92.608-25.618 25.618c-13.885-7.524-28.483-13.574-43.614-18.072v-36.223h-130.967v36.223c-15.131 4.498-29.729 10.547-43.614 18.072l-25.618-25.617-92.608 92.607 25.619 25.618c-7.524 13.885-13.573 28.483-18.072 43.614h-36.224v130.967h36.223c4.499 15.131 10.548 29.73 18.072 43.614l-25.618 25.618 92.607 92.608 25.618-25.618c13.885 7.524 28.483 13.574 43.614 18.072v36.222h130.967v-36.223c15.131-4.499 29.729-10.548 43.614-18.072l25.618 25.618 92.606-92.608-25.617-25.618c7.524-13.884 13.573-28.483 18.072-43.614zm-59.521-30-2.773 11.478c-4.846 20.063-12.764 39.171-23.533 56.794l-6.159 10.077 20.883 20.883-50.181 50.181-20.882-20.882-10.077 6.158c-17.625 10.77-36.733 18.688-56.795 23.534l-11.479 2.772v29.522h-70.967v-29.521l-11.479-2.772c-20.062-4.846-39.17-12.764-56.794-23.534l-10.077-6.158-20.883 20.883-50.182-50.182 20.884-20.882-6.159-10.078c-10.77-17.623-18.688-36.731-23.533-56.794l-2.773-11.478h-29.52v-70.967h29.521l2.772-11.478c4.846-20.063 12.764-39.171 23.533-56.794l6.159-10.078-20.883-20.882 50.181-50.182 20.884 20.882 10.076-6.158c17.625-10.77 36.732-18.688 56.794-23.533l11.479-2.772v-29.522h70.967v29.522l11.479 2.772c20.061 4.845 39.169 12.762 56.795 23.533l10.077 6.158 20.882-20.882 50.181 50.181-20.883 20.882 6.159 10.078c10.77 17.624 18.688 36.732 23.533 56.794l2.772 11.478h29.522v70.967z"
    />
    <path d="m256 95.869c-88.297 0-160.131 71.834-160.131 160.131s71.834 160.131 160.131 160.131 160.131-71.835 160.131-160.131-71.834-160.131-160.131-160.131zm0 290.262c-71.755 0-130.131-58.376-130.131-130.131s58.376-130.131 130.131-130.131 130.131 58.377 130.131 130.131-58.376 130.131-130.131 130.131z"/>
    <path d="m256 204.565c12.661 0 22.962 8.172 22.962 18.218h30c0-21.846-16.041-40.345-37.962-46.249v-16.684h-30v16.684c-21.921 5.903-37.962 24.402-37.962 46.249 0 26.587 23.759 48.217 52.962 48.217 12.661 0 22.962 8.172 22.962 18.217s-10.301 18.218-22.962 18.218-22.962-8.172-22.962-18.218h-30c0 21.846 16.041 40.345 37.962 46.249v16.684h30v-16.684c21.921-5.903 37.962-24.402 37.962-46.249 0-26.587-23.759-48.217-52.962-48.217-12.661 0-22.962-8.172-22.962-18.217 0-10.046 10.301-18.218 22.962-18.218z"/>
  </g>
</svg>
