<svg
  id="Capa_1"
  enable-background="new 0 0 512 512"
  height="512"
  viewBox="0 0 512 512"
  width="512"
  xmlns="http://www.w3.org/2000/svg"
>
  <g>
    <path
      d="m437.02 74.98c-48.353-48.351-112.64-74.98-181.02-74.98s-132.667 26.629-181.02 74.98c-48.351 48.353-74.98 112.64-74.98 181.02s26.629 132.667 74.98 181.02c48.353 48.351 112.64 74.98 181.02 74.98s132.667-26.629 181.02-74.98c48.351-48.353 74.98-112.64 74.98-181.02s-26.629-132.667-74.98-181.02zm-32.165 10.952-41.905 41.905c-28.991-24.233-66.297-38.835-106.95-38.835s-77.959 14.601-106.95 38.834l-41.905-41.905c41.212-36.175 93.515-55.931 148.855-55.931s107.643 19.756 148.855 55.932zm-148.855 307.066c-75.541 0-136.998-61.457-136.998-136.998s61.457-136.998 136.998-136.998 136.998 61.457 136.998 136.998-61.457 136.998-136.998 136.998zm-226-136.998c0-55.34 19.756-107.643 55.932-148.855l41.905 41.905c-24.234 28.991-38.835 66.297-38.835 106.95s14.601 77.959 38.834 106.95l-41.905 41.905c-36.175-41.212-55.931-93.515-55.931-148.855zm77.145 170.068 41.905-41.905c28.991 24.233 66.298 38.834 106.95 38.834s77.959-14.601 106.95-38.834l41.905 41.905c-41.212 36.176-93.515 55.932-148.855 55.932s-107.643-19.756-148.855-55.932zm318.923-21.213-41.905-41.905c24.233-28.991 38.834-66.298 38.834-106.95s-14.601-77.959-38.834-106.95l41.905-41.905c36.176 41.212 55.932 93.515 55.932 148.855s-19.756 107.643-55.932 148.855z"
    />
    <path d="m255.473 197.592c13.969 0 25.333 9.104 25.333 20.293h30c0-23.008-17.087-42.458-40.333-48.415v-18.449h-30v18.449c-23.246 5.958-40.333 25.407-40.333 48.415 0 27.731 24.822 50.293 55.333 50.293 13.969 0 25.333 9.104 25.333 20.293s-11.365 20.293-25.333 20.293-25.333-9.104-25.333-20.293h-30c0 23.008 17.087 42.458 40.333 48.415v18.449h30v-18.449c23.246-5.958 40.333-25.407 40.333-48.415 0-27.731-24.822-50.293-55.333-50.293-13.969 0-25.333-9.104-25.333-20.293s11.364-20.293 25.333-20.293z"/>
  </g>
</svg>
