<svg
  height="512pt"
  viewBox="0 0 512 512"
  width="512pt"
  xmlns="http://www.w3.org/2000/svg"
>
  <path d="m70 266c.101562 0 .199219 0 .300781-.011719 5.378907-.160156 9.699219-4.566406 9.699219-9.988281s-4.320312-9.828125-9.699219-9.988281c-.101562-.011719-.199219-.011719-.300781-.011719-5.519531 0-10 4.480469-10 10s4.480469 10 10 10zm0 0"/>
  <path
    d="m256 512c138.816406 0 256-119.304688 256-256 0-137.820312-118.113281-256-256-256-136.550781 0-256 116.980469-256 256 0 137.617188 117.917969 256 256 256zm-226-266h-9.765625c2.371094-53.019531 23.554687-103.910156 60.433594-145.1875l6.699219 6.699219c3.90625 3.902343 10.238281 3.902343 14.144531 0 3.90625-3.90625 3.90625-10.238281 0-14.144531l-6.933594-6.933594c41.84375-39.921875 96.078125-63.625 151.421875-66.1875v15.753906c0 5.523438 4.476562 10 10 10s10-4.476562 10-10v-15.753906c53.859375 2.511718 106.957031 25.164062 148.324219 63.289062l-9.835938 9.832032c-3.902343 3.90625-3.902343 10.238281 0 14.144531 3.90625 3.902343 10.234375 3.90625 14.144531 0l9.832032-9.835938c38.125 41.367188 60.777344 94.464844 63.289062 148.324219h-12.753906c-5.523438 0-10 4.476562-10 10s4.476562 9.898438 10 9.898438h12.753906c-2.5625 55.34375-26.265625 109.679687-66.191406 151.523437l-6.929688-6.933594c-3.90625-3.90625-10.238281-3.90625-14.144531 0s-3.90625 10.238281 0 14.144531l6.699219 6.699219c-41.277344 36.878907-92.167969 58.058594-145.1875 60.433594v-9.765625c0-5.523438-4.476562-10-10-10s-10 4.476562-10 10v9.753906c-53.859375-2.511718-106.957031-25.164062-148.324219-63.289062l9.394531-9.394532c3.90625-3.90625 3.90625-10.234374 0-14.140624s-10.234374-3.90625-14.140624 0l-9.394532 9.390624c-38.125-41.363281-60.777344-94.460937-63.289062-148.320312h9.753906c5.523438 0 10-4.476562 10-10s-4.476562-10-10-10zm0 0"
  />
  <path d="m72.210938 225.992188c5.386718 1.21875 10.742187-2.15625 11.960937-7.542969 17.582031-77.636719 93.054687-138.449219 171.828125-138.449219 93.757812 0 176 82.242188 176 176s-82.242188 176-176 176c-78.773438 0-154.246094-60.8125-171.828125-138.449219-1.21875-5.386719-6.574219-8.765625-11.960937-7.542969-5.386719 1.21875-8.765626 6.574219-7.542969 11.960938 19.5 86.132812 102.449219 154.03125 191.332031 154.03125 104.429688 0 196-91.050781 196-196 0-104.984375-91.613281-196-196-196-88.949219 0-171.839844 67.949219-191.332031 154.03125-1.222657 5.386719 2.15625 10.742188 7.542969 11.960938zm0 0"/>
  <path
    d="m170 256c0 5.523438 4.476562 10 10 10h23.257812l4.9375 19.230469c4.765626 18.519531-1.492187 39.730469-20.855468 52.679687-8.523438 5.734375-8.554688 5.609375-9.546875 6.511719-4.085938 3.714844-4.382813 10.03125-.664063 14.117187 3.410156 3.757813 9.023438 4.308594 13.082032 1.5l7.828124-5.222656c17.042969-9.191406 37.789063-7.324218 52.945313 4.800782.082031.066406.167969.128906.253906.195312 24.894531 19.726562 60.152344 19.675781 84.988281-.183594 4.3125-3.449218 5.015626-9.742187 1.566407-14.054687s-9.742188-5.015625-14.058594-1.566407c-17.550781 14.035157-42.5625 14.132813-60.238281 0-.082032-.066406-.164063-.128906-.25-.191406-12.097656-9.59375-26.691406-14.59375-41.429688-14.792968 7.730469-14.664063 10.0625-32.003907 5.75-48.773438l-3.660156-14.25h76.09375c5.523438 0 10-4.476562 10-10s-4.476562-10-10-10h-81.230469l-7.15625-27.855469c-7.234375-28.183593 12-55.171875 37.472657-59.316406 30.8125-5.007813 56.355468 18.765625 56.355468 47.523437 0 5.519532 4.476563 10 10 10 5.519532 0 10-4.480468 10-10 0-41.722656-37.277344-74.140624-79.566406-67.261718-37.40625 6.082031-63.6875 44.859375-53.632812 84.027344l5.878906 22.882812h-18.121094c-5.523438 0-10 4.476562-10 10zm0 0"
  />
</svg>
