<svg
  height="511pt"
  viewBox="1 -55 511.99975 511"
  width="511pt"
  xmlns="http://www.w3.org/2000/svg"
>
  <path d="m356 170.5c5.519531 0 10-4.480469 10-10s-4.480469-10-10-10-10 4.480469-10 10 4.480469 10 10 10zm0 0"/>
  <path d="m353.945312 277.808594c23.761719-22.179688 37.039063-52.207032 30.296876-83.910156-1.148438-5.402344-6.460938-8.847657-11.863282-7.699219-5.402344 1.148437-8.851562 6.457031-7.699218 11.859375 5.285156 24.855468-5.644532 47.636718-24.382813 65.132812-4.039063 3.765625-4.257813 10.09375-.488281 14.132813 3.757812 4.023437 10.085937 4.265625 14.136718.484375zm0 0"/>
  <path
    d="m30 260.5h26.773438c10.097656 22.625 26.957031 43.007812 49.226562 59.480469v70.519531c0 5.523438 4.476562 10 10 10h20c25.980469 0 47.394531-19.917969 49.777344-45.285156 16.296875 3.511718 33.136718 5.285156 50.222656 5.285156s33.925781-1.773438 50.222656-5.285156c2.382813 25.367187 23.796875 45.285156 49.777344 45.285156h20c5.523438 0 10-4.476562 10-10v-70.519531c36.136719-26.75 57.582031-63.667969 59.796875-102.757813 15.894531-5.195312 31.90625-16.382812 40.167969-31.609375 14.242187 6.210938 31.558594 3.503907 43.105468-8.042969 3.90625-3.90625 3.90625-10.238281 0-14.140624-3.90625-3.90625-10.234374-3.90625-14.140624 0-2.511719 2.507812-5.585938 4.136718-8.832032 4.917968 3.707032-4.992187 5.902344-11.167968 5.902344-17.847656 0-16.542969-13.457031-30-30-30s-30 13.457031-30 30c0 11.4375 6.390625 21.417969 15.863281 26.476562-4.785156 8.167969-13.496093 14.945313-22.75 19.09375-6.808593-56.222656-53.074219-104.804687-119.988281-125.355468.578125-3.359375.875-6.769532.875-10.214844 0-33.085938-26.914062-60-60-60s-60 26.914062-60 60c0 1.738281.082031 3.472656.230469 5.195312-8.261719 1.761719-16.386719 3.960938-24.285157 6.59375l-61.472656-30.734374c-3.101562-1.546876-6.78125-1.382813-9.730468.4375-2.949219 1.824218-4.742188 5.042968-4.742188 8.507812v67.816406c-12.632812 12.792969-22.4375 26.941406-29.230469 42.183594h-26.769531c-16.542969 0-30 13.457031-30 30v40c0 16.542969 13.457031 30 30 30zm432-120c5.515625 0 10 4.484375 10 10 0 5.28125-4.140625 9.605469-9.3125 9.96875-.769531-.128906-1.550781-.167969-2.335938-.113281-4.765624-.785157-8.351562-4.90625-8.351562-9.855469 0-5.515625 4.484375-10 10-10zm-216-120c22.054688 0 40 17.945312 40 40 0 22.234375-18.136719 40-40 40-21.878906 0-40-17.75-40-40 0-22.054688 17.945312-40 40-40zm-226 170c0-5.515625 4.484375-10 10-10h33.449219c4.144531 0 7.859375-2.554688 9.339843-6.425781 6.191407-16.171875 16.332032-31.097657 30.140626-44.363281 1.960937-1.886719 3.070312-4.488282 3.070312-7.210938v-55.820312l50.757812 25.375c2.433594 1.214843 5.253907 1.386718 7.816407.476562 8.613281-3.058594 17.558593-5.550781 26.691406-7.457031 3.070313 6.832031 7.355469 12.933593 12.5625 18.070312-4.929687.929688-10.722656 1.796875-20.558594 4.585938-5.3125 1.507812-8.398437 7.035156-6.890625 12.347656 1.25 4.402344 5.253906 7.273437 9.613282 7.273437 4.171874 0 20.414062-6.851562 50.007812-6.851562 19.691406 0 38.769531 3.179688 56.699219 9.449219 5.191406 1.816406 10.90625-.902344 12.738281-6.136719 1.824219-5.214844-.921875-10.917969-6.136719-12.742188-4.898437-1.714843-9.875-3.21875-14.914062-4.515624 5.640625-4.695313 10.449219-10.417969 14.085937-16.960938 116.332032 35.214844 145.347656 151.941406 51.8125 217.050781-2.683594 1.867188-4.285156 4.933594-4.285156 8.207031v65.648438h-10c-16.542969 0-30-13.457031-30-30v-7.96875c0-6.589844-6.28125-11.398438-12.652344-9.644531-18.371094 5.050781-37.667968 7.613281-57.347656 7.613281s-38.976562-2.5625-57.347656-7.613281c-3.007813-.824219-6.230469-.203125-8.714844 1.691406-2.480469 1.890625-3.9375 4.832031-3.9375 7.953125v7.96875c0 16.542969-13.457031 30-30 30h-10v-65.648438c0-3.273437-1.601562-6.339843-4.285156-8.210937-23.246094-16.179687-40.164063-36.828125-48.925782-59.714844-1.480468-3.871093-5.195312-6.425781-9.339843-6.425781h-33.449219c-5.515625 0-10-4.488281-10-10zm0 0"
  />
  <path d="m136 200.5c16.542969 0 30-13.457031 30-30s-13.457031-30-30-30-30 13.457031-30 30 13.457031 30 30 30zm0-40c5.515625 0 10 4.484375 10 10s-4.484375 10-10 10-10-4.484375-10-10 4.484375-10 10-10zm0 0"/>
</svg>
