<svg
  height="512pt"
  viewBox="-66 0 512 512.00025"
  width="512pt"
  xmlns="http://www.w3.org/2000/svg"
>
  <path d="m90 352c.171875 0 .339844 0 .5-.007812 5.289062-.273438 9.5-4.640626 9.5-9.992188s-4.210938-9.71875-9.5-9.988281c-.160156-.011719-.328125-.011719-.5-.011719-5.519531 0-10 4.480469-10 10s4.480469 10 10 10zm0 0"/>
  <path
    d="m0 382c0 49.636719 19.503906 85.328125 57.972656 106.082031 30.25 16.316407 72.203125 23.917969 132.027344 23.917969s101.777344-7.601562 132.027344-23.917969c38.46875-20.757812 57.972656-56.445312 57.972656-106.082031 0-78.546875-47.941406-173.367188-117.640625-214.953125 3.367187-3.878906 5.988281-8.425781 7.644531-13.441406 6.550782-19.988281-3.953125-41.558594-23.511718-48.859375l32.625-70.550782c2.265624-4.902343.226562-10.722656-4.605469-13.140624l-40-20c-2.816407-1.40625-6.128907-1.40625-8.945313 0l-35.527344 17.765624-35.527343-17.765624c-2.816407-1.40625-6.128907-1.40625-8.945313 0l-40 20c-4.832031 2.417968-6.871094 8.242187-4.601562 13.148437l32.679687 70.582031c-19.484375 7.328125-29.941406 28.863282-23.382812 48.835938 1.636719 4.964844 4.222656 9.472656 7.550781 13.320312-69.761719 41.515625-117.8125 136.417969-117.8125 215.058594zm123.191406-347.394531 26.847656-13.425781 35.527344 17.765624c2.816406 1.40625 6.128906 1.40625 8.945313 0l35.527343-17.765624 26.855469 13.425781-29.945312 64.75c-24.289063-5.21875-49.488281-5.207031-73.765625.023437zm18.234375 88.628906c32.753907-10.703125 66.425781-10.113281 97.375-.007813 10.007813 3.296876 15.480469 14.128907 12.203125 24.132813-1.367187 4.136719-4.074218 7.617187-7.636718 9.96875-17.5-7.511719-35.429688-11.328125-53.367188-11.328125-17.878906 0-35.75 3.792969-53.199219 11.253906-3.515625-2.335937-6.191406-5.789062-7.539062-9.882812-3.289063-10.015625 2.175781-20.847656 12.164062-24.136719zm48.574219 42.765625c16.546875 0 33.183594 3.859375 49.449219 11.476562 66.472656 31.105469 120.550781 122.855469 120.550781 204.523438 0 42.304688-15.527344 71.246094-47.46875 88.476562-27.21875 14.683594-66.152344 21.523438-122.53125 21.523438s-95.3125-6.839844-122.53125-21.523438c-31.941406-17.230468-47.46875-46.171874-47.46875-88.476562 0-95.527344 77.582031-216 170-216zm0 0"
  />
  <path d="m190 372c-4.273438 0-8.882812-2.6875-12.984375-7.566406-3.554687-4.226563-9.863281-4.773438-14.089844-1.21875-4.230469 3.554687-4.773437 9.863281-1.21875 14.089844 5.34375 6.359374 11.632813 10.789062 18.292969 13.023437v11.671875c0 5.523438 4.476562 10 10 10s10-4.476562 10-10v-11.71875c11.640625-4.128906 20-15.242188 20-28.28125 0-16.542969-13.457031-30-30-30-5.515625 0-10-4.484375-10-10s4.484375-10 10-10c3.542969 0 7.28125 1.808594 10.816406 5.226562 3.96875 3.839844 10.300782 3.738282 14.140625-.230468 3.839844-3.972656 3.734375-10.300782-.234375-14.140625-5.074218-4.914063-10.152344-7.6875-14.722656-9.207031v-11.648438c0-5.523438-4.476562-10-10-10s-10 4.476562-10 10v11.71875c-11.640625 4.128906-20 15.246094-20 28.28125 0 16.542969 13.457031 30 30 30 5.511719 0 10 4.484375 10 10s-4.484375 10-10 10zm0 0"/>
  <path d="m94.058594 312c5.082031 2.167969 10.957031-.199219 13.121094-5.28125 14.164062-33.242188 46.671874-54.71875 82.820312-54.71875 56.101562 0 96.074219 50.242188 89.457031 99.859375-.011719.078125-.019531.15625-.027343.230469-.007813.066406-.015626.132812-.019532.199218-4.410156 44.699219-43.679687 79.710938-89.410156 79.710938-36.066406 0-68.578125-21.484375-82.828125-54.738281-2.175781-5.078125-8.054687-7.429688-13.128906-5.253907-5.078125 2.175782-7.429688 8.054688-5.253907 13.132813 17.40625 40.617187 57.132813 66.859375 101.210938 66.859375 55.851562 0 103.835938-42.871094 109.300781-97.628906 8.234375-62.394532-42.121093-122.371094-109.300781-122.371094-44.179688 0-83.910156 26.253906-101.21875 66.878906-2.167969 5.082032.199219 10.957032 5.277344 13.121094zm0 0"/>
</svg>
