<svg
  id="Capa_1"
  enable-background="new 0 0 512 512"
  height="512"
  viewBox="0 0 512 512"
  width="512"
  xmlns="http://www.w3.org/2000/svg"
>
  <g>
    <path d="m512 161.667h-174v30h15.156l10 77h46.344v29.489h-138.5v-210.727c17.461-6.191 30-22.873 30-42.429 0-24.813-20.187-45-45-45s-45 20.187-45 45c0 19.556 12.539 36.238 30 42.429v210.727h-138.5v-29.489h46.344l10-77h15.156v-30h-174v30h15.156l10 77h47.344v59.489h168.5v94.344h-106v59.5h-28v30h298v-30h-28v-59.5h-106v-94.344h168.5v-59.489h47.344l10-77h15.156zm-256-131.667c8.271 0 15 6.729 15 15s-6.729 15-15 15-15-6.729-15-15 6.729-15 15-15zm-210.592 161.667h83.185l-6.104 47h-70.978zm301.592 290.333h-182v-29.5h182zm113.489-243.333h-70.978l-6.104-47h83.185z"/>
  </g>
</svg>
