<svg
  height="511pt"
  viewBox="-45 1 511 511.999"
  width="511pt"
  xmlns="http://www.w3.org/2000/svg"
>
  <path d="m210.5 346c5.519531 0 10-4.480469 10-10s-4.480469-10-10-10-10 4.480469-10 10 4.480469 10 10 10zm0 0"/>
  <path
    d="m.511719 296.421875v.042969c.253906 38.382812 31.546875 69.535156 69.988281 69.535156 38.511719 0 69.742188-31.023438 69.988281-69.539062 0-.011719 0-.019532.003907-.03125.007812-1.757813-.191407-3.191407-1.046876-4.902344l-56.273437-112.550782c2.375-1.199218 4.6875-2.535156 6.925781-4.027343l40.90625-27.265625c1.652344-1.101563 3.578125-1.683594 5.558594-1.683594h43.9375v150.019531c-12.457031 9.375-20 24.199219-20 39.980469v76h-30c-16.542969 0-30 13.457031-30 30v10h-10c-16.542969 0-30 13.457031-30 30v20c0 5.523438 4.476562 10 10 10h280c5.523438 0 10-4.476562 10-10v-20c0-16.542969-13.457031-30-30-30h-10v-10c0-16.542969-13.457031-30-30-30h-30v-76c0-15.746094-7.261719-30.402344-20-39.980469v-150.019531h43.941406c1.980469 0 3.902344.582031 5.550782 1.679688l40.914062 27.273437c2.230469 1.484375 4.546875 2.820313 6.925781 4.019531l-56.277343 112.554688c-.851563 1.707031-1.054688 3.183594-1.042969 4.894531v.042969c.25 38.382812 31.546875 69.535156 69.988281 69.535156 38.511719 0 69.742188-31.023438 69.988281-69.542969 0-.007812 0-.015625.003907-.023437.007812-1.765625-.199219-3.210938-1.046876-4.90625l-52.769531-105.539063c.238281.003907.476563.011719.714844.011719 31.984375 0 48.34375-21.636719 50.179687-22.929688 3.90625-3.902343 3.90625-10.234374 0-14.140624-3.902343-3.90625-10.234374-3.90625-14.140624 0-1.933594 1.386718-13.125 17.070312-36.039063 17.070312-8.683594 0-17.550781-2.46875-25.394531-7.691406l-40.914063-27.273438c-4.949219-3.292968-10.703125-5.035156-16.644531-5.035156h-43.9375v-36.019531c12.457031-9.378907 20-24.203125 20-39.980469 0-27.570312-22.429688-50-50-50s-50 22.429688-50 50c0 15.777344 7.542969 30.601562 20 39.980469v36.019531h-43.941406c-5.9375 0-11.691406 1.742188-16.644532 5.039062l-40.914062 27.273438c-12.601562 8.40625-28.675781 10.105469-42.925781 4.195312-10.953125-4.523437-16.050781-11.441406-18.503907-13.578124-3.902343-3.90625-10.234374-3.90625-14.140624 0-3.90625 3.90625-3.90625 10.234374 0 14.140624 2.289062 1.96875 9.785156 11.636719 24.996093 17.917969 8.019531 3.324219 16.492188 5.011719 25.183594 5.011719.238281 0 .476563-.011719.71875-.011719l-52.773437 105.539063c-.859376 1.71875-1.054688 3.1875-1.042969 4.894531zm349.988281 49.578125c-24.144531 0-44.347656-17.214844-48.992188-40.011719h97.992188c-4.546875 22.519531-24.472656 40.011719-49 40.011719zm0-147.640625 43.820312 87.640625h-87.640624zm-20 273.640625c5.515625 0 10 4.484375 10 10v10h-260v-10c0-5.515625 4.484375-10 10-10zm-40-40c5.515625 0 10 4.484375 10 10v10h-180v-10c0-5.515625 4.484375-10 10-10zm-80-412c16.542969 0 30 13.457031 30 30 0 16.285156-13.183594 30-30 30-16.875 0-30-13.78125-30-30 0-16.542969 13.457031-30 30-30zm-10 106v-27.015625c3.28125.667969 6.628906 1.015625 10 1.015625s6.71875-.347656 10-1.015625v27.015625zm20 20v141.015625c-3.28125-.667969-6.628906-1.015625-10-1.015625s-6.71875.347656-10 1.015625v-141.015625zm-10 160c16.4375 0 30 13.308594 30 30v76h-20v-36c0-5.523438-4.476562-10-10-10s-10 4.476562-10 10v36h-20v-76c0-16.285156 13.183594-30 30-30zm-140-107.640625 43.820312 87.640625h-87.640624zm49 107.640625c-4.558594 22.574219-24.546875 40-49 40-24.148438 0-44.347656-17.203125-48.996094-40zm0 0"
  />
</svg>
