<svg
  height="512pt"
  viewBox="0 -46 512 512"
  width="512pt"
  xmlns="http://www.w3.org/2000/svg"
>
  <path d="m422 160c-5.519531 0-10 4.480469-10 10s4.480469 10 10 10 10-4.480469 10-10-4.480469-10-10-10zm0 0"/>
  <path d="m422 200c-5.519531 0-10 4.480469-10 10s4.480469 10 10 10 10-4.480469 10-10-4.480469-10-10-10zm0 0"/>
  <path d="m422 240c-5.519531 0-10 4.480469-10 10s4.480469 10 10 10 10-4.480469 10-10-4.480469-10-10-10zm0 0"/>
  <path d="m382 160c-5.519531 0-10 4.480469-10 10s4.480469 10 10 10 10-4.480469 10-10-4.480469-10-10-10zm0 0"/>
  <path d="m382 200c-5.519531 0-10 4.480469-10 10s4.480469 10 10 10 10-4.480469 10-10-4.480469-10-10-10zm0 0"/>
  <path d="m382 240c-5.519531 0-10 4.480469-10 10s4.480469 10 10 10 10-4.480469 10-10-4.480469-10-10-10zm0 0"/>
  <path d="m342 160c-5.519531 0-10 4.480469-10 10s4.480469 10 10 10 10-4.480469 10-10-4.480469-10-10-10zm0 0"/>
  <path d="m342 200c-5.519531 0-10 4.480469-10 10s4.480469 10 10 10 10-4.480469 10-10-4.480469-10-10-10zm0 0"/>
  <path d="m342 240c-5.519531 0-10 4.480469-10 10s4.480469 10 10 10 10-4.480469 10-10-4.480469-10-10-10zm0 0"/>
  <path d="m150 370c5.519531 0 10-4.480469 10-10s-4.480469-10-10-10-10 4.480469-10 10 4.480469 10 10 10zm0 0"/>
  <path d="m30 420h452c16.542969 0 30-13.457031 30-30v-60c0-13.035156-8.359375-24.152344-20-28.28125v-271.71875c0-16.542969-13.457031-30-30-30h-412c-16.542969 0-30 13.457031-30 30v271.71875c-11.640625 4.128906-20 15.246094-20 28.28125v60c0 16.542969 13.457031 30 30 30zm10-390c0-5.515625 4.484375-10 10-10h412c5.515625 0 10 4.484375 10 10v270h-432zm-20 300c0-5.515625 4.484375-10 10-10h452c5.515625 0 10 4.484375 10 10v60c0 5.515625-4.484375 10-10 10h-452c-5.515625 0-10-4.484375-10-10zm0 0"/>
  <path d="m70 370h40c5.523438 0 10-4.476562 10-10s-4.476562-10-10-10h-40c-5.523438 0-10 4.476562-10 10s4.476562 10 10 10zm0 0"/>
  <path d="m190 370h252c5.523438 0 10-4.476562 10-10s-4.476562-10-10-10h-252c-5.523438 0-10 4.476562-10 10s4.476562 10 10 10zm0 0"/>
  <path d="m282 60h-192c-5.523438 0-10 4.476562-10 10v180c0 5.523438 4.476562 10 10 10h192c5.523438 0 10-4.476562 10-10v-180c0-5.523438-4.476562-10-10-10zm-182 20h106v100h-106zm172 160h-172v-40h172zm0-60h-46v-100h46zm0 0"/>
  <path d="m422 60h-80c-5.523438 0-10 4.476562-10 10v60c0 5.523438 4.476562 10 10 10h80c5.523438 0 10-4.476562 10-10v-60c0-5.523438-4.476562-10-10-10zm-10 60h-60v-40h60zm0 0"/>
</svg>
