<svg
  id="Capa_1"
  enable-background="new 0 0 512 512"
  height="512"
  viewBox="0 0 512 512"
  width="512"
  xmlns="http://www.w3.org/2000/svg"
>
  <g>
    <path d="m344.75 28.554v-28.554h-177.5v28.554h-104.25v483.446h291.287l94.713-94.712v-388.734zm-147.5 1.446h117.5v30.042h-117.5zm-104.25 28.554h74.25v31.488h177.5v-31.488h74.25v337.426h-85.926v86.02h-240.074zm304.881 367.426-34.807 34.807v-34.807z"/>
    <path d="m256.047 263c-17.369 0-31.5-11.559-31.5-25.766s14.131-25.767 31.5-25.767 31.5 11.559 31.5 25.767h30c0-26.06-19.815-48.002-46.5-54.089v-23.145h-30v23.145c-26.685 6.087-46.5 28.029-46.5 54.089 0 30.75 27.589 55.766 61.5 55.766 17.369 0 31.5 11.559 31.5 25.766s-14.131 25.767-31.5 25.767-31.5-11.559-31.5-25.767h-30c0 26.06 19.815 48.002 46.5 54.089v23.145h30v-23.145c26.685-6.087 46.5-28.029 46.5-54.089 0-30.749-27.589-55.766-61.5-55.766z"/>
  </g>
</svg>
