<svg
  id="Capa_1"
  enable-background="new 0 0 512 512"
  height="512"
  viewBox="0 0 512 512"
  width="512"
  xmlns="http://www.w3.org/2000/svg"
>
  <g>
    <path d="m512 90v-90h-512v90h20v265h-20v30h241v39.571c-17.461 6.191-30 22.873-30 42.429 0 24.813 20.187 45 45 45s45-20.187 45-45c0-19.556-12.539-36.238-30-42.429v-39.571h241v-30h-20v-265zm-256 392c-8.271 0-15-6.729-15-15s6.729-15 15-15 15 6.729 15 15-6.729 15-15 15zm-226-452h452v30h-452zm432 325h-412v-265h412z"/>
    <path d="m190.037 323.17c55.51 0 100.67-45.16 100.67-100.67v-15h-85.67v-85.67h-15c-55.51 0-100.67 45.16-100.67 100.67s45.16 100.67 100.67 100.67zm-15-169.738v84.068h84.068c-6.896 31.789-35.245 55.67-69.068 55.67-38.968 0-70.67-31.702-70.67-70.67 0-33.823 23.882-62.172 55.67-69.068z"/>
    <path d="m340.13 145.61h77.5v30h-77.5z"/>
    <path d="m340.13 205.435h77.5v30h-77.5z"/>
    <path d="m340.13 265.259h77.5v30h-77.5z"/>
  </g>
</svg>
