<svg
  height="512pt"
  viewBox="0 -16 512 512"
  width="512pt"
  xmlns="http://www.w3.org/2000/svg"
>
  <path d="m256 360c-5.519531 0-10 4.480469-10 10s4.480469 10 10 10 10-4.480469 10-10-4.480469-10-10-10zm0 0"/>
  <path
    d="m482 100h-96v-50c0-27.570312-22.429688-50-50-50h-160c-27.570312 0-50 22.429688-50 50v50h-96c-16.542969 0-30 13.457031-30 30v67.640625c0 11.4375 6.355469 21.71875 16.589844 26.832031.074218.039063.148437.078125.226562.113282l3.183594 1.488281v223.925781c0 16.542969 13.457031 30 30 30h412c16.542969 0 30-13.457031 30-30v-223.925781s3.335938-1.5625 3.410156-1.601563c10.234375-5.113281 16.589844-15.398437 16.589844-26.832031v-67.640625c0-16.542969-13.457031-30-30-30zm-336-50c0-16.542969 13.457031-30 30-30h160c16.542969 0 30 13.457031 30 30v50h-20v-50c0-5.523438-4.476562-10-10-10h-160c-5.523438 0-10 4.476562-10 10v50h-20zm180 10v40h-140v-40zm146 390c0 5.515625-4.484375 10-10 10h-196v-50c0-5.523438-4.476562-10-10-10s-10 4.476562-10 10v50h-196c-5.515625 0-10-4.484375-10-10v-214.554688l66 30.914063v43.640625c0 5.523438 4.476562 10 10 10h40c5.523438 0 10-4.476562 10-10v-13.820312l76.59375 38.296874c4.195312 2.09375 8.800781 3.140626 13.402344 3.140626 4.605468 0 9.214844-1.046876 13.414062-3.144532l76.589844-38.292968v13.820312c0 5.523438 4.476562 10 10 10h40c5.523438 0 10-4.476562 10-10v-43.640625l66-30.914063zm-346-150v-60h20v60zm240 0v-60h20v60zm126-102.359375c0 3.773437-2.082031 7.175781-5.4375 8.898437l-80.5625 37.734376v-14.273438c0-5.523438-4.476562-10-10-10h-40c-5.523438 0-10 4.476562-10 10v43.820312l-85.523438 42.761719c-2.804687 1.398438-6.148437 1.398438-8.945312.003907l-85.53125-42.765626v-43.820312c0-5.523438-4.476562-10-10-10h-40c-5.523438 0-10 4.476562-10 10v14.273438l-80.5625-37.738282c-3.355469-1.71875-5.4375-5.117187-5.4375-8.894531v-67.640625c0-5.515625 4.484375-10 10-10h452c5.515625 0 10 4.484375 10 10zm0 0"
  />
  <path d="m306 350v80c0 5.523438 4.476562 10 10 10h100c5.523438 0 10-4.476562 10-10v-80c0-5.523438-4.476562-10-10-10h-100c-5.523438 0-10 4.476562-10 10zm20 10h80v60h-80zm0 0"/>
  <path d="m196 340h-100c-5.523438 0-10 4.476562-10 10v80c0 5.523438 4.476562 10 10 10h100c5.523438 0 10-4.476562 10-10v-80c0-5.523438-4.476562-10-10-10zm-10 80h-80v-60h80zm0 0"/>
  <path d="m256 160c-16.542969 0-30 13.457031-30 30s13.457031 30 30 30 30-13.457031 30-30-13.457031-30-30-30zm0 40c-5.515625 0-10-4.484375-10-10s4.484375-10 10-10 10 4.484375 10 10-4.484375 10-10 10zm0 0"/>
</svg>
