<svg
  height="511pt"
  viewBox="0 0 511.9995 511"
  width="511pt"
  xmlns="http://www.w3.org/2000/svg"
>
  <path d="m329.992188 240.492188c5.519531 0 10-4.480469 10-10 0-5.519532-4.480469-10-10-10-5.519532 0-10 4.480468-10 10 0 5.519531 4.480468 10 10 10zm0 0"/>
  <path d="m333.386719 200.636719c.078125 0 .15625-.003907.234375-.003907 5.519531-.125 9.894531-4.703124 9.765625-10.226562-1.128907-49.382812-26.519531-95.03125-67.921875-122.105469-4.621094-3.023437-10.816406-1.726562-13.839844 2.894531-3.023438 4.621094-1.726562 10.820313 2.894531 13.84375 35.886719 23.46875 57.894531 63.03125 58.875 105.824219.125 5.445313 4.574219 9.773438 9.992188 9.773438zm0 0"/>
  <path
    d="m398.480469 328.269531c-3.902344-3.902343-10.238281-3.902343-14.144531 0l-7.066407 7.070313-33.398437-33.398438c23.347656-32.25 36.117187-71.476562 36.117187-111.445312 0-104.765625-85.230469-189.996094-189.992187-189.996094-104.765625 0-189.996094 85.230469-189.996094 189.996094 0 104.761718 85.230469 189.992187 189.996094 189.992187 39.96875 0 79.195312-12.773437 111.441406-36.117187l33.398438 33.398437-7.066407 7.066407c-3.902343 3.902343-3.90625 10.238281 0 14.144531l98.863281 98.855469c19.53125 19.542968 51.160157 19.558593 70.703126.003906 19.546874-19.535156 19.554687-51.160156 0-70.703125zm-208.484375 32.21875c-93.738282 0-169.996094-76.257812-169.996094-169.992187 0-93.738282 76.257812-169.996094 169.996094-169.996094 93.734375 0 169.992187 76.257812 169.992187 169.996094 0 93.648437-75.777343 169.992187-169.992187 169.992187zm127.082031-28.761719c4.957031-4.464843 9.679687-9.191406 14.144531-14.148437l31.90625 31.902344-14.148437 14.148437zm166.117187 151.972657c-11.722656 11.726562-30.6875 11.734375-42.417968-.003907l-91.792969-91.785156c39.265625-39.269531-33.554687 33.550782 42.425781-42.425781l91.789063 91.796875c11.726562 11.71875 11.734375 30.683594-.003907 42.417969zm0 0"
  />
  <path d="m189.996094 180.496094c-5.515625 0-10-4.488282-10-10 0-5.515625 4.484375-10 10-10 3.539062 0 7.28125 1.804687 10.8125 5.226562 3.972656 3.839844 10.300781 3.734375 14.140625-.230468 3.839843-3.972657 3.738281-10.300782-.230469-14.140626-5.074219-4.914062-10.152344-7.691406-14.722656-9.207031v-11.648437c0-5.523438-4.480469-10-10-10-5.523438 0-10 4.476562-10 10v11.71875c-11.640625 4.128906-20 15.242187-20 28.28125 0 16.539062 13.457031 30 30 30 5.511718 0 10 4.484375 10 9.996094 0 5.515624-4.488282 10-10 10-4.273438 0-8.886719-2.683594-12.984375-7.5625-3.554688-4.230469-9.863281-4.773438-14.089844-1.21875-4.226563 3.554687-4.773437 9.859374-1.21875 14.085937 5.34375 6.359375 11.628906 10.792969 18.292969 13.023437v11.671876c0 5.523437 4.476562 10 10 10 5.519531 0 10-4.476563 10-10v-11.71875c11.636718-4.128907 19.996094-15.242188 19.996094-28.28125 0-16.539063-13.457032-29.996094-29.996094-29.996094zm0 0"/>
</svg>
