<svg
  id="Capa_1"
  enable-background="new 0 0 512 512"
  height="512"
  viewBox="0 0 512 512"
  width="512"
  xmlns="http://www.w3.org/2000/svg"
>
  <g>
    <path d="m406 295.969v-295.969h-300v295.969l65.889 65.925v19.811h-20v30h20v41.037h39.111v59.258h90v-59.258h39.111v-41.029h20v-30h-20v-19.819zm-270-265.969h240v253.547l-57.104 57.136h-47.896v-76.568c21.921-5.903 37.962-24.402 37.962-46.248 0-26.587-23.759-48.217-52.962-48.217-12.661 0-22.962-8.172-22.962-18.218 0-10.045 10.301-18.217 22.962-18.217s22.962 8.172 22.962 18.217h30c0-21.846-16.041-40.345-37.962-46.248v-16.684h-30v16.684c-21.921 5.903-37.962 24.402-37.962 46.248 0 26.587 23.759 48.218 52.962 48.218 12.661 0 22.962 8.172 22.962 18.217s-10.301 18.217-22.962 18.217-22.962-8.172-22.962-18.217h-30c0 21.846 16.041 40.345 37.962 46.248v76.568h-47.896l-57.104-57.136zm135 452h-30v-29.258h30zm39.111-59.258h-108.222v-52.059h108.223v52.059z"/>
  </g>
</svg>
