<svg
  id="Capa_1"
  enable-background="new 0 0 512 512"
  height="512"
  viewBox="0 0 512 512"
  width="512"
  xmlns="http://www.w3.org/2000/svg"
>
  <g>
    <path d="m271.008 241v-241h-15.008c-68.382 0-132.67 26.63-181.023 74.984-48.349 48.352-74.977 112.638-74.977 181.016s26.628 132.664 74.977 181.016c48.353 48.354 112.641 74.984 181.023 74.984s132.67-26.63 181.022-74.984c48.35-48.352 74.978-112.638 74.978-181.016v-15zm-30.017 8.787-155.098 155.009c-10.137-11.557-18.982-23.985-26.464-37.107l181.562-183.099zm0-107.816-195.331 196.984c-6.977-17.706-11.693-36.32-14.001-55.484l209.332-210.905zm-144.781-45.78c38.994-38.996 89.725-61.984 144.227-65.666l-210.002 211.581c3.321-55.142 26.381-106.52 65.775-145.915zm319.58 319.618c-42.682 42.684-99.43 66.191-159.79 66.191-55.358 0-107.678-19.773-148.896-55.978l155.112-155.022h219.28c-3.561 54.725-26.574 105.677-65.706 144.809z"/>
    <path d="m310.988 34.11h164.991v30h-164.991z"/>
    <path d="m310.988 103.496h164.991v30h-164.991z"/>
    <path d="m310.988 172.437h164.991v30h-164.991z"/>
  </g>
</svg>
