<svg
  height="512pt"
  viewBox="-126 0 512 512"
  width="512pt"
  xmlns="http://www.w3.org/2000/svg"
>
  <path d="m90.019531 405.976562c5.519531 0 10.003907-4.480468 10.003907-10 0-5.523437-4.484376-10.003906-10.003907-10.003906s-10.003906 4.480469-10.003906 10.003906c0 5.519532 4.484375 10 10.003906 10zm0 0"/>
  <path
    d="m240.089844 110.023438c0-60.667969-49.355469-110.023438-110.023438-110.023438-60.664062 0-110.023437 49.355469-110.023437 110.023438 0 57.28125 44.003906 104.472656 99.984375 109.5625v110.4375l-20.003906-18.449219v-15.621094c0-38.605469-31.410157-70.015625-70.015626-70.015625h-20.003906c-5.527344 0-10.003906 4.480469-10.003906 10.003906v20.003906c0 38.605469 31.410156 70.015626 70.015625 70.015626h16.097656l21.6875 20.003906h-97.796875c-5.527344 0-10.003906 4.476562-10.003906 10 0 5.527344 4.476562 10.003906 10.003906 10.003906h12.371094l37.992188 138.671875c1.191406 4.347656 5.140624 7.359375 9.648437 7.359375h120.023437c4.507813 0 8.457032-3.011719 9.648438-7.359375l37.992188-138.671875h12.375c5.523437 0 10-4.476562 10-10.003906 0-5.523438-4.476563-10-10-10h-97.800782l21.691406-20.003906h16.09375c38.609376 0 70.015626-31.410157 70.015626-70.015626v-20.003906c0-5.523437-4.476563-10.003906-10-10.003906h-20.003907c-38.609375 0-70.015625 31.410156-70.015625 70.015625v15.621094l-20.003906 18.449219v-110.433594c56.015625-5.050782 100.058594-52.257813 100.058594-109.566406zm-160.074219 195.933593h-10c-27.578125 0-50.011719-22.4375-50.011719-50.011719v-10.003906h10.003906c27.574219 0 50.007813 22.4375 50.007813 50.011719zm100.023437-10.003906c0-27.574219 22.433594-50.011719 50.011719-50.011719h10v10.003906c0 27.574219-22.433593 50.011719-50.011719 50.011719h-10zm36.898438 70.015625-5.480469 20.003906h-81.429687c-5.523438 0-10 4.476563-10 10.003906 0 5.523438 4.476562 10 10 10h75.949218l-23.566406 86.019532h-104.765625l-34.527343-126.027344zm-86.871094-165.925781c-49.636718 0-90.019531-40.382813-90.019531-90.019531 0-49.636719 40.382813-90.019532 90.019531-90.019532 49.636719 0 90.019532 40.382813 90.019532 90.019532 0 49.636718-40.382813 90.019531-90.019532 90.019531zm0 0"
  />
  <path
    d="m130.027344 100.023438c-5.515625 0-10-4.488282-10-10.003907s4.484375-10.003906 10-10.003906c3.542968 0 7.285156 1.808594 10.820312 5.230469 3.96875 3.839844 10.300782 3.738281 14.140625-.234375 3.84375-3.96875 3.738281-10.300781-.230469-14.140625-5.078124-4.914063-10.15625-7.691406-14.730468-9.207032v-11.652343c0-5.523438-4.476563-10.003907-10-10.003907-5.523438 0-10.003906 4.480469-10.003906 10.003907v11.722656c-11.640626 4.128906-20.003907 15.246094-20.003907 28.285156 0 16.546875 13.460938 30.007813 30.007813 30.007813 5.515625 0 10 4.484375 10 10s-4.484375 10.003906-10 10.003906c-4.273438 0-8.886719-2.6875-12.988282-7.566406-3.554687-4.230469-9.863281-4.777344-14.09375-1.21875-4.226562 3.554687-4.773437 9.863281-1.21875 14.089844 5.347657 6.359374 11.636719 10.792968 18.296876 13.027343v11.671875c0 5.527344 4.480468 10.003906 10.003906 10.003906 5.523437 0 10-4.476562 10-10.003906v-11.722656c11.644531-4.128906 20.007812-15.246094 20.007812-28.285156 0-16.546875-13.460937-30.003906-30.007812-30.003906zm0 0"
  />
</svg>
