<svg
  id="Capa_1"
  enable-background="new 0 0 512 512"
  height="512"
  viewBox="0 0 512 512"
  width="512"
  xmlns="http://www.w3.org/2000/svg"
>
  <g>
    <path d="m512 90v-90h-512v90h20v265h-20v30h241v39.571c-17.461 6.191-30 22.873-30 42.429 0 24.813 20.187 45 45 45s45-20.187 45-45c0-19.556-12.539-36.238-30-42.429v-39.571h241v-30h-20v-265zm-256 392c-8.271 0-15-6.729-15-15s6.729-15 15-15 15 6.729 15 15-6.729 15-15 15zm-226-452h452v30h-452zm432 325h-412v-265h412z"/>
    <path d="m118.719 305.481 85.412-85.407 75.509 75.506 109.247-109.242v27.523h30v-78.736h-78.631v30h27.417l-88.033 88.029-75.509-75.506-106.625 106.62z"/>
    <path d="m85.478 125.125h67.5v30h-67.5z"/>
    <path d="m359.808 290.654h67.5v30h-67.5z"/>
  </g>
</svg>
