<svg
  id="Capa_1"
  enable-background="new 0 0 512 512"
  height="512"
  viewBox="0 0 512 512"
  width="512"
  xmlns="http://www.w3.org/2000/svg"
>
  <g>
    <path
      d="m368.717 251.909v-55.293h-55.293c-15.832 0-30.494 5.107-42.425 13.759v-35.469c21.79-5.905 37.727-24.334 37.727-46.093 0-26.508-23.653-48.075-52.727-48.075-12.531 0-22.727-8.108-22.727-18.075s10.195-18.075 22.727-18.075 22.727 8.108 22.727 18.075h30c0-21.759-15.937-40.188-37.727-46.094v-16.569h-30v16.568c-21.79 5.905-37.727 24.335-37.727 46.094 0 26.508 23.653 48.075 52.727 48.075 12.531 0 22.727 8.108 22.727 18.075s-10.195 18.074-22.726 18.074-22.727-8.108-22.727-18.075h-30c0 21.759 15.937 40.188 37.727 46.093v35.47c-11.931-8.652-26.593-13.759-42.425-13.759h-55.292v55.293c0 15.832 5.107 30.494 13.759 42.425h-79.376v90h25.501l20 127.667h265.666l20-127.667h25.5v-90h-79.374c8.652-11.931 13.758-26.592 13.758-42.424zm-55.293-25.293h25.293v25.293c0 23.393-19.031 42.425-42.425 42.425h-25.292v-25.293c0-23.394 19.031-42.425 42.424-42.425zm-140.142 25.293v-25.293h25.292c23.393 0 42.425 19.032 42.425 42.425v25.293h-25.293c-23.393-.001-42.424-19.032-42.424-42.425zm-24.449 230.091-4.674-29.833h223.681l-4.673 29.833zm223.707-59.833h-233.08l-5.927-37.833h244.934zm31.793-67.834h-296.667v-30h296.667z"
    />
    <path
      d="m97.46 12.456h30v85.976h-30z"
      transform="matrix(.179 -.984 .984 .179 37.767 156.154)"
    />
    <path
      d="m122.415 120.789h34.648v30h-34.648z"
      transform="matrix(.94 -.342 .342 .94 -38.016 55.984)"
    />
    <path
      d="m356.55 41.452h85.977v30h-85.977z"
      transform="matrix(.984 -.179 .179 .984 -3.649 72.497)"
    />
    <path
      d="m357.26 119.473h30v34.647h-30z"
      transform="matrix(.342 -.94 .94 .342 116.388 439.816)"
    />
  </g>
</svg>
