<svg
  id="Capa_1"
  enable-background="new 0 0 512 512"
  height="512"
  viewBox="0 0 512 512"
  width="512"
  xmlns="http://www.w3.org/2000/svg"
>
  <g>
    <path d="m475.348 91.189v-30h-204.348v-61.189h-175.231v61.189h-59.117v30h29.939v109.905h-29.939v30h29.939v111h-29.939v30h29.939v109.906h-29.939v30h438.696v-30h-29.939v-109.905h29.939v-30h-29.939v-111h29.939v-30h-29.939v-109.906zm-349.579-61.189h115.231v31.189h-115.23v-31.189zm-29.178 201.095h99.709c-20.943 29.765-31.543 56.71-31.543 80.252 0 10.784 1.881 21.137 5.333 30.748h-73.499zm159.409 141.477c-33.77 0-61.243-27.465-61.243-61.225 0-35.182 37.97-81.202 61.252-104.886 23.285 23.654 61.234 69.618 61.234 104.886 0 33.76-27.474 61.225-61.243 61.225zm159.409 109.428h-318.818v-109.905h91.394c16.72 18.693 41.017 30.478 68.014 30.478s51.294-11.784 68.014-30.478h91.395v109.905zm0-139.905h-73.499c3.452-9.611 5.333-19.964 5.333-30.748 0-23.543-10.601-50.487-31.543-80.252h99.709zm0-141h-123.524c-13.942-15.801-25.202-26.04-25.82-26.599l-10.065-9.11-10.065 9.11c-.618.559-11.878 10.799-25.82 26.599h-123.524v-109.906h318.817v109.906z"/>
  </g>
</svg>
