<svg
  height="512pt"
  viewBox="-56 0 512 512"
  width="512pt"
  xmlns="http://www.w3.org/2000/svg"
>
  <path d="m130 472c5.519531 0 10-4.480469 10-10s-4.480469-10-10-10-10 4.480469-10 10 4.480469 10 10 10zm0 0"/>
  <path d="m90 40c-5.519531 0-10 4.480469-10 10s4.480469 10 10 10 10-4.480469 10-10-4.480469-10-10-10zm0 0"/>
  <path d="m230 0h-200c-16.542969 0-30 13.457031-30 30v452c0 16.542969 13.457031 30 30 30h200c16.542969 0 30-13.457031 30-30v-120.144531c9.699219 2.75 19.742188 4.144531 30 4.144531 60.652344 0 110-49.347656 110-110s-49.347656-110-110-110c-10.257812 0-20.300781 1.394531-30 4.144531v-120.144531c0-16.542969-13.457031-30-30-30zm-210 30c0-5.515625 4.484375-10 10-10h200c5.515625 0 10 4.484375 10 10v50h-220zm220 452c0 5.515625-4.484375 10-10 10h-200c-5.515625 0-10-4.484375-10-10v-50h220zm0-70h-220v-312h220v58.011719c-36.652344 18.710937-60 56.46875-60 97.988281s23.347656 79.277344 60 97.988281zm50-246c49.625 0 90 40.375 90 90s-40.375 90-90 90c-50.121094 0-90-40.695312-90-90 0-35.796875 21.195312-68.183594 54.003906-82.515625 11.371094-4.964844 23.480469-7.484375 35.996094-7.484375zm0 0"/>
  <path d="m170 40h-40c-5.523438 0-10 4.476562-10 10s4.476562 10 10 10h40c5.523438 0 10-4.476562 10-10s-4.476562-10-10-10zm0 0"/>
  <path d="m290 266h40c5.523438 0 10-4.476562 10-10s-4.476562-10-10-10h-30v-30c0-5.523438-4.476562-10-10-10s-10 4.476562-10 10v40c0 5.523438 4.476562 10 10 10zm0 0"/>
  <path d="m130 246c-5.515625 0-10-4.484375-10-10s4.484375-10 10-10c3.542969 0 7.28125 1.808594 10.816406 5.226562 3.96875 3.839844 10.296875 3.738282 14.140625-.230468 3.839844-3.96875 3.734375-10.300782-.234375-14.140625-5.074218-4.914063-10.152344-7.691407-14.722656-9.207031v-11.648438c0-5.523438-4.476562-10-10-10s-10 4.476562-10 10v11.71875c-11.640625 4.128906-20 15.246094-20 28.28125 0 16.542969 13.457031 30 30 30 5.515625 0 10 4.484375 10 10s-4.484375 10-10 10c-4.273438 0-8.882812-2.6875-12.984375-7.566406-3.554687-4.226563-9.863281-4.773438-14.089844-1.21875-4.226562 3.554687-4.773437 9.863281-1.21875 14.089844 5.34375 6.359374 11.632813 10.789062 18.292969 13.023437v11.671875c0 5.523438 4.476562 10 10 10s10-4.476562 10-10v-11.71875c11.640625-4.128906 20-15.246094 20-28.28125 0-16.542969-13.457031-30-30-30zm0 0"/>
</svg>
