<svg
  id="Capa_1"
  enable-background="new 0 0 512 512"
  height="512"
  viewBox="0 0 512 512"
  width="512"
  xmlns="http://www.w3.org/2000/svg"
>
  <g>
    <path d="m383.636 68.787v-38.787h15.107v-30h-290.379v30h20v38.787l-41.113 41.113v352.2l49.9 49.9h237.698l49.9-49.9v-352.2zm-30-38.787v30h-195.272v-30zm-204.058 60h212.845l32.327 32.326v8.787h-277.499v-8.787zm245.171 71.113v249.773h-277.498v-249.773zm-32.327 320.887h-212.844l-32.327-32.326v-8.787h277.498v8.787z"/>
    <path d="m256 301c11.274 0 20.799 7.503 20.799 16.385 0 8.881-9.525 16.384-20.799 16.384s-20.799-7.503-20.799-16.384h-30c0 20.811 15.087 38.464 35.799 44.32v15.139h30v-15.139c20.712-5.856 35.799-23.51 35.799-44.32 0-25.576-22.788-46.385-50.799-46.385-11.274 0-20.799-7.503-20.799-16.385 0-8.881 9.525-16.384 20.799-16.384s20.799 7.503 20.799 16.384h30c0-20.811-15.087-38.464-35.799-44.32v-15.139h-30v15.139c-20.712 5.856-35.799 23.51-35.799 44.32 0 25.576 22.788 46.385 50.799 46.385z"/>
  </g>
</svg>
