<svg
  id="Capa_1"
  enable-background="new 0 0 512 512"
  height="512"
  viewBox="0 0 512 512"
  width="512"
  xmlns="http://www.w3.org/2000/svg"
>
  <g>
    <path d="m512 412.768v-412.768h-512v412.768h190.024l-25.641 69.232h-57.383v30h298v-30h-57.383l-25.641-69.232zm-30-382.768v292.768h-452v-292.768zm-452 322.768h452v30h-452zm285.625 129.232h-119.25l25.641-69.232h67.968z"/>
    <path d="m270.477 253.462 98.641-98.637v27.525h30v-78.737h-78.632v30h27.418l-98.64 98.636z"/>
    <path d="m169.674 223.112c-11.274 0-20.799-7.494-20.799-16.364h-30c0 20.802 15.087 38.448 35.799 44.301v15.12h30v-15.12c20.711-5.854 35.798-23.5 35.798-44.301 0-25.565-22.788-46.364-50.798-46.364-11.274 0-20.799-7.494-20.799-16.364s9.525-16.364 20.799-16.364 20.798 7.494 20.798 16.364h30c0-20.802-15.087-38.448-35.798-44.301v-15.12h-30v15.12c-20.712 5.854-35.799 23.5-35.799 44.301 0 25.565 22.788 46.364 50.799 46.364 11.274 0 20.798 7.494 20.798 16.364s-9.524 16.364-20.798 16.364z"/>
  </g>
</svg>
