<svg
  height="512pt"
  viewBox="0 -46 512 512"
  width="512pt"
  xmlns="http://www.w3.org/2000/svg"
>
  <path d="m90 140c-5.519531 0-10 4.480469-10 10s4.480469 10 10 10 10-4.480469 10-10-4.480469-10-10-10zm0 0"/>
  <path d="m482 0h-452c-16.542969 0-30 13.457031-30 30v320c0 16.542969 13.457031 30 30 30h30v30c0 5.523438 4.476562 10 10 10h80c5.523438 0 10-4.476562 10-10v-30h192v30c0 5.523438 4.476562 10 10 10h80c5.523438 0 10-4.476562 10-10v-30h30c16.542969 0 30-13.457031 30-30v-320c0-16.542969-13.457031-30-30-30zm-342 400h-60v-20h60zm292 0h-60v-20h60zm60-50c0 5.515625-4.484375 10-10 10-23.234375 0-434.867188 0-452 0-5.515625 0-10-4.484375-10-10v-320c0-5.515625 4.484375-10 10-10h452c5.515625 0 10 4.484375 10 10zm0 0"/>
  <path d="m462 80h-10v-30c0-5.523438-4.476562-10-10-10h-392c-5.523438 0-10 4.476562-10 10v280c0 5.523438 4.476562 10 10 10h392c5.523438 0 10-4.476562 10-10v-30h10c5.523438 0 10-4.476562 10-10v-60c0-5.523438-4.476562-10-10-10h-10v-60h10c5.523438 0 10-4.476562 10-10v-60c0-5.523438-4.476562-10-10-10zm-30 240h-372v-260h372v20h-10c-5.523438 0-10 4.476562-10 10v60c0 5.523438 4.476562 10 10 10h10v60h-10c-5.523438 0-10 4.476562-10 10v60c0 5.523438 4.476562 10 10 10h10zm20-40h-20v-40h20zm0-140h-20v-40h20zm0 0"/>
  <path
    d="m246 100c-55.164062 0-100 44.703125-100 100 0 55.160156 44.699219 100 100 100 55.164062 0 100-44.703125 100-100 0-55.167969-44.707031-100-100-100zm0 20c18.003906 0 35.082031 5.921875 49.046875 16.8125l-14.304687 14.300781c-10.09375-7.210937-22.121094-11.113281-34.742188-11.113281-12.617188 0-24.644531 3.902344-34.742188 11.113281l-14.304687-14.304687c13.964844-10.886719 31.042969-16.808594 49.046875-16.808594zm40 80c0 21.890625-17.777344 40-40 40-22.113281 0-40-17.992188-40-40 0-22.109375 17.988281-40 40-40 22.113281 0 40 17.992188 40 40zm-120 0c0-18.003906 5.921875-35.082031 16.8125-49.046875l14.300781 14.304687c-7.210937 10.089844-11.113281 22.121094-11.113281 34.742188 0 12.617188 3.902344 24.648438 11.113281 34.742188l-14.304687 14.304687c-10.886719-13.964844-16.808594-31.042969-16.808594-49.046875zm80 80c-18.003906 0-35.078125-5.921875-49.046875-16.8125l14.304687-14.300781c10.09375 7.210937 22.121094 11.113281 34.742188 11.113281s24.648438-3.902344 34.742188-11.113281l14.304687 14.300781c-13.964844 10.890625-31.042969 16.8125-49.046875 16.8125zm63.1875-30.953125-14.300781-14.304687c7.210937-10.089844 11.113281-22.121094 11.113281-34.742188 0-12.617188-3.902344-24.648438-11.113281-34.742188l14.304687-14.304687c10.886719 13.964844 16.808594 31.042969 16.808594 49.046875s-5.921875 35.082031-16.8125 49.046875zm0 0"
  />
  <path d="m90 180c-5.523438 0-10 4.476562-10 10v60c0 5.523438 4.476562 10 10 10s10-4.476562 10-10v-60c0-5.523438-4.476562-10-10-10zm0 0"/>
</svg>
