<svg
  id="Capa_1"
  enable-background="new 0 0 512 512"
  height="512"
  viewBox="0 0 512 512"
  width="512"
  xmlns="http://www.w3.org/2000/svg"
>
  <g>
    <path d="m447 154.614v-154.614h-382v154.614l-65 50v307.386h512v-307.386zm35 64.772v41.223l-35 21.494v-89.64zm-65-189.386v270.526l-160.895 98.806-161.105-101.61v-267.722zm-352 162.463v86.338l-35-22.075v-37.34zm-35 289.537v-189.805l225.895 142.473 226.105-138.854v186.186z"/>
    <path d="m255.689 326.104c69.798 0 126.583-56.785 126.583-126.583s-56.785-126.583-126.583-126.583-126.583 56.785-126.583 126.583 56.785 126.583 126.583 126.583zm0-223.166c53.255 0 96.583 43.327 96.583 96.583s-43.327 96.583-96.583 96.583-96.583-43.327-96.583-96.583 43.327-96.583 96.583-96.583z"/>
    <path d="m312.389 177.263-21.213-21.213-48.518 48.517-22.456-22.455-21.213 21.213 43.669 43.668z"/>
  </g>
</svg>
