<svg
  height="511pt"
  viewBox="0 -35 511.99981 511"
  width="511pt"
  xmlns="http://www.w3.org/2000/svg"
>
  <path d="m399 400.5c5.519531 0 10-4.480469 10-10s-4.480469-10-10-10-10 4.480469-10 10 4.480469 10 10 10zm0 0"/>
  <path d="m266 50.5v-40c0-5.523438-4.476562-10-10-10s-10 4.476562-10 10v40c0 5.523438 4.476562 10 10 10s10-4.476562 10-10zm0 0"/>
  <path d="m344.492188 96.152344 28.289062-28.289063c3.90625-3.90625 3.90625-10.238281 0-14.144531-3.90625-3.902344-10.234375-3.902344-14.144531 0l-28.289063 28.289062c-3.90625 3.90625-3.90625 10.238282 0 14.144532 3.910156 3.90625 10.238282 3.902344 14.144532 0zm0 0"/>
  <path d="m181.652344 96.152344c3.902344-3.90625 3.902344-10.238282 0-14.144532l-28.292969-28.289062c-3.902344-3.902344-10.234375-3.902344-14.140625 0-3.90625 3.90625-3.90625 10.238281 0 14.144531l28.289062 28.289063c3.90625 3.90625 10.238282 3.902344 14.144532 0zm0 0"/>
  <path
    d="m123.714844 226.785156-37.484375 93.714844h-36.230469c-4.089844 0-7.765625 2.488281-9.285156 6.285156l-40 100c-1.230469 3.082032-.855469 6.574219 1.003906 9.320313 1.859375 2.75 4.964844 4.394531 8.28125 4.394531h492c3.316406 0 6.421875-1.644531 8.28125-4.394531 1.859375-2.746094 2.234375-6.238281 1.003906-9.320313l-40-100c-1.519531-3.796875-5.195312-6.285156-9.285156-6.285156h-36.230469l-37.484375-93.714844c-1.519531-3.796875-5.195312-6.285156-9.285156-6.285156h-36.230469l-37.484375-93.714844c-1.519531-3.796875-5.195312-6.285156-9.285156-6.285156h-80c-4.089844 0-7.765625 2.488281-9.285156 6.285156l-37.484375 93.714844h-36.230469c-4.089844 0-7.765625 2.488281-9.285156 6.285156zm-98.945313 193.714844 32-80h69.460938l32 80zm123-80h50.460938l-25.230469 63.074219zm40 80 32-80h72.460938l32 80zm68.230469-116.925781-25.230469-63.074219h50.460938zm57.769531 36.925781h50.460938l-25.230469 63.074219zm141.460938 0 16 40h-32.230469c-5.523438 0-10 4.476562-10 10s4.476562 10 10 10h40.230469l8 20h-133.460938l32-80zm-83-100 32 80c-14.160157 0-111.628907 0-133.460938 0l32-80zm-149.460938-100h66.460938l32 80c-15.953125 0-111.546875 0-130.460938 0zm-13.539062 100 32 80c-13.527344 0-113.953125 0-133.460938 0l32-80zm0 0"
  />
</svg>
