<svg
  height="512pt"
  viewBox="0 -96 512.00075 512"
  width="512pt"
  xmlns="http://www.w3.org/2000/svg"
>
  <path d="m136.421875 180.011719c-.140625-.011719-.28125-.011719-.421875-.011719-5.519531 0-10 4.480469-10 10s4.480469 10 10 10c.140625 0 .28125 0 .410156-.007812 5.328125-.222657 9.589844-4.613282 9.589844-9.992188s-4.25-9.769531-9.578125-9.988281zm0 0"/>
  <path d="m256 180c-5.515625 0-10-4.484375-10-10 0-5.511719 4.484375-10 10-10 3.542969 0 7.28125 1.808594 10.816406 5.226562 3.96875 3.84375 10.296875 3.738282 14.140625-.230468 3.839844-3.96875 3.734375-10.300782-.234375-14.140625-5.074218-4.910157-10.152344-7.691407-14.722656-9.207031v-11.648438c0-5.523438-4.476562-10-10-10s-10 4.476562-10 10v11.71875c-11.640625 4.128906-20 15.246094-20 28.28125 0 16.542969 13.457031 30 30 30 5.515625 0 10 4.488281 10 10 0 5.515625-4.484375 10-10 10-4.273438 0-8.886719-2.6875-12.984375-7.5625-3.554687-4.230469-9.863281-4.773438-14.089844-1.222656-4.226562 3.554687-4.773437 9.863281-1.21875 14.089844 5.34375 6.359374 11.632813 10.792968 18.292969 13.027343v11.667969c0 5.523438 4.476562 10 10 10s10-4.476562 10-10v-11.71875c11.640625-4.128906 20-15.242188 20-28.28125 0-16.542969-13.457031-30-30-30zm0 0"/>
  <path d="m508.363281 100.40625c-67.972656-56.09375-161.605469-100.40625-252.363281-100.40625-91.027344 0-184.691406 44.558594-252.363281 100.40625-4.261719 3.515625-4.863281 9.820312-1.351563 14.078125 3.515625 4.261719 9.820313 4.863281 14.078125 1.347656 27.242188-22.480469 125.03125-95.832031 239.636719-95.832031s212.394531 73.351562 239.636719 95.832031c4.257812 3.515625 10.5625 2.914063 14.078125-1.347656 3.511718-4.257813 2.910156-10.5625-1.351563-14.078125zm0 0"/>
  <path
    d="m434.257812 121.683594c-52.550781-35.085938-115.332031-61.683594-178.257812-61.683594-55.773438 0-114.398438 19.839844-174.238281 58.964844-42.128907 27.546875-70.824219 55.753906-78.613281 63.746094l-.148438.148437c-1.886719 1.851563-3 4.410156-3 7.140625 0 2.933594 1.28125 5.671875 3.433594 7.542969.203125.199219.511718.507812.921875.917969 24.300781 24.265624 52.589843 46.972656 81.808593 65.664062 51.460938 32.917969 109.460938 55.875 169.835938 55.875 63.234375 0 126.089844-26.851562 178.257812-61.683594 45.351563-30.277344 73.820313-60.1875 75.007813-61.445312 3.644531-3.855469 3.644531-9.886719 0-13.742188-1.1875-1.257812-29.65625-31.167968-75.007813-61.445312zm-180.492187 178.292968c-49.835937-2.589843-86.867187-29.433593-101.617187-73.6875-1.746094-5.238281-7.410157-8.074218-12.648438-6.324218-5.238281 1.746094-8.070312 7.410156-6.324219 12.648437 6.277344 18.84375 16.21875 35.136719 29.085938 48.402344-64.066407-25.183594-114.996094-69.019531-137.996094-91.054687 19.285156-18.46875 72.285156-65.195313 139.65625-91.40625-13.625 13.664062-24.386719 30.273437-30.722656 48.753906-1.789063 5.222656.992187 10.910156 6.21875 12.699218 1.074219.371094 2.167969.546876 3.242187.546876 4.15625 0 8.039063-2.609376 9.460938-6.761719 13.789062-40.21875 53.574218-73.792969 103.878906-73.792969 60.601562 0 110 49.296875 110 110 0 59.457031-47.960938 110.636719-112.234375 109.976562zm168.996094-58.03125c-19.992188 13.320313-45.414063 27.921876-74.113281 39.152344 23.085937-23.476562 37.351562-55.648437 37.351562-91.097656 0-34.550781-13.152344-66.746094-37.101562-91 28.597656 11.214844 53.925781 25.773438 73.863281 39.054688 30.972656 20.632812 54.128906 41.496093 65.039062 51.945312-10.910156 10.453125-34.066406 31.3125-65.039062 51.945312zm0 0"
  />
</svg>
