<svg
  id="Capa_1"
  enable-background="new 0 0 512 512"
  height="512"
  viewBox="0 0 512 512"
  width="512"
  xmlns="http://www.w3.org/2000/svg"
>
  <g>
    <path d="m345.145 70.01v-30.02h-178.29v30.02h-166.855v402h512v-402zm-148.29-.02h118.289v30.041h-118.289zm285.145 372.02h-452v-342h136.855v30.021h178.289v-30.021h136.856z"/>
    <path d="m248.807 216.303h198v30h-198z"/>
    <path d="m248.807 276.01h198v30h-198z"/>
    <path d="m248.807 335.717h198v30h-198z"/>
    <path d="m178.327 281.893c11.948-11.024 19.431-26.74 19.431-44.156 0-33.272-27.313-60.342-60.886-60.342s-60.886 27.069-60.886 60.342c0 17.416 7.483 33.132 19.431 44.156-16.855 12.64-27.78 32.778-27.78 55.42v49.234h138.47v-49.234c-.001-22.642-10.925-42.78-27.78-55.42zm-72.342-44.156c0-16.73 13.855-30.342 30.886-30.342s30.886 13.611 30.886 30.342-13.855 30.341-30.886 30.341-30.886-13.611-30.886-30.341zm70.121 118.81h-78.47v-19.234c0-21.635 17.601-39.235 39.235-39.235s39.235 17.601 39.235 39.235z"/>
  </g>
</svg>
