<svg
  height="512pt"
  viewBox="0 0 512 512"
  width="512pt"
  xmlns="http://www.w3.org/2000/svg"
>
  <path d="m136 176c5.519531 0 10-4.480469 10-10 0-5.523438-4.496094-10-10-10-5.519531 0-10 4.480469-10 10 0 5.546875 4.511719 10 10 10zm0 0"/>
  <path d="m256 416c88.222656 0 160-71.773438 160-160s-71.777344-160-160-160c-29.992188 0-60.800781 8.589844-87.316406 25.980469-3.136719 2.066406-6.65625 4.472656-10.761719 7.679687-4.351563 3.398438-5.121094 9.6875-1.722656 14.035156 3.398437 4.355469 9.683593 5.128907 14.035156 1.726563.667969-.523437 1.335937-1.03125 2.007813-1.535156 26.59375-18.816407 51.816406-27.886719 83.757812-27.886719 77.195312 0 140 62.804688 140 140s-62.804688 140-140 140-140-62.804688-140-140c0-18.226562 3.609375-36.054688 9.757812-51.359375 2.058594-5.125-.421874-10.949219-5.546874-13.007813-4.988282-2.003906-10.9375.234376-13.101563 5.769532-7.199219 18.371094-11.109375 37.820312-11.109375 58.597656 0 88.226562 71.777344 160 160 160zm0 0"/>
  <path
    d="m10 266h36.242188c5.082031 107.851562 91.902343 194.675781 199.757812 199.757812v36.242188c0 5.523438 4.476562 10 10 10s10-4.476562 10-10v-36.242188c107.855469-5.082031 194.675781-91.90625 199.757812-199.757812h36.242188c5.523438 0 10-4.476562 10-10s-4.476562-10-10-10h-36.242188c-5.082031-107.851562-91.902343-194.675781-199.757812-199.757812v-36.242188c0-5.523438-4.476562-10-10-10s-10 4.476562-10 10v36.242188c-107.855469 5.082031-194.675781 91.90625-199.757812 199.757812h-36.242188c-5.523438 0-10 4.476562-10 10s4.476562 10 10 10zm66-20h-9.738281c5.046875-96.824219 82.914062-174.691406 179.738281-179.738281v9.738281c0 5.523438 4.476562 10 10 10s10-4.476562 10-10v-9.738281c96.824219 5.046875 174.691406 82.914062 179.738281 179.738281h-9.738281c-5.523438 0-10 4.476562-10 10s4.476562 9.988281 10 9.988281h9.738281c-5.046875 96.824219-82.914062 174.703125-179.738281 179.75v-9.738281c0-5.523438-4.476562-10-10-10s-10 4.476562-10 10v9.738281c-96.824219-5.046875-174.691406-82.914062-179.738281-179.738281h9.738281c5.523438 0 10-4.476562 10-10s-4.476562-10-10-10zm0 0"
  />
  <path d="m256 286c-4.273438 0-8.886719-2.6875-12.984375-7.5625-3.554687-4.230469-9.863281-4.777344-14.089844-1.222656-4.230469 3.554687-4.773437 9.863281-1.21875 14.089844 5.34375 6.359374 11.632813 10.792968 18.292969 13.023437v11.671875c0 5.523438 4.476562 10 10 10s10-4.476562 10-10v-11.71875c11.640625-4.128906 20-15.246094 20-28.28125 0-16.542969-13.457031-30-30-30-5.515625 0-10-4.484375-10-10s4.484375-10 10-10c3.542969 0 7.28125 1.808594 10.816406 5.226562 3.96875 3.839844 10.300782 3.738282 14.140625-.230468 3.839844-3.972656 3.734375-10.300782-.234375-14.140625-5.074218-4.914063-10.152344-7.691407-14.722656-9.207031v-11.648438c0-5.523438-4.476562-10-10-10s-10 4.476562-10 10v11.71875c-11.640625 4.128906-20 15.246094-20 28.28125 0 16.542969 13.457031 30 30 30 5.511719 0 10 4.484375 10 10s-4.484375 10-10 10zm0 0"/>
  <path d="m256 366c60.652344 0 110-49.347656 110-110s-49.347656-110-110-110-110 49.347656-110 110 49.347656 110 110 110zm0-200c49.625 0 90 40.375 90 90s-40.375 90-90 90-90-40.375-90-90 40.375-90 90-90zm0 0"/>
</svg>
