<svg
  height="512pt"
  viewBox="0 0 512 512"
  width="512pt"
  xmlns="http://www.w3.org/2000/svg"
>
  <path
    d="m452 372.617188v-36.726563c0-16.542969-13.457031-30-30-30h-156v-46.273437c67.027344-5.121094 120-61.300782 120-129.617188 0-71.832031-58.285156-130-130-130-57.972656 0-106.789062 38.199219-123.457031 89.246094-1.714844 5.25 1.152343 10.894531 6.402343 12.609375 5.253907 1.714843 10.898438-1.152344 12.609376-6.402344 14.507812-44.425781 57.457031-75.453125 104.445312-75.453125 61.011719 0 110 49.582031 110 110 0 60.652344-49.347656 110-110 110-45.453125 0-87.066406-28.234375-103.328125-72.246094-1.917969-5.179687-7.667969-7.832031-12.847656-5.914062-5.179688 1.914062-7.828125 7.667968-5.914063 12.847656 17.597656 47.605469 60.980469 80.894531 112.089844 84.910156v46.292969h-156c-16.542969 0-30 13.457031-30 30v36.726563c-33.878906 4.867187-60 34.070312-60 69.273437 0 38.597656 31.402344 70 70 70s70-31.402344 70-70c0-35.203125-26.121094-64.40625-60-69.273437v-36.726563c0-5.515625 4.484375-10 10-10h156v46.726563c-33.878906 4.867187-60 34.070312-60 69.273437 0 38.597656 31.402344 70 70 70s70-31.402344 70-70c0-35.203125-26.121094-64.40625-60-69.273437v-46.726563h156c5.515625 0 10 4.484375 10 10v36.726563c-33.878906 4.867187-60 34.070312-60 69.273437 0 38.597656 31.402344 70 70 70s70-31.402344 70-70c0-35.203125-26.121094-64.40625-60-69.273437zm-332 69.273437c0 27.570313-22.429688 50-50 50s-50-22.429687-50-50 22.429688-50 50-50 50 22.429687 50 50zm186 0c0 27.570313-22.429688 50-50 50s-50-22.429687-50-50 22.429688-50 50-50 50 22.429687 50 50zm136 50c-27.570312 0-50-22.429687-50-50s22.429688-50 50-50 50 22.429687 50 50-22.429688 50-50 50zm0 0"
  />
  <path d="m136.589844 141.871094c5.230468-.332032 9.371094-4.671875 9.371094-9.980469 0-5.410156-4.3125-9.820313-9.679688-9.992187-.101562-.007813-.210938-.007813-.320312-.007813-5.519532 0-10 4.480469-10 10s4.480468 10 10 10c.210937 0 .417968-.011719.628906-.019531zm0 0"/>
  <path d="m256 160c-4.273438 0-8.882812-2.6875-12.984375-7.566406-3.554687-4.226563-9.863281-4.769532-14.089844-1.21875-4.230469 3.554687-4.773437 9.863281-1.222656 14.089844 5.347656 6.359374 11.636719 10.792968 18.296875 13.023437v11.671875c0 5.523438 4.476562 10 10 10s10-4.476562 10-10v-11.71875c11.636719-4.128906 20-15.242188 20-28.28125 0-16.539062-13.460938-30-30-30-5.515625 0-10-4.484375-10-10 0-5.511719 4.484375-10 10-10 3.539062 0 7.28125 1.808594 10.816406 5.226562 3.96875 3.84375 10.296875 3.738282 14.136719-.230468 3.84375-3.96875 3.738281-10.300782-.230469-14.140625-5.074218-4.910157-10.152344-7.6875-14.726562-9.207031v-11.648438c0-5.523438-4.476563-10-10-10-5.519532 0-10 4.476562-10 10v11.71875c-11.636719 4.128906-20 15.246094-20 28.28125 0 16.542969 13.460937 30 30 30 5.515625 0 10 4.484375 10 10s-4.480469 10-9.996094 10zm0 0"/>
</svg>
