<svg
  height="512pt"
  viewBox="0 -16 512.00114 512"
  width="512pt"
  xmlns="http://www.w3.org/2000/svg"
>
  <path d="m296 420c5.519531 0 10-4.480469 10-10s-4.480469-10-10-10-10 4.480469-10 10 4.480469 10 10 10zm0 0"/>
  <path d="m176.960938 160h158.078124c3.558594 0 6.84375-1.886719 8.636719-4.957031 1.792969-3.070313 1.820313-6.863281.074219-9.957031l-79.042969-140c-1.773437-3.140626-5.101562-5.085938-8.707031-5.085938s-6.933594 1.941406-8.707031 5.085938l-79.039063 140c-1.75 3.09375-1.722656 6.886718.070313 9.957031 1.792969 3.070312 5.082031 4.957031 8.636719 4.957031zm79.039062-129.660156 61.910156 109.660156h-123.820312zm0 0"/>
  <path d="m147.222656 185.375-62.609375 120c-1.617187 3.101562-1.496093 6.820312.316407 9.808594 1.8125 2.992187 5.054687 4.816406 8.550781 4.816406h325.039062c3.496094 0 6.738281-1.824219 8.554688-4.816406 1.8125-2.988282 1.929687-6.707032.3125-9.808594l-62.609375-120c-1.722656-3.304688-5.140625-5.375-8.867188-5.375h-199.820312c-3.726563 0-7.140625 2.070312-8.867188 5.375zm202.625 14.625 52.175782 100h-292.046876l52.175782-100zm0 0"/>
  <path d="m63.746094 345.375-62.613282 120c-1.617187 3.101562-1.496093 6.820312.316407 9.808594 1.8125 2.992187 5.054687 4.816406 8.550781 4.816406h492c3.496094 0 6.738281-1.824219 8.550781-4.816406 1.816407-2.988282 1.933594-6.707032.316407-9.808594l-62.609376-120c-1.726562-3.304688-5.140624-5.375-8.867187-5.375h-366.78125c-3.726563 0-7.140625 2.070312-8.863281 5.375zm369.582031 14.625 52.175781 100h-459.007812l52.175781-100zm0 0"/>
  <path d="m336 420h86c5.523438 0 10-4.476562 10-10 0-5.519531-4.476562-10-10-10h-86c-5.523438 0-10 4.480469-10 10 0 5.523438 4.476562 10 10 10zm0 0"/>
</svg>
