<svg
  height="512pt"
  viewBox="0 0 512 512"
  width="512pt"
  xmlns="http://www.w3.org/2000/svg"
>
  <path d="m176 386c-5.519531 0-10 4.480469-10 10s4.480469 10 10 10 10-4.480469 10-10-4.480469-10-10-10zm0 0"/>
  <path
    d="m502.28125 202.480469-96.28125-82.152344v-50.328125c0-5.523438-4.476562-10-10-10h-50.046875l-48.421875-43.964844c-11.390625-10.339844-26.140625-16.035156-41.53125-16.035156s-30.140625 5.695312-41.53125 16.035156l-48.421875 43.964844h-50.046875c-5.523438 0-10 4.476562-10 10v50.328125s-96.546875 82.386719-96.675781 82.507813c-5.761719 5.46875-9.324219 13.367187-9.324219 21.734374v257.429688c0 16.15625 13.0625 30 30 30h452c16.636719 0 30-13.527344 30-30v-257.429688c0-8.957031-4.257812-17.425781-9.71875-22.089843zm-96.28125-55.859375 81.460938 69.507812-81.460938 77.871094zm-178.089844-115.777344c7.703125-6.992188 17.679688-10.84375 28.089844-10.84375s20.386719 3.851562 28.089844 10.84375l32.109375 29.15625h-120.398438zm-101.910156 49.15625h260v233.121094l-21.148438 20.21875-15.40625-17.261719c-5.6875-6.402344-13.859374-10.078125-22.425781-10.078125h-142.039062c-8.566407 0-16.738281 3.675781-22.410157 10.0625l-15.421874 17.277344-21.148438-20.21875zm-20 66.621094v147.382812l-81.460938-77.875zm-86 329.203125v-236.371094l113.824219 108.816406zm12.371094 16.175781c10.8125-12.113281 138.820312-155.5625 145.136718-162.640625 1.894532-2.136719 4.617188-3.359375 7.472657-3.359375h142.039062c2.855469 0 5.578125 1.226562 7.488281 3.378906 6.316407 7.074219 134.25 150.4375 145.121094 162.621094zm459.628906-16.175781-113.824219-127.550781 113.824219-108.820313zm0 0"
  />
  <path d="m336 386h-120c-5.523438 0-10 4.476562-10 10s4.476562 10 10 10h120c5.523438 0 10-4.476562 10-10s-4.476562-10-10-10zm0 0"/>
  <path d="m196 226c-4.273438 0-8.886719-2.6875-12.984375-7.5625-3.554687-4.230469-9.863281-4.773438-14.089844-1.222656-4.226562 3.554687-4.773437 9.863281-1.21875 14.089844 5.34375 6.359374 11.632813 10.792968 18.292969 13.023437v11.671875c0 5.523438 4.476562 10 10 10s10-4.476562 10-10v-11.71875c11.640625-4.128906 20-15.246094 20-28.28125 0-16.542969-13.457031-30-30-30-5.515625 0-10-4.484375-10-10s4.484375-10 10-10c3.542969 0 7.28125 1.808594 10.816406 5.226562 3.96875 3.839844 10.296875 3.738282 14.140625-.230468 3.839844-3.96875 3.734375-10.300782-.234375-14.140625-5.074218-4.914063-10.152344-7.691407-14.722656-9.207031v-11.648438c0-5.523438-4.476562-10-10-10s-10 4.476562-10 10v11.71875c-11.640625 4.128906-20 15.246094-20 28.28125 0 16.542969 13.457031 30 30 30 5.515625 0 10 4.484375 10 10s-4.484375 10-10 10zm0 0"/>
  <path d="m276 146h60c5.523438 0 10-4.476562 10-10s-4.476562-10-10-10h-60c-5.523438 0-10 4.476562-10 10s4.476562 10 10 10zm0 0"/>
  <path d="m276 206h60c5.523438 0 10-4.476562 10-10s-4.476562-10-10-10h-60c-5.523438 0-10 4.476562-10 10s4.476562 10 10 10zm0 0"/>
  <path d="m276 266h60c5.523438 0 10-4.476562 10-10s-4.476562-10-10-10h-60c-5.523438 0-10 4.476562-10 10s4.476562 10 10 10zm0 0"/>
</svg>
