<svg
  id="Capa_1"
  enable-background="new 0 0 512 512"
  height="512"
  viewBox="0 0 512 512"
  width="512"
  xmlns="http://www.w3.org/2000/svg"
>
  <g>
    <path d="m512 247.796c0-27.982-19.24-51.561-45.203-58.235v-158.795h-117.975v-30.766h-189.24v91.532h79.62v88.51l-67.874 67.753 67.874 67.753v104.919h-79.62v30.767h-84.379v-145.204c25.963-6.674 45.204-30.252 45.204-58.234 0-33.152-27.008-60.124-60.204-60.124s-60.203 26.972-60.203 60.124c0 27.982 19.24 51.561 45.203 58.234v175.204h114.379v30.766h189.24v-30.766h117.975v-175.204c25.963-6.674 45.203-30.252 45.203-58.234zm-482 0c0-16.61 13.549-30.124 30.203-30.124s30.204 13.514 30.204 30.124-13.55 30.123-30.204 30.123-30.203-13.513-30.203-30.123zm159.582-217.796h129.24v31.532h-129.24zm64.62 177.458 40.409 40.338-40.409 40.338-40.409-40.338zm64.62 274.542h-129.24v-31.532h129.24zm30-30.766v-30.767h-79.62v-104.918l67.874-67.753-67.874-67.753v-88.51h79.62v-30.767h87.975v128.795c-25.963 6.674-45.204 30.253-45.204 58.235s19.241 51.561 45.204 58.234v145.204zm102.975-173.315c-16.654 0-30.204-13.513-30.204-30.123s13.55-30.124 30.204-30.124 30.203 13.514 30.203 30.124-13.549 30.123-30.203 30.123z"/>
  </g>
</svg>
