<svg
  id="Capa_1"
  enable-background="new 0 0 512 512"
  height="512"
  viewBox="0 0 512 512"
  width="512"
  xmlns="http://www.w3.org/2000/svg"
>
  <g>
    <path d="m114.645 60h163.905v-30h-193.905v165h30z"/>
    <path d="m409.681 451.924h-165v30h195v-166h-30z"/>
    <path d="m436.986 125.442c15.898-12.999 26.048-32.662 26.048-54.629.001-39.046-32.067-70.813-71.483-70.813s-71.483 31.767-71.483 70.813c0 21.967 10.15 41.631 26.048 54.629-21.89 14.686-36.326 39.661-36.326 67.944v92.402h163.521v-92.402c.001-28.283-14.435-53.258-36.325-67.944zm-86.918-54.629c0-22.504 18.609-40.813 41.483-40.813s41.483 18.309 41.483 40.813-18.609 40.813-41.483 40.813-41.483-18.31-41.483-40.813zm93.244 184.975h-103.521v-62.402c0-28.541 23.22-51.761 51.761-51.761s51.761 23.22 51.761 51.761v62.402z"/>
    <path d="m376.551 183.706h30v30h-30z"/>
    <path d="m165.883 351.654c15.898-12.999 26.048-32.662 26.048-54.629 0-39.046-32.066-70.813-71.482-70.813s-71.483 31.767-71.483 70.813c0 21.967 10.15 41.631 26.048 54.629-21.89 14.686-36.326 39.661-36.326 67.944v92.402h163.521v-92.402c-.001-28.283-14.436-53.258-36.326-67.944zm-86.918-54.63c0-22.504 18.609-40.813 41.483-40.813 22.873 0 41.482 18.309 41.482 40.813s-18.609 40.813-41.482 40.813-41.483-18.309-41.483-40.813zm93.243 184.976h-103.52v-62.402c0-28.541 23.22-51.761 51.761-51.761 28.54 0 51.76 23.22 51.76 51.761v62.402z"/>
    <path d="m105.449 409.919h30v30h-30z"/>
  </g>
</svg>
