<svg
  height="512pt"
  viewBox="0 0 512 512"
  width="512pt"
  xmlns="http://www.w3.org/2000/svg"
>
  <path d="m136.441406 265.988281c5.320313-.226562 9.558594-4.617187 9.558594-9.988281 0-5.378906-4.25-9.769531-9.578125-9.988281-.140625-.011719-.28125-.011719-.421875-.011719-5.519531 0-10 4.480469-10 10s4.480469 10 10 10c.148438 0 .300781 0 .441406-.011719zm0 0"/>
  <path d="m256 284.109375c-4.273438 0-8.882812-2.6875-12.984375-7.5625-3.554687-4.230469-9.863281-4.773437-14.089844-1.222656-4.226562 3.554687-4.773437 9.863281-1.21875 14.089843 5.34375 6.359376 11.632813 10.792969 18.292969 13.027344v11.667969c0 5.523437 4.476562 10 10 10s10-4.476563 10-10v-11.71875c11.640625-4.128906 20-15.242187 20-28.28125 0-16.539063-13.457031-30-30-30-5.515625 0-10-4.484375-10-10 0-5.511719 4.484375-10 10-10 3.542969 0 7.28125 1.808594 10.816406 5.230469 3.96875 3.839844 10.296875 3.734375 14.140625-.234375 3.839844-3.96875 3.734375-10.300781-.234375-14.140625-5.074218-4.910156-10.152344-7.6875-14.722656-9.203125v-11.652344c0-5.519531-4.476562-10-10-10s-10 4.480469-10 10v11.71875c-11.640625 4.128906-20 15.246094-20 28.28125 0 16.542969 13.457031 30 30 30 5.515625 0 10 4.488281 10 10 0 5.515625-4.484375 10-10 10zm0 0"/>
  <path d="m138.9375 225.953125c5.238281 1.738281 10.898438-1.105469 12.636719-6.347656 15.285156-46.144531 62.847656-76.992188 109.90625-75.460938.035156 0 .070312.003907.105469.003907 58.570312 1.328124 104.453124 49.628906 104.453124 109.960937 0 60.355469-49.519531 110-110 110-36.21875 0-70.136718-17.898437-90.726562-47.882813-.074219-.109374-.152344-.21875-.234375-.328124l.0625.085937c-5.058594-7.714844-8.867187-14.402344-12.421875-24.097656-1.898438-5.183594-7.644531-7.851563-12.828125-5.945313-5.1875 1.898438-7.851563 7.644532-5.949219 12.828125 18.300782 49.941407 66.421875 85.339844 122.101563 85.339844 71.53125 0 130-58.144531 130-130 0-71.277344-54.441407-128.351563-123.953125-129.957031-55.265625-1.8125-111.261719 34.101562-129.5 89.164062-1.738282 5.242188 1.101562 10.898438 6.347656 12.636719zm0 0"/>
  <path
    d="m256 0c-138.011719 0-256 117.8125-256 256 0 138.210938 118.019531 256 256 256 138.019531 0 256-117.804688 256-256 0-138.011719-117.8125-256-256-256zm173 256c0 93.257812-78.628906 173-173 173-93.257812 0-173-78.628906-173-173 0-93.773438 79.226562-173 173-173s173 79.226562 173 173zm-409 0c0-124.574219 102.496094-230.3125 226-235.761719v43.035157c-100.1875 5.410156-183 91.460937-183 192.726562 0 47.421875 17.796875 92.695312 50.3125 128.546875l-29.867188 29.863281c-40.425781-43.878906-63.445312-101.058594-63.445312-158.410156zm236 236c-57.351562 0-114.53125-23.019531-158.410156-63.445312l29.863281-29.867188c35.851563 32.515625 81.125 50.3125 128.546875 50.3125s92.695312-17.796875 128.546875-50.3125l29.863281 29.867188c-43.878906 40.425781-101.058594 63.445312-158.410156 63.445312zm172.554688-77.589844-29.867188-29.863281c30.222656-33.324219 47.722656-74.796875 50.042969-118.558594h43.023437c-2.5 53.957031-25.125 107.097657-63.199218 148.421875zm20.171874-168.410156c-5.230468-96.871094-85.855468-177.496094-182.726562-182.726562v-43.035157c120.1875 5.304688 220.457031 105.574219 225.761719 225.761719zm0 0"
  />
</svg>
