<svg
  height="512pt"
  viewBox="0 0 512.00038 512"
  width="512pt"
  xmlns="http://www.w3.org/2000/svg"
>
  <path d="m256 140c-5.519531 0-10 4.480469-10 10s4.480469 10 10 10 10-4.480469 10-10-4.480469-10-10-10zm0 0"/>
  <path
    d="m456 240c5.523438 0 10-4.480469 10-10v-30h16c5.523438 0 10-4.480469 10-10v-30h10c4.539062 0 8.503906-3.058594 9.667969-7.441406 1.160156-4.386719-.777344-9.007813-4.722657-11.25l-246-140c-3.066406-1.746094-6.824218-1.746094-9.890624 0l-246 140c-3.941407 2.242187-5.882813 6.863281-4.722657 11.25 1.164063 4.386718 5.132813 7.441406 9.667969 7.441406h10v30c0 5.519531 4.476562 10 10 10h16v30c0 5.519531 4.476562 10 10 10h10v151.996094h-10c-5.523438 0-10 4.480468-10 10v30h-16c-16.542969 0-30 13.460937-30 30v40c0 5.523437 4.476562 10 10 10h492c5.523438 0 10-4.476563 10-10v-40c0-16.539063-13.460938-30-30-30h-16v-30c0-5.519532-4.476562-10-10-10h-10v-151.996094zm-416-60v-20h176c5.523438 0 10-4.480469 10-10 0-5.523438-4.476562-10-10-10h-168.210938l208.210938-118.496094 208.210938 118.496094h-168.210938c-5.523438 0-10 4.476562-10 10 0 5.519531 4.476562 10 10 10h176v20zm406 231.996094v20h-80v-20zm-60-20v-151.996094h40v151.996094zm-20 0h-10c-5.523438 0-10 4.480468-10 10v30h-30v-30c0-5.519532-4.476562-10-10-10h-10v-151.996094h10c5.523438 0 10-4.480469 10-10v-30h30v30c0 5.519531 4.476562 10 10 10h10zm-210 0h-10v-151.996094h10c5.523438 0 10-4.480469 10-10v-30h30v30c0 5.519531 4.476562 10 10 10h10v151.996094h-10c-5.523438 0-10 4.480468-10 10v30h-30v-30c0-5.519532-4.476562-10-10-10zm-90-171.996094v-20h80v20zm60 20v151.996094h-40v-151.996094zm90 171.996094h80v20h-80zm20-20v-151.996094h40v151.996094zm-20-171.996094v-20h80v20zm-150 191.996094h80v20h-80zm416 40c5.515625 0 10 4.488281 10 10v30h-472v-30c0-5.511719 4.488281-10 10-10zm-116-231.996094v-20h80v20zm0 0"
  />
  <path d="m256 60c-16.542969 0-30 13.457031-30 30 0 16.539062 13.457031 30 30 30s30-13.460938 30-30c0-16.542969-13.457031-30-30-30zm0 40c-5.511719 0-10-4.488281-10-10 0-5.515625 4.488281-10 10-10 5.515625 0 10 4.484375 10 10 0 5.511719-4.484375 10-10 10zm0 0"/>
</svg>
