<svg
  height="512pt"
  viewBox="0 0 512 512"
  width="512pt"
  xmlns="http://www.w3.org/2000/svg"
>
  <path d="m316 166c5.519531 0 10-4.480469 10-10s-4.480469-10-10-10-10 4.480469-10 10 4.480469 10 10 10zm0 0"/>
  <path
    d="m116.140625 232.347656c2.066406 46.15625 26.25 70.824219 42.84375 102.5625 12.566406 21.242188 21.847656 60.460938 23.214844 67.617188.046875.3125.109375.621094.1875.929687.015625.066407.035156.136719.050781.203125.03125.117188.054688.230469.089844.347656 2.101562 7.59375 7.039062 13.816407 13.472656 17.683594v60.308594c0 16.542969 13.460938 30 30 30h60c16.542969 0 30-13.457031 30-30 0-21.679688 0-39.507812 0-60.300781 6.546875-3.929688 11.550781-10.292969 13.601562-18.0625 1.320313-5.011719 2.507813-9.628907 3.613282-13.929688 10.351562-40.285156 12.292968-42.734375 30.167968-72.074219 19.640626-32.230468 32.617188-53.523437 32.617188-91.632812 0-78.230469-64.066406-141.105469-141.980469-139.988281-77.648437 1.078125-141.335937 68.914062-137.878906 146.335937zm179.859375 249.652344c0 5.515625-4.484375 10-10 10h-60c-5.515625 0-10-4.484375-10-10v-13h80zm0-33h-80v-23h80zm-41.703125-342.992188c66.476563-.949218 121.703125 52.289063 121.703125 119.992188 0 32.496094-11.179688 50.839844-29.695312 81.226562-18.800782 30.847657-21.476563 34.757813-32.460938 77.503907-1.097656 4.261719-2.273438 8.84375-3.582031 13.808593-1.160157 4.394532-5.140625 7.460938-9.679688 7.460938h-89.152343c-4.523438 0-8.496094-3.054688-9.652344-7.425781-.046875-.183594-.101563-.363281-.164063-.546875-2.222656-11.386719-11.804687-50.292969-25.414062-73.296875-17.808594-33.574219-38.300781-53.632813-40.078125-93.277344-2.960938-66.285156 51.9375-124.523437 118.175781-125.445313zm0 0"
  />
  <path d="m336 226c0 10.1875-1.410156 17.777344-4.863281 26.207031-2.09375 5.113281.351562 10.953125 5.460937 13.046875 5.113282 2.09375 10.953125-.351562 13.046875-5.460937 4.453125-10.875 6.355469-20.980469 6.355469-33.792969 0-14.230469-2.902344-27.972656-8.621094-40.835938-2.246094-5.046874-8.15625-7.316406-13.203125-5.070312s-7.316406 8.15625-5.070312 13.203125c4.574219 10.285156 6.894531 21.289063 6.894531 32.703125zm0 0"/>
  <path d="m256 266c-4.273438 0-8.886719-2.6875-12.984375-7.5625-3.554687-4.230469-9.863281-4.777344-14.089844-1.222656-4.230469 3.554687-4.773437 9.863281-1.21875 14.089844 5.34375 6.359374 11.632813 10.792968 18.292969 13.023437v11.671875c0 5.523438 4.476562 10 10 10s10-4.476562 10-10v-11.71875c11.640625-4.128906 20-15.246094 20-28.28125 0-16.542969-13.457031-30-30-30-5.515625 0-10-4.484375-10-10s4.484375-10 10-10c3.542969 0 7.28125 1.808594 10.816406 5.226562 3.96875 3.839844 10.300782 3.738282 14.140625-.230468 3.839844-3.972656 3.734375-10.300782-.234375-14.140625-5.074218-4.914063-10.152344-7.691407-14.722656-9.207031v-11.648438c0-5.523438-4.476562-10-10-10s-10 4.476562-10 10v11.71875c-11.640625 4.128906-20 15.246094-20 28.28125 0 16.542969 13.457031 30 30 30 5.511719 0 10 4.484375 10 10s-4.484375 10-10 10zm0 0"/>
  <path d="m266 56v-46c0-5.523438-4.476562-10-10-10s-10 4.476562-10 10v46c0 5.523438 4.476562 10 10 10s10-4.476562 10-10zm0 0"/>
  <path d="m502 246h-46c-5.523438 0-10 4.476562-10 10s4.476562 10 10 10h46c5.523438 0 10-4.476562 10-10s-4.476562-10-10-10zm0 0"/>
  <path d="m56 246h-46c-5.523438 0-10 4.476562-10 10s4.476562 10 10 10h46c5.523438 0 10-4.476562 10-10s-4.476562-10-10-10zm0 0"/>
  <path d="m87.359375 73.21875c-3.902344-3.902344-10.234375-3.902344-14.140625 0-3.90625 3.90625-3.90625 10.238281 0 14.144531l34.289062 34.289063c3.90625 3.90625 10.238282 3.90625 14.144532 0 3.902344-3.90625 3.902344-10.238282 0-14.144532zm0 0"/>
  <path d="m404.492188 121.652344 34.289062-34.292969c3.90625-3.902344 3.90625-10.234375 0-14.140625s-10.238281-3.90625-14.144531 0l-34.289063 34.289062c-3.90625 3.90625-3.90625 10.238282 0 14.144532s10.238282 3.902344 14.144532 0zm0 0"/>
</svg>
