<svg
  id="Capa_1"
  enable-background="new 0 0 512 512"
  height="512"
  viewBox="0 0 512 512"
  width="512"
  xmlns="http://www.w3.org/2000/svg"
>
  <g>
    <path
      d="m512 67.592v-30h-37.506v-37.592h-30v46.357l-24.765 24.643c-1.531-1.621-3.088-3.224-4.671-4.807-42.699-42.685-99.469-66.193-159.852-66.193s-117.153 23.508-159.851 66.192c-42.699 42.686-66.215 99.44-66.215 159.808 0 49.061 15.532 95.735 44.27 134.411l-30.755 121.589h-42.655v30h512v-30h-42.421l-29.317-126.091c26.651-37.771 41.01-82.737 41.01-129.909 0-47.955-14.839-93.628-42.345-131.781l26.759-26.627zm-73.221 414.408h-365.179l23.816-94.158c42.455 41.397 98.373 64.158 157.79 64.158 60.383 0 117.153-23.508 159.851-66.192.368-.368.734-.736 1.099-1.106zm12.493-256c0 108.075-87.955 196-196.066 196s-196.066-87.925-196.066-196 87.955-196 196.066-196c56.434 0 107.376 23.959 143.182 62.235l-32.887 32.724c-27.38-29.846-66.689-48.586-110.295-48.586-82.527 0-149.668 67.122-149.668 149.626s67.141 149.626 149.668 149.626 149.668-67.121 149.668-149.625c0-28.042-7.757-54.308-21.237-76.764l33.621-33.455c21.457 31.425 34.014 69.384 34.014 110.219zm-105.476-39.11 15.767-15.689c8.504 16.427 13.311 35.063 13.311 54.8 0 65.962-53.683 119.626-119.668 119.626s-119.668-53.665-119.668-119.627 53.683-119.626 119.668-119.626c35.308 0 67.094 15.365 89.017 39.758l-19.589 19.492z"
    />
    <path d="m255.206 179.934c10.748 0 19.827 7.113 19.827 15.533h30c0-20.333-14.66-37.594-34.827-43.425v-14.421h-30v14.421c-20.168 5.83-34.828 23.092-34.828 43.425 0 25.107 22.353 45.533 49.828 45.533 10.748 0 19.827 7.113 19.827 15.533s-9.08 15.533-19.827 15.533-19.828-7.113-19.828-15.533h-30c0 20.333 14.66 37.595 34.828 43.425v14.421h30v-14.421c20.167-5.83 34.827-23.092 34.827-43.425 0-25.107-22.353-45.533-49.827-45.533-10.748 0-19.828-7.113-19.828-15.533s9.08-15.533 19.828-15.533z"/>
  </g>
</svg>
