<svg
  height="512pt"
  viewBox="0 -16 512 512"
  width="512pt"
  xmlns="http://www.w3.org/2000/svg"
>
  <path d="m70 320c-5.519531 0-10 4.480469-10 10s4.480469 10 10 10 10-4.480469 10-10-4.480469-10-10-10zm0 0"/>
  <path d="m502 120h-30v-30c0-16.542969-13.457031-30-30-30h-10v-30c0-16.574219-13.425781-30-30-30-16.542969 0-30 13.457031-30 30v90h-362c-5.523438 0-10 4.476562-10 10v260c0 5.523438 4.476562 10 10 10h362v10c0 13.035156 8.359375 24.152344 20 28.28125v31.71875c0 5.523438 4.476562 10 10 10s10-4.476562 10-10v-31.71875c11.640625-4.128906 20-15.246094 20-28.28125v-10h70c5.523438 0 10-4.476562 10-10v-260c0-5.523438-4.476562-10-10-10zm-130 260h-352v-240h352zm40 30c0 5.515625-4.484375 10-10 10s-10-4.484375-10-10v-290h20zm0-310h-20v-20h20zm0-40h-20v-30c0-5.515625 4.484375-10 10-10 5.519531 0 10 4.480469 10 10zm20 20h10c5.515625 0 10 4.484375 10 10v30h-20zm60 300h-60v-240h20v50c0 5.523438 4.476562 10 10 10s10-4.476562 10-10v-50h20zm0 0"/>
  <path d="m90 260c-4.273438 0-8.886719-2.6875-12.984375-7.5625-3.554687-4.230469-9.863281-4.777344-14.089844-1.222656-4.230469 3.554687-4.773437 9.863281-1.21875 14.089844 5.34375 6.359374 11.632813 10.792968 18.292969 13.023437v11.671875c0 5.523438 4.476562 10 10 10s10-4.476562 10-10v-11.71875c11.640625-4.128906 20-15.246094 20-28.28125 0-16.542969-13.457031-30-30-30-5.515625 0-10-4.484375-10-10s4.484375-10 10-10c3.542969 0 7.28125 1.808594 10.816406 5.226562 3.96875 3.839844 10.300782 3.734376 14.140625-.230468 3.839844-3.972656 3.734375-10.300782-.234375-14.140625-5.074218-4.914063-10.152344-7.691407-14.722656-9.207031v-11.648438c0-5.523438-4.476562-10-10-10s-10 4.476562-10 10v11.71875c-11.640625 4.128906-20 15.246094-20 28.28125 0 16.542969 13.457031 30 30 30 5.511719 0 10 4.484375 10 10s-4.484375 10-10 10zm0 0"/>
  <path d="m170 280h172c5.523438 0 10-4.476562 10-10s-4.476562-10-10-10h-172c-5.523438 0-10 4.476562-10 10s4.476562 10 10 10zm0 0"/>
  <path d="m170 220h172c5.523438 0 10-4.476562 10-10s-4.476562-10-10-10h-172c-5.523438 0-10 4.476562-10 10s4.476562 10 10 10zm0 0"/>
  <path d="m342 320h-232c-5.523438 0-10 4.476562-10 10s4.476562 10 10 10h232c5.523438 0 10-4.476562 10-10s-4.476562-10-10-10zm0 0"/>
</svg>
