<svg
  id="Capa_1"
  enable-background="new 0 0 512 512"
  height="512"
  viewBox="0 0 512 512"
  width="512"
  xmlns="http://www.w3.org/2000/svg"
>
  <g>
    <path d="m168.52 174.944c-92.922 0-168.52 75.601-168.52 168.528s75.598 168.528 168.52 168.528 168.519-75.602 168.519-168.528-75.598-168.528-168.519-168.528zm0 307.056c-76.38 0-138.52-62.144-138.52-138.528s62.14-138.527 138.52-138.527 138.519 62.144 138.519 138.527c-.001 76.384-62.14 138.528-138.519 138.528z"/>
    <path d="m217.047 332.583c4.176-6.899 6.582-14.984 6.582-23.621v-.173c0-23.604-17.969-43.09-40.945-45.499v-14.666h-30v14.415h-37.811v30h13.076v100.865h-13.076v30h37.811v14.416h30v-14.416h8.732c25.227 0 45.75-20.523 45.75-45.75v-7.693c0-15.737-7.987-29.643-20.119-37.878zm-59.098-39.544h19.93c8.685 0 15.75 7.065 15.75 15.75v.173c0 8.685-7.065 15.75-15.75 15.75h-19.93zm49.217 85.115c0 8.685-7.065 15.75-15.75 15.75h-33.467v-39.192h33.467c8.685 0 15.75 7.065 15.75 15.749z"/>
    <path d="m400.956 222.1c61.23 0 111.044-49.817 111.044-111.05s-49.814-111.05-111.044-111.05-111.045 49.816-111.045 111.05 49.815 111.05 111.045 111.05zm0-192.1c44.688 0 81.044 36.358 81.044 81.05s-36.356 81.05-81.044 81.05-81.045-36.358-81.045-81.05 36.357-81.05 81.045-81.05z"/>
    <path d="m60.05 59.989h205.822v-30h-235.822v144.96h30z"/>
    <path d="m451.286 452.01h-113.859v30h143.859v-234.929h-30z"/>
    <path d="m385.956 96.05h30v30h-30z"/>
  </g>
</svg>
