<svg
  height="512pt"
  viewBox="-111 0 512 512"
  width="512pt"
  xmlns="http://www.w3.org/2000/svg"
>
  <path d="m100 406c-5.519531 0-10 4.480469-10 10s4.480469 10 10 10 10-4.480469 10-10-4.480469-10-10-10zm0 0"/>
  <path
    d="m170 512c5.523438 0 9.898438-4.476562 9.898438-10 0-.558594 0-52.917969.035156-73.054688 17.671875-24.402343 27.917968-52.839843 29.757812-82.945312h70.308594c5.523438 0 10-4.476562 10-10v-326c0-5.523438-4.476562-10-10-10h-200c-5.523438 0-10 4.476562-10 10v181.855469l-49.5 49.503906c-13.21875 13.21875-20.5 30.792969-20.5 49.492187v211.148438c0 5.523438 4.476562 10 10 10zm-80-492h180v306h-120.453125c-.410156-4.492188-1.082031-8.957031-2.039063-13.367188l6.636719-6.632812h65.855469c5.523438 0 10-4.476562 10-10 0-5.515625 4.484375-10 10-10 5.523438 0 10-4.476562 10-10v-206c0-5.523438-4.476562-10-10-10-5.515625 0-10-4.484375-10-10 0-5.523438-4.476562-10-10-10h-80c-5.523438 0-10 4.476562-10 10 0 5.515625-4.484375 10-10 10-5.523438 0-10 4.476562-10 10v171.855469l-20 20c0-9.644531 0-225.488281 0-241.855469zm87.070312 208.929688c-12.75-12.75-32.328124-14.601563-47.070312-5.566407v-145.078125c8.511719-3.015625 15.269531-9.773437 18.285156-18.285156h63.429688c3.015625 8.511719 9.773437 15.269531 18.285156 18.285156v189.429688c-8.511719 3.015625-15.269531 9.773437-18.285156 18.285156h-37.570313l3.074219-3.078125c14.765625-14.925781 14.699219-39.148437-.148438-53.992187zm-157.070312 61.921874c0-13.355468 5.199219-25.910156 14.640625-35.351562l35.359375-35.355469v61.714844l-12.070312 12.070313c-3.90625 3.90625-3.90625 10.234374 0 14.140624s10.234374 3.90625 14.140624 0l65-65c7.128907-7.128906 18.730469-7.128906 25.859376 0 7.089843 7.089844 7.121093 18.660157.097656 25.757813-10.605469 10.609375-22.960938 22.960937-33.636719 33.640625-2.539063 2.539062-3.523437 6.246094-2.578125 9.710938 2.121094 7.757812 3.199219 15.769531 3.199219 23.820312 0 15.847656-4.1875 31.441406-12.105469 45.097656-2.769531 4.773438-1.140625 10.894532 3.636719 13.664063 4.765625 2.761719 10.890625 1.15625 13.667969-3.632813 8.007812-13.816406 12.882812-29.257812 14.332031-45.136718h40.089843c-1.878906 26.832031-11.296874 52.117187-27.566406 73.613281-1.308594 1.730469-2.019531 3.839843-2.027344 6.011719-.027343 12.640624-.035156 48.710937-.035156 66.382812h-140.003906zm0 0"
  />
  <path d="m210 173c0-16.542969-13.457031-30-30-30s-30 13.457031-30 30 13.457031 30 30 30 30-13.457031 30-30zm-30 10c-5.515625 0-10-4.484375-10-10s4.484375-10 10-10 10 4.484375 10 10-4.484375 10-10 10zm0 0"/>
</svg>
