<svg
  height="512pt"
  viewBox="-26 0 512 512"
  width="512pt"
  xmlns="http://www.w3.org/2000/svg"
>
  <path d="m90 229c5.519531 0 10-4.480469 10-10s-4.480469-10-10-10-10 4.480469-10 10 4.480469 10 10 10zm0 0"/>
  <path d="m70 422h20c5.523438 0 10-4.476562 10-10s-4.476562-10-10-10h-20c-5.523438 0-10 4.476562-10 10s4.476562 10 10 10zm0 0"/>
  <path d="m130 422h20c5.523438 0 10-4.476562 10-10s-4.476562-10-10-10h-20c-5.523438 0-10 4.476562-10 10s4.476562 10 10 10zm0 0"/>
  <path d="m190 422h20c5.523438 0 10-4.476562 10-10s-4.476562-10-10-10h-20c-5.523438 0-10 4.476562-10 10s4.476562 10 10 10zm0 0"/>
  <path d="m70 372h20c5.523438 0 10-4.476562 10-10s-4.476562-10-10-10h-20c-5.523438 0-10 4.476562-10 10s4.476562 10 10 10zm0 0"/>
  <path d="m130 372h20c5.523438 0 10-4.476562 10-10s-4.476562-10-10-10h-20c-5.523438 0-10 4.476562-10 10s4.476562 10 10 10zm0 0"/>
  <path d="m190 372h20c5.523438 0 10-4.476562 10-10s-4.476562-10-10-10h-20c-5.523438 0-10 4.476562-10 10s4.476562 10 10 10zm0 0"/>
  <path d="m70 472h20c5.523438 0 10-4.476562 10-10s-4.476562-10-10-10h-20c-5.523438 0-10 4.476562-10 10s4.476562 10 10 10zm0 0"/>
  <path d="m130 472h20c5.523438 0 10-4.476562 10-10s-4.476562-10-10-10h-20c-5.523438 0-10 4.476562-10 10s4.476562 10 10 10zm0 0"/>
  <path d="m190 472h20c5.523438 0 10-4.476562 10-10s-4.476562-10-10-10h-20c-5.523438 0-10 4.476562-10 10s4.476562 10 10 10zm0 0"/>
  <path
    d="m210 0h-140c-5.523438 0-10 4.476562-10 10v56h-30c-16.542969 0-30 13.457031-30 30v197.71875c0 7.894531 3.203125 15.628906 8.789062 21.214844l11.210938 11.210937v155.855469c0 16.542969 13.457031 30 30 30h180c16.542969 0 30-13.457031 30-30v-155.855469l11.210938-11.210937c.921874-.921875 1.769531-1.90625 2.554687-2.933594h156.234375c16.542969 0 30-13.457031 30-30 0-30.164062 0-91.15625 0-146 0-16.542969-13.457031-30-30-30h-150v-10c0-16.542969-13.457031-30-30-30h-30v-56c0-5.523438-4.476562-10-10-10zm70 126h150c5.515625 0 10 4.484375 10 10v10h-160zm0 40h160v20h-160zm0 40h160v76c0 5.515625-4.484375 10-10 10h-150zm-200-186h120v86h-50v-56c0-5.523438-4.476562-10-10-10s-10 4.476562-10 10v56h-50zm160 462c0 5.515625-4.484375 10-10 10h-180c-5.515625 0-10-4.484375-10-10v-150h200zm10-396c5.515625 0 10 4.484375 10 10v197.71875c0 2.632812-1.066406 5.207031-2.933594 7.070312l-11.210937 11.210938h-211.710938l-11.210937-11.210938c-1.867188-1.863281-2.933594-4.4375-2.933594-7.070312v-197.71875c0-5.515625 4.484375-10 10-10h30v20h-10c-5.523438 0-10 4.476562-10 10s4.476562 10 10 10h180c5.523438 0 10-4.476562 10-10s-4.476562-10-10-10h-10v-20zm0 0"
  />
  <path d="m230 146h-180c-5.523438 0-10 4.476562-10 10v126c0 5.523438 4.476562 10 10 10h180c5.523438 0 10-4.476562 10-10v-126c0-5.523438-4.476562-10-10-10zm-10 126h-160v-106h160zm0 0"/>
  <path d="m130 229h60c5.523438 0 10-4.476562 10-10s-4.476562-10-10-10h-60c-5.523438 0-10 4.476562-10 10s4.476562 10 10 10zm0 0"/>
  <path d="m410 252h-40c-5.523438 0-10 4.476562-10 10s4.476562 10 10 10h40c5.523438 0 10-4.476562 10-10s-4.476562-10-10-10zm0 0"/>
</svg>
