<svg
  id="Capa_1"
  enable-background="new 0 0 512 512"
  height="512"
  viewBox="0 0 512 512"
  width="512"
  xmlns="http://www.w3.org/2000/svg"
>
  <g>
    <path d="m30.397 273.083h30v-175.792h92.898v-30h-122.898z"/>
    <path d="m451.505 273.083h30v-205.792h-125.897v30h95.897z"/>
    <path d="m169.076 385.537h174.418v30h-174.418z"/>
    <path d="m336.041 193.379c0-28.28-14.434-53.253-36.322-67.938 15.897-12.999 26.046-32.662 26.046-54.629 0-39.045-32.066-70.812-71.479-70.812s-71.479 31.767-71.479 70.813c0 21.967 10.149 41.63 26.046 54.629-21.888 14.685-36.322 39.657-36.322 67.938v92.408h163.51zm-81.755-163.379c22.871 0 41.479 18.309 41.479 40.813s-18.607 40.813-41.479 40.813-41.479-18.309-41.479-40.813 18.608-40.813 41.479-40.813zm51.755 225.787h-103.51v-62.408c0-28.537 23.217-51.754 51.755-51.754s51.755 23.217 51.755 51.754z"/>
    <path d="m239.287 183.706h29.998v30h-29.998z"/>
    <path d="m110.683 407.344c11.946-11.024 19.429-26.74 19.429-44.156 0-33.272-27.312-60.341-60.882-60.341-33.571 0-60.883 27.068-60.883 60.341 0 17.416 7.483 33.132 19.429 44.156-16.852 12.64-27.776 32.776-27.776 55.416v49.24h138.461v-49.24c0-22.64-10.924-42.777-27.778-55.416zm-41.453-74.496c17.028 0 30.882 13.61 30.882 30.341s-13.854 30.341-30.882 30.341c-17.029 0-30.883-13.61-30.883-30.341s13.854-30.341 30.883-30.341zm39.231 149.152h-78.461v-19.24c0-21.632 17.599-39.23 39.23-39.23s39.23 17.599 39.23 39.23v19.24z"/>
    <path d="m484.222 407.344c11.946-11.024 19.429-26.74 19.429-44.156 0-33.272-27.312-60.341-60.882-60.341-33.571 0-60.883 27.068-60.883 60.341 0 17.416 7.483 33.132 19.429 44.156-16.853 12.639-27.777 32.776-27.777 55.415v49.241h138.462v-49.24c0-22.64-10.924-42.777-27.778-55.416zm-41.452-74.496c17.028 0 30.882 13.61 30.882 30.341s-13.854 30.341-30.882 30.341c-17.029 0-30.883-13.61-30.883-30.341s13.853-30.341 30.883-30.341zm39.23 149.152h-78.461v-19.24c0-21.632 17.599-39.23 39.23-39.23s39.231 17.598 39.231 39.23z"/>
  </g>
</svg>
