<svg
  id="Capa_1"
  enable-background="new 0 0 512 512"
  height="512"
  viewBox="0 0 512 512"
  width="512"
  xmlns="http://www.w3.org/2000/svg"
>
  <g>
    <path d="m416.524 118v-21.213l-96.787-96.787h-284.213v452.446h88.047v59.554h352.906v-394zm-88-66.787 36.787 36.787h-36.787zm-263-21.213h233v88h88v304.446h-321zm380.952 452h-292.905v-29.554h262.953v-304.446h29.953v334z"/>
    <path d="m107.041 75h128.859v30h-128.859z"/>
    <path d="m107.041 135h74.859v30h-74.859z"/>
    <path d="m107.041 274.469h30v104.441h-30z"/>
    <path d="m177.041 234.469h30v144.441h-30z"/>
    <path d="m247.041 174.469h30v204.441h-30z"/>
    <path d="m317.041 194.469h30v184.441h-30z"/>
  </g>
</svg>
