<svg
  height="512pt"
  viewBox="-66 0 512 512"
  width="512pt"
  xmlns="http://www.w3.org/2000/svg"
>
  <path d="m60.460938 169.988281c5.308593-.238281 9.539062-4.628906 9.539062-9.988281s-4.230469-9.75-9.539062-9.988281c-.152344-.011719-.300782-.011719-.460938-.011719-5.519531 0-10 4.480469-10 10s4.480469 10 10 10c.160156 0 .308594 0 .460938-.011719zm0 0"/>
  <path d="m170 190c-4.273438 0-8.886719-2.6875-12.984375-7.5625-3.554687-4.230469-9.863281-4.777344-14.089844-1.222656-4.230469 3.554687-4.773437 9.863281-1.21875 14.089844 5.34375 6.359374 11.632813 10.792968 18.292969 13.023437v11.671875c0 5.523438 4.476562 10 10 10s10-4.476562 10-10v-11.71875c11.640625-4.128906 20-15.246094 20-28.28125 0-16.542969-13.457031-30-30-30-5.515625 0-10-4.484375-10-10s4.484375-10 10-10c3.542969 0 7.28125 1.808594 10.816406 5.226562 3.96875 3.839844 10.300782 3.738282 14.140625-.230468 3.839844-3.972656 3.734375-10.300782-.234375-14.140625-5.074218-4.914063-10.152344-7.691407-14.722656-9.207031v-11.648438c0-5.523438-4.476562-10-10-10s-10 4.476562-10 10v11.71875c-11.640625 4.128906-20 15.246094-20 28.28125 0 16.542969 13.457031 30 30 30 5.511719 0 10 4.484375 10 10s-4.484375 10-10 10zm0 0"/>
  <path
    d="m0 470c0 22.765625 18.316406 42 40 42h260c22.464844 0 40-20.296875 40-42 0-7.996094-2.269531-15.554688-6.140625-22h6.140625c22.464844 0 40-20.296875 40-42 0-22.765625-18.316406-42-40-42h-6.234375c4.011719-6.671875 6.234375-14.351562 6.234375-22 0-22.765625-18.316406-42-40-42h-52.617188c49.222657-27.316406 82.617188-79.828125 82.617188-140 0-88.226562-71.777344-160-160-160s-160 71.773438-160 160c0 60.171875 33.394531 112.683594 82.617188 140h-52.617188c-22.464844 0-40 20.296875-40 42 0 22.765625 18.316406 42 40 42h6.234375c-4.011719 6.671875-6.234375 14.351562-6.234375 22 0 7.996094 2.269531 15.554688 6.140625 22h-6.140625c-22.464844 0-40 20.296875-40 42zm340-86c10.46875 0 20 10.484375 20 22 0 11.074219-9.03125 22-20 22-12.378906 0-246.558594 0-260 0-10.46875 0-20-10.484375-20-22 0-11.074219 9.03125-22 20-22zm-310-224c0-77.195312 62.804688-140 140-140s140 62.804688 140 140-62.804688 140-140 140-140-62.804688-140-140zm10 204c-10.46875 0-20-10.484375-20-22 0-11.074219 9.03125-22 20-22h260c10.46875 0 20 10.484375 20 22 0 11.074219-9.03125 22-20 22-13.441406 0-247.628906 0-260 0zm260 84c10.46875 0 20 10.484375 20 22 0 11.074219-9.03125 22-20 22h-260c-10.46875 0-20-10.484375-20-22 0-11.074219 9.03125-22 20-22zm0 0"
  />
  <path d="m290 160c0-66.167969-53.832031-120-120-120-36.984375 0-72.289062 17.210938-94.429688 46.039062l.011719.011719c-4 4.585938-12.105469 16.859375-17.625 30.964844-2.011719 5.144531.523438 10.945313 5.667969 12.957031 5.140625 2.015625 10.945312-.523437 12.957031-5.667968 1.414063-3.613282 2.839844-6.804688 4.355469-9.757813 19.066406-36.222656 54.570312-54.546875 89.0625-54.546875 55.140625 0 100 44.859375 100 100s-44.859375 100-100 100c-40.5625 0-77.792969-24.386719-93.417969-64.304688-2.011719-5.144531-7.808593-7.675781-12.957031-5.667968-5.140625 2.011718-7.679688 7.8125-5.667969 12.957031 5.539063 14.152344 13.214844 25.796875 17.652344 30.949219l-.039063.027344c22.144532 28.828124 57.445313 46.039062 94.429688 46.039062 66.167969 0 120-53.832031 120-120zm0 0"/>
</svg>
