<svg
  height="511pt"
  viewBox="-15 0 511 511.9998"
  width="511pt"
  xmlns="http://www.w3.org/2000/svg"
>
  <path d="m360.5 130c-5.519531 0-10 4.480469-10 10s4.480469 10 10 10 10-4.480469 10-10-4.480469-10-10-10zm0 0"/>
  <path d="m240.5 200c-5.515625 0-10-4.484375-10-10s4.484375-10 10-10c3.542969 0 7.28125 1.808594 10.816406 5.226562 3.96875 3.839844 10.300782 3.734376 14.140625-.230468 3.839844-3.972656 3.734375-10.300782-.234375-14.140625-5.074218-4.914063-10.152344-7.691407-14.722656-9.207031v-11.648438c0-5.523438-4.476562-10-10-10s-10 4.476562-10 10v11.71875c-11.640625 4.128906-20 15.246094-20 28.28125 0 16.542969 13.457031 30 30 30 5.511719 0 10 4.484375 10 10s-4.488281 10-10 10c-4.273438 0-8.886719-2.6875-12.988281-7.5625-3.554688-4.230469-9.859375-4.777344-14.085938-1.222656-4.230469 3.554687-4.773437 9.863281-1.222656 14.089844 5.347656 6.359374 11.632813 10.792968 18.296875 13.023437v11.671875c0 5.523438 4.476562 10 10 10s10-4.476562 10-10v-11.71875c11.636719-4.128906 20-15.246094 20-28.28125 0-16.542969-13.457031-30-30-30zm0 0"/>
  <path
    d="m.5 60c0 4.058594 1.324219 8.253906 2.964844 10.941406.253906.453125 176.960937 242.222656 177.035156 242.324219v188.734375c0 3.601562 1.9375 6.925781 5.074219 8.703125 3.132812 1.773437 6.980469 1.726563 10.070312-.128906l100-60c3.011719-1.808594 4.855469-5.0625 4.855469-8.574219v-128.734375c104.976562-143.433594 182.390625-249.785156 177.375-242.921875 1.683594-3.21875 2.625-6.769531 2.625-10.34375 0-19.359375-24.609375-34.117188-75.238281-45.125-44.121094-9.59375-102.632813-14.875-164.761719-14.875s-120.640625 5.28125-164.761719 14.875c-50.628906 11.007812-75.238281 25.765625-75.238281 45.125zm280 376.339844-80 48v-164.339844h80zm4.921875-136.339844h-89.84375l-147.699219-202.121094c12.4375 3.925782 27.296875 7.449219 44.554688 10.542969 41.601562 7.46875 94.183594 11.578125 148.066406 11.578125s106.464844-4.109375 148.066406-11.574219c17.257813-3.097656 32.117188-6.621093 44.554688-10.542969zm-205.433594-265.582031c42.765625-9.296875 99.769531-14.417969 160.511719-14.417969s117.746094 5.121094 160.511719 14.417969c49.390625 10.738281 59.488281 22.910156 59.488281 25.582031 0 .1875-.0625.410156-.140625.613281l-2.15625 2.949219c-17.515625 17.730469-99.335937 36.4375-217.703125 36.4375-118.363281 0-200.179688-18.707031-217.699219-36.433594l-2.160156-2.953125c-.078125-.203125-.140625-.425781-.140625-.613281 0-2.671875 10.097656-14.84375 59.488281-25.582031zm0 0"
  />
  <path d="m345.972656 166.308594c-4.460937-3.261719-10.714844-2.289063-13.976562 2.171875l-26.039063 35.617187c-3.257812 4.460938-2.289062 10.714844 2.171875 13.976563 4.476563 3.273437 10.726563 2.269531 13.972656-2.171875l26.042969-35.621094c3.257813-4.457031 2.285157-10.714844-2.171875-13.972656zm0 0"/>
</svg>
