<svg
  id="Capa_1"
  enable-background="new 0 0 512 512"
  height="512"
  viewBox="0 0 512 512"
  width="512"
  xmlns="http://www.w3.org/2000/svg"
>
  <g>
    <path d="m512 208.79h-62.331v-105.79h-29.835v-60h-390v60h-29.834v366h449.669v-105.79h62.331zm-452.166-135.79h330v30h-330zm359.835 366h-389.669v-306h389.669v75.79h-62.331v154.42h62.331zm62.331-105.79h-94.661v-94.42h94.661z"/>
    <path d="m418.709 271h30v30h-30z"/>
    <path d="m224.834 234.565c12.661 0 22.962 8.172 22.962 18.217h30c0-21.846-16.041-40.344-37.962-46.248v-16.684h-30v16.684c-21.921 5.903-37.961 24.402-37.961 46.248 0 26.587 23.758 48.218 52.961 48.218 12.661 0 22.962 8.173 22.962 18.218s-10.301 18.217-22.962 18.217-22.961-8.172-22.961-18.217h-30c0 21.846 16.04 40.344 37.961 46.248v16.684h30v-16.684c21.921-5.903 37.962-24.402 37.962-46.248 0-26.587-23.759-48.218-52.962-48.218-12.661 0-22.961-8.173-22.961-18.218s10.3-18.217 22.961-18.217z"/>
  </g>
</svg>
