<svg
  height="512pt"
  viewBox="-17 0 511 512"
  width="512pt"
  xmlns="http://www.w3.org/2000/svg"
>
  <path d="m130.5 166c-5.519531 0-10 4.480469-10 10s4.480469 10 10 10 10-4.480469 10-10-4.480469-10-10-10zm0 0"/>
  <path d="m190.5 226c5.523438 0 10-4.476562 10-10v-80c0-5.523438-4.476562-10-10-10s-10 4.476562-10 10v80c0 5.523438 4.476562 10 10 10zm0 0"/>
  <path d="m230.5 226c5.523438 0 10-4.476562 10-10v-30h10c16.574219 0 30-13.425781 30-30 0-16.542969-13.457031-30-30-30h-20c-5.523438 0-10 4.476562-10 10v80c0 5.523438 4.476562 10 10 10zm10-80h10c5.515625 0 10 4.484375 10 10 0 5.519531-4.480469 10-10 10h-10zm0 0"/>
  <path d="m330.5 226c16.542969 0 30-13.457031 30-30v-40c0-16.574219-13.425781-30-30-30-16.542969 0-30 13.457031-30 30v40c0 16.542969 13.457031 30 30 30zm-10-70c0-5.515625 4.484375-10 10-10 5.519531 0 10 4.480469 10 10v40c0 5.515625-4.484375 10-10 10s-10-4.484375-10-10zm0 0"/>
  <path
    d="m110.5 0c-16.542969 0-30 13.457031-30 30v402h-15.578125c-12.941406 0-24.382813 8.246094-28.46875 20.519531l-13.160156 39.480469h-12.792969c-5.523438 0-10 4.476562-10 10s4.476562 10 10 10h220c5.523438 0 10-4.476562 10-10s-4.476562-10-10-10h-32.792969l-13.160156-39.480469c-4.085937-12.273437-15.527344-20.519531-28.46875-20.519531h-15.578125v-146h240.390625c9.144531 0 17.664063-4.085938 23.378906-11.214844 0 0 65.632813-80.015625 65.660157-80.046875 8.824218-11.035156 8.824218-26.441406 0-37.476562-.027344-.03125-.050782-.0625-.078126-.09375l-65.582031-79.953125c-5.714843-7.128906-14.234375-11.214844-23.378906-11.214844h-240.390625v-36c0-16.542969-13.457031-30-30-30zm45.578125 452c4.316406 0 8.132813 2.746094 9.496094 6.84375l11.050781 33.15625h-132.25l11.054688-33.160156c1.359374-4.09375 5.175781-6.839844 9.492187-6.839844zm224.8125-366c3.050781 0 5.890625 1.363281 7.792969 3.746094.027344.035156.054687.070312.085937.105468l65.570313 79.941407c2.902344 3.660156 2.902344 8.75 0 12.410156 0 0-65.628906 80.015625-65.65625 80.050781-1.902344 2.378906-4.742188 3.746094-7.792969 3.746094h-240.390625v-50c0-5.523438-4.476562-10-10-10s-10 4.476562-10 10v216h-20v-402c0-5.515625 4.484375-10 10-10 5.511719 0 10 4.484375 10 10v106c0 5.523438 4.476562 10 10 10s10-4.476562 10-10v-50zm0 0"
  />
</svg>
