<svg
  id="Capa_1"
  enable-background="new 0 0 512 512"
  height="512"
  viewBox="0 0 512 512"
  width="512"
  xmlns="http://www.w3.org/2000/svg"
>
  <g>
    <path d="m85.5 0v512h341v-512zm242.793 30-5 30h-134.586l-5-30zm68.207 452h-281v-452h37.793l10 60h185.414l10-60h37.793z"/>
    <path d="m198 422h116v30h-116z"/>
    <path d="m256 306.602c-12.661 0-22.961-8.173-22.961-18.218h-30c0 21.846 16.04 40.345 37.961 46.249v16.684h30v-16.684c21.921-5.903 37.962-24.403 37.962-46.249 0-26.587-23.759-48.217-52.962-48.217-12.661 0-22.961-8.173-22.961-18.218s10.3-18.218 22.961-18.218 22.962 8.173 22.962 18.218h30c0-21.846-16.041-40.345-37.962-46.249v-16.684h-30v16.684c-21.921 5.903-37.961 24.403-37.961 46.249 0 26.587 23.758 48.218 52.961 48.218 12.661 0 22.962 8.172 22.962 18.217s-10.301 18.218-22.962 18.218z"/>
  </g>
</svg>
