<svg
  height="512pt"
  viewBox="0 -26 512 512"
  width="512pt"
  xmlns="http://www.w3.org/2000/svg"
>
  <path d="m196 320c5.519531 0 10-4.480469 10-10s-4.480469-10-10-10-10 4.480469-10 10 4.480469 10 10 10zm0 0"/>
  <path d="m482 0h-452c-16.542969 0-30 13.457031-30 30v300c0 16.542969 13.457031 29.988281 30 29.988281h174.992188c-4.644532 22.796875-24.847657 40.011719-48.992188 40.011719-5.523438 0-10 4.476562-10 10v40c0 5.523438 4.476562 10 10 10h200c5.523438 0 10-4.476562 10-10v-40c0-5.523438-4.476562-10-10-10-24.144531 0-44.347656-17.203125-48.992188-40h174.992188c16.542969 0 30-13.457031 30-30v-300c0-16.542969-13.457031-30-30-30zm-136 420v20h-180v-20zm-38.921875-20h-102.15625c10.738281-10.511719 18.113281-24.433594 20.351563-40h61.453124c2.238282 15.566406 9.613282 29.488281 20.351563 40zm184.921875-70c0 5.515625-4.484375 10-10 10h-452c-5.515625 0-10-4.484375-10-10v-50h472zm0-70h-472v-230c0-5.515625 4.484375-10 10-10h452c5.515625 0 10 4.484375 10 10zm0 0"/>
  <path d="m236 320h60c5.523438 0 10-4.476562 10-10s-4.476562-10-10-10h-60c-5.523438 0-10 4.476562-10 10s4.476562 10 10 10zm0 0"/>
  <path d="m146 60c-44.113281 0-80 35.886719-80 80s35.886719 80 80 80 80-35.886719 80-80-35.886719-80-80-80zm0 140c-33.085938 0-60-26.914062-60-60 0-29.675781 21.660156-54.375 50-59.152344v59.152344c0 5.523438 4.476562 9.988281 10 9.988281h59.152344c-4.777344 28.339844-29.476563 50.011719-59.152344 50.011719zm10-70v-49.152344c25.085938 4.230469 44.921875 24.066406 49.152344 49.152344zm0 0"/>
  <path d="m436 80h-60c-5.523438 0-10 4.476562-10 10s4.476562 10 10 10h60c5.523438 0 10-4.476562 10-10s-4.476562-10-10-10zm0 0"/>
  <path d="m436 140h-60c-5.523438 0-10 4.476562-10 10s4.476562 10 10 10h60c5.523438 0 10-4.476562 10-10s-4.476562-10-10-10zm0 0"/>
  <path d="m436 200h-60c-5.523438 0-10 4.476562-10 10s4.476562 10 10 10h60c5.523438 0 10-4.476562 10-10s-4.476562-10-10-10zm0 0"/>
  <path d="m336 80h-60c-5.523438 0-10 4.476562-10 10s4.476562 10 10 10h60c5.523438 0 10-4.476562 10-10s-4.476562-10-10-10zm0 0"/>
  <path d="m336 140h-60c-5.523438 0-10 4.476562-10 10s4.476562 10 10 10h60c5.523438 0 10-4.476562 10-10s-4.476562-10-10-10zm0 0"/>
  <path d="m336 200h-60c-5.523438 0-10 4.476562-10 10s4.476562 10 10 10h60c5.523438 0 10-4.476562 10-10s-4.476562-10-10-10zm0 0"/>
</svg>
