<svg
  id="Capa_1"
  enable-background="new 0 0 512 512"
  height="512"
  viewBox="0 0 512 512"
  width="512"
  xmlns="http://www.w3.org/2000/svg"
>
  <g>
    <path
      d="m341.347 271.524c13.557-17.919 21.607-40.222 21.607-64.37v-114.781c0-50.935-41.438-92.373-92.373-92.373h-155.246v56.597c0 28.679 13.137 54.347 33.71 71.303v79.254c0 24.148 8.05 46.451 21.607 64.37-55.684 4.345-99.666 51.08-99.666 107.901v132.575h370.027v-132.574c.001-56.822-43.981-103.557-99.666-107.902zm-73.011 78.274h-26.231l-12.637-39.055c8.487 2.174 17.377 3.33 26.533 3.33 8.608 0 16.981-1.022 25.006-2.951zm-52.461 16.387-12.671 95.162c-23.129-67.994-31.336-132.838-33.914-159.535 3.226-.408 6.512-.618 9.846-.618h15.709zm28.452 13.613h21.744l13.607 102.202h-48.958zm50.2-13.587 21.3-65.017h17.036c3 0 5.962.17 8.875.501-2.567 26.769-10.826 92.291-34.372 160.95zm-149.192-336.211h125.246c34.393 0 62.373 27.98 62.373 62.373v26.597h-125.246c-34.393 0-62.373-27.98-62.373-62.373zm62.373 118.97h125.246v58.185c0 42.413-34.521 76.918-76.955 76.918-42.433 0-76.954-34.505-76.954-76.918v-62.736c9.027 2.953 18.662 4.551 28.663 4.551zm-106.722 230.456c0-28.906 15.743-54.201 39.096-67.744 3.487 33.028 13.19 100.317 38.567 170.319h-77.663zm310.028 102.574h-78.652c25.515-70.38 35.184-138.018 38.623-170.851 23.866 13.406 40.029 38.988 40.029 68.277z"
    />
  </g>
</svg>
