<svg
  id="Capa_1"
  enable-background="new 0 0 512 512"
  height="512"
  viewBox="0 0 512 512"
  width="512"
  xmlns="http://www.w3.org/2000/svg"
>
  <g>
    <path d="m512 0h-512v473.139h145.333v38.861h221.335v-38.861h145.332zm-230.548 482h-50.904c-5.988-26.866-27.716-48.044-55.215-53.781v-221.656c27.5-5.737 49.227-26.916 55.215-53.781h50.904c5.988 26.866 27.716 48.044 55.215 53.781v221.656c-27.499 5.737-49.227 26.915-55.215 53.781zm-106.119-306.573v-22.646h23.857c-4.331 10.372-13.013 18.623-23.857 22.646zm161.334 0c-10.844-4.023-19.526-12.274-23.857-22.646h23.857zm-191.334-52.646v47.105h-28.911v-77.457h279.157v77.458h-28.911v-47.105h-221.335zm30 336.573c10.844 4.023 19.526 12.274 23.857 22.646h-23.857zm137.478 22.646c4.331-10.372 13.012-18.623 23.857-22.646v22.646zm169.189-38.861h-115.333v-243.252h58.911v-137.458h-339.157v137.458h58.911v243.252h-115.332v-413.139h452z"/>
    <path d="m241 210.638h30v30.62h-30z"/>
    <path d="m241 393.522h30v30.62h-30z"/>
    <path d="m256 271.771c-24.824 0-45.02 20.465-45.02 45.62s20.196 45.62 45.02 45.62 45.02-20.465 45.02-45.62-20.196-45.62-45.02-45.62zm0 61.24c-8.282 0-15.02-7.007-15.02-15.62s6.738-15.62 15.02-15.62 15.02 7.007 15.02 15.62-6.738 15.62-15.02 15.62z"/>
  </g>
</svg>
