<svg
  height="512pt"
  viewBox="-36 0 512 512"
  width="512pt"
  xmlns="http://www.w3.org/2000/svg"
>
  <path d="m320.011719 70c-5.519531 0-10 4.480469-10 10s4.480469 10 10 10 10-4.480469 10-10-4.480469-10-10-10zm0 0"/>
  <path
    d="m220.011719 0c-124.058594 0-224.667969 102.660156-219.824219 228.789062-1.914062 10.253907 11.3125 16.117188 17.828125 8.140626 12.578125-10.316407 36.660156-16.929688 61.996094-16.929688 26.289062 0 51.136719 7.085938 63.304687 18.050781 4.417969 3.976563 11.375 3.640625 14.96875-1.335937 10.957032-8.832032 30.371094-14.90625 51.726563-16.371094v151.65625h-10c-5.523438 0-10 4.476562-10 10v60c0 5.515625-4.484375 10-10 10-5.519531 0-10-4.480469-10-10 0-16.542969-13.457031-30-30-30-16.574219 0-30 13.425781-30 30 0 38.597656 31.402343 70 70 70 38.597656 0 70-31.402344 70-70v-60c0-5.523438-4.476563-10-10-10h-10v-151.65625c21.535156 1.480469 41.101562 7.644531 52.042969 16.628906 3.695312 4.472656 10.617187 4.882813 14.796874.949219 12.21875-10.890625 36.972657-17.921875 63.160157-17.921875 19.871093 0 46.792969 4.453125 61.988281 16.921875 6.484375 7.960937 19.542969 2.164063 17.828125-7.976563 4.941406-126.640624-96.140625-228.945312-219.816406-228.945312zm-79.925781 212.269531c-16.101563-7.835937-37.257813-12.269531-60.074219-12.269531-22.675781 0-43.753907 4.394531-59.832031 12.160156 3.65625-94.324218 72.941406-172.09375 163.378906-188.820312-9.347656 13.492187-17.613282 32.800781-24.734375 57.859375-10.941407 38.511719-17.976563 88-18.738281 131.070312zm89.925781 229.730469c0 27.570312-22.429688 50-50 50-27.570313 0-50-22.429688-50-50 0-5.519531 4.480469-10 10-10 5.511719 0 10 4.484375 10 10 0 16.574219 13.421875 30 30 30 16.542969 0 30-13.457031 30-30v-50h20zm-10-242c-22.71875 0-43.835938 4.410156-59.925781 12.203125.769531-41.324219 7.507812-88.695313 17.976562-125.535156 11.863281-41.746094 27.546875-66.667969 41.949219-66.667969 14.402343 0 30.082031 24.921875 41.949219 66.667969 10.46875 36.839843 17.207031 84.210937 17.976562 125.535156-16.089844-7.792969-37.207031-12.203125-59.925781-12.203125zm140 0c-22.816407 0-43.972657 4.433594-60.074219 12.269531-.765625-43.070312-7.796875-92.558593-18.742188-131.066406-7.121093-25.0625-15.386718-44.371094-24.730468-57.863281 90.449218 16.726562 159.742187 94.515625 163.378906 188.859375-18.042969-8.699219-39.96875-12.199219-59.832031-12.199219zm0 0"
  />
  <path d="m341.578125 100.863281c-4.164063 3.632813-4.59375 9.949219-.960937 14.109375 14.835937 17.011719 25.71875 36.515625 32.339843 57.976563 1.324219 4.292969 5.277344 7.054687 9.550781 7.054687.976563 0 1.96875-.144531 2.953126-.449218 5.273437-1.625 8.234374-7.226563 6.605468-12.503907-7.449218-24.148437-19.691406-46.09375-36.378906-65.222656-3.628906-4.164063-9.945312-4.59375-14.109375-.964844zm0 0"/>
</svg>
