<svg
  id="Capa_1"
  enable-background="new 0 0 512 512"
  height="512"
  viewBox="0 0 512 512"
  width="512"
  xmlns="http://www.w3.org/2000/svg"
>
  <g>
    <path d="m418.79 320.58v-225.15l-86.26-95.43h-311.735v512h373.381c53.503 0 97.03-43.646 97.03-97.296 0-45.124-30.794-83.172-72.416-94.124zm-85.926-275.472 37.232 41.19h-37.232zm-282.069-15.108h252.069v86.298h85.926v201.259c-51.008 2.812-91.646 45.31-91.646 97.147 0 26.086 10.291 49.807 27.016 67.296h-273.366zm343.38 452c-36.961 0-67.031-30.188-67.031-67.296s30.07-67.296 67.031-67.296c36.96 0 67.03 30.188 67.03 67.296s-30.069 67.296-67.03 67.296z"/>
    <path d="m93.19 301.565h160.856v30h-160.856z"/>
    <path d="m93.19 241.066h160.856v30h-160.856z"/>
    <path d="m93.19 361.565h160.856v30h-160.856z"/>
    <path d="m379.175 399.704h30v30h-30z"/>
    <path d="m218.632 119.466-21.213-21.213-56.799 56.799-26.288-26.288-21.213 21.213 47.501 47.501z"/>
  </g>
</svg>
