<svg
  height="512pt"
  viewBox="0 0 512 512"
  width="512pt"
  xmlns="http://www.w3.org/2000/svg"
>
  <path d="m70 452c-5.519531 0-10 4.480469-10 10s4.480469 10 10 10 10-4.480469 10-10-4.480469-10-10-10zm0 0"/>
  <path
    d="m502 0h-60c-5.523438 0-10 4.476562-10 10v63h-173.265625c-4.453125-17.234375-20.128906-30-38.734375-30-11.9375 0-22.664062 5.265625-30 13.585938-7.335938-8.320313-18.0625-13.585938-30-13.585938s-22.664062 5.265625-30 13.585938c-7.335938-8.320313-18.0625-13.585938-30-13.585938-7.28125 0-14.113281 1.964844-20 5.382812v-38.382812c0-5.523438-4.476562-10-10-10h-60c-5.523438 0-10 4.476562-10 10v492c0 5.523438 4.476562 10 10 10h492c5.523438 0 10-4.476562 10-10 0-23.105469 0-469.070312 0-492 0-5.523438-4.476562-10-10-10zm-282 63c11.027344 0 20 8.972656 20 20s-8.972656 20-20 20-20-8.972656-20-20 8.972656-20 20-20zm-60 0c11.027344 0 20 8.972656 20 20s-8.972656 20-20 20-20-8.972656-20-20 8.972656-20 20-20zm-60 0c11.027344 0 20 8.972656 20 20s-8.972656 20-20 20-20-8.972656-20-20 8.972656-20 20-20zm-20 54.617188c5.886719 3.417968 12.71875 5.382812 20 5.382812 11.9375 0 22.664062-5.265625 30-13.585938 7.335938 8.320313 18.0625 13.585938 30 13.585938s22.664062-5.265625 30-13.585938c7.335938 8.320313 18.0625 13.585938 30 13.585938 18.605469 0 34.28125-12.765625 38.734375-30h173.265625v78.382812c-5.886719-3.417968-12.71875-5.382812-20-5.382812-11.9375 0-22.664062 5.265625-30 13.585938-7.335938-8.320313-18.0625-13.585938-30-13.585938s-22.664062 5.265625-30 13.585938c-7.335938-8.320313-18.0625-13.585938-30-13.585938-18.605469 0-34.28125 12.765625-38.734375 30h-173.265625zm352 88.382812c0 11.027344-8.972656 20-20 20s-20-8.972656-20-20 8.972656-20 20-20 20 8.972656 20 20zm-60 0c0 11.027344-8.972656 20-20 20s-20-8.972656-20-20 8.972656-20 20-20 20 8.972656 20 20zm-60 0c0 11.027344-8.972656 20-20 20s-20-8.972656-20-20 8.972656-20 20-20 20 8.972656 20 20zm-232 10h173.265625c4.453125 17.234375 20.128906 30 38.734375 30 11.9375 0 22.664062-5.265625 30-13.585938 7.335938 8.320313 18.0625 13.585938 30 13.585938s22.664062-5.265625 30-13.585938c7.335938 8.320313 18.0625 13.585938 30 13.585938 7.28125 0 14.113281-1.964844 20-5.382812v78.382812h-173.265625c-4.453125-17.234375-20.128906-30-38.734375-30-11.9375 0-22.664062 5.265625-30 13.585938-7.335938-8.320313-18.0625-13.585938-30-13.585938s-22.664062 5.265625-30 13.585938c-7.335938-8.320313-18.0625-13.585938-30-13.585938-7.28125 0-14.113281 1.964844-20 5.382812zm160 113c0 11.027344-8.972656 20-20 20s-20-8.972656-20-20 8.972656-20 20-20 20 8.972656 20 20zm-60 0c0 11.027344-8.972656 20-20 20s-20-8.972656-20-20 8.972656-20 20-20 20 8.972656 20 20zm-80-20c11.027344 0 20 8.972656 20 20s-8.972656 20-20 20-20-8.972656-20-20 8.972656-20 20-20zm-20 54.617188c5.886719 3.417968 12.71875 5.382812 20 5.382812 11.9375 0 22.664062-5.265625 30-13.585938 7.335938 8.320313 18.0625 13.585938 30 13.585938s22.664062-5.265625 30-13.585938c7.335938 8.320313 18.0625 13.585938 30 13.585938 18.605469 0 34.28125-12.765625 38.734375-30h173.265625v73h-352zm-60-343.617188h40v392h-40zm472 472h-472v-60h472zm0-80h-40v-392h40zm0 0"
  />
  <path d="m110 452c-5.523438 0-10 4.476562-10 10s4.476562 10 10 10h332c5.523438 0 10-4.476562 10-10s-4.476562-10-10-10zm0 0"/>
</svg>
