<svg
  height="512pt"
  viewBox="-16 0 512 512"
  width="512pt"
  xmlns="http://www.w3.org/2000/svg"
>
  <path d="m130 472c5.519531 0 10-4.480469 10-10s-4.480469-10-10-10-10 4.480469-10 10 4.480469 10 10 10zm0 0"/>
  <path d="m90 40c-5.519531 0-10 4.480469-10 10s4.480469 10 10 10 10-4.480469 10-10-4.480469-10-10-10zm0 0"/>
  <path d="m190 306c5.515625 0 10 4.484375 10 10 0 5.523438 4.476562 10 10 10h200c5.523438 0 10-4.476562 10-10 0-5.515625 4.484375-10 10-10 5.523438 0 10-4.476562 10-10v-80c0-5.523438-4.476562-10-10-10-5.515625 0-10-4.484375-10-10 0-5.523438-4.476562-10-10-10h-200c-5.523438 0-10 4.476562-10 10 0 5.515625-4.484375 10-10 10-5.523438 0-10 4.476562-10 10v80c0 5.523438 4.476562 10 10 10zm10-81.714844c8.511719-3.015625 15.269531-9.773437 18.285156-18.285156h183.429688c3.015625 8.511719 9.773437 15.269531 18.285156 18.285156v63.429688c-8.511719 3.015625-15.269531 9.773437-18.285156 18.285156h-183.429688c-3.015625-8.511719-9.773437-15.269531-18.285156-18.285156zm0 0"/>
  <path d="m310 286c16.542969 0 30-13.457031 30-30s-13.457031-30-30-30-30 13.457031-30 30 13.457031 30 30 30zm0-40c5.515625 0 10 4.484375 10 10s-4.484375 10-10 10-10-4.484375-10-10 4.484375-10 10-10zm0 0"/>
  <path d="m470 146h-210v-116c0-16.542969-13.457031-30-30-30h-200c-16.542969 0-30 13.457031-30 30v452c0 16.542969 13.457031 30 30 30h200c16.542969 0 30-13.457031 30-30v-116h210c5.523438 0 10-4.476562 10-10v-200c0-5.523438-4.476562-10-10-10zm-450-116c0-5.515625 4.484375-10 10-10h200c5.515625 0 10 4.484375 10 10v50h-220zm220 452c0 5.515625-4.484375 10-10 10h-200c-5.515625 0-10-4.484375-10-10v-50h220zm0-70h-220v-312h220v46h-90c-5.523438 0-10 4.476562-10 10v200c0 5.523438 4.476562 10 10 10h90zm220-66h-300v-180h300zm0 0"/>
  <path d="m170 40h-40c-5.523438 0-10 4.476562-10 10s4.476562 10 10 10h40c5.523438 0 10-4.476562 10-10s-4.476562-10-10-10zm0 0"/>
</svg>
