<svg
  id="Capa_1"
  enable-background="new 0 0 512 512"
  height="512"
  viewBox="0 0 512 512"
  width="512"
  xmlns="http://www.w3.org/2000/svg"
>
  <g>
    <path d="m211.446 248.756v30h29.554v75.674h30v-75.674h29.555v-30h-26.512l49.507-63.909-23.717-18.371-43.833 56.584-43.833-56.584-23.717 18.371 49.507 63.909z"/>
    <path
      d="m437.02 74.98c-48.353-48.351-112.64-74.98-181.02-74.98s-132.667 26.629-181.02 74.98c-48.351 48.353-74.98 112.64-74.98 181.02s26.629 132.667 74.98 181.02c48.353 48.351 112.64 74.98 181.02 74.98s132.667-26.629 181.02-74.98c48.351-48.353 74.98-112.64 74.98-181.02s-26.629-132.667-74.98-181.02zm44.98 181.02c0 55.34-19.756 107.643-55.932 148.855l-41.905-41.905c24.233-28.992 38.834-66.298 38.834-106.951s-14.601-77.959-38.834-106.951l41.905-41.905c36.176 41.214 55.932 93.517 55.932 148.857zm-362.998 0c0-75.541 61.457-136.998 136.998-136.998s136.998 61.457 136.998 136.998-61.457 136.998-136.998 136.998-136.998-61.457-136.998-136.998zm285.853-170.068-41.905 41.905c-28.991-24.234-66.297-38.835-106.95-38.835s-77.959 14.601-106.951 38.834l-41.905-41.905c41.214-36.175 93.516-55.931 148.856-55.931s107.643 19.756 148.855 55.932zm-374.855 170.068c0-55.34 19.756-107.643 55.932-148.855l41.905 41.905c-24.233 28.991-38.835 66.297-38.835 106.95s14.601 77.959 38.834 106.95l-41.905 41.905c-36.175-41.212-55.931-93.515-55.931-148.855zm77.145 170.068 41.905-41.905c28.991 24.233 66.298 38.834 106.951 38.834s77.959-14.601 106.951-38.834l41.905 41.905c-41.214 36.176-93.517 55.932-148.857 55.932s-107.642-19.756-148.855-55.932z"
    />
  </g>
</svg>
