<svg
  id="Capa_1"
  enable-background="new 0 0 512 512"
  height="512"
  viewBox="0 0 512 512"
  width="512"
  xmlns="http://www.w3.org/2000/svg"
>
  <g>
    <path d="m477.23 291.7h-88.954l-30.036-190.301h-204.18l-30.036 190.301h-89.254l-34.77 220.3h512zm-297.5-160.301h152.84l25.3 160.301h-203.44zm-144.589 350.601 25.3-160.3h152.839l25.3 160.3zm221.009-81.324-12.465-78.976h24.93zm17.57 81.324 25.3-160.3h152.538l25.3 160.3z"/>
    <path d="m241.132 0h30.035v71.149h-30.035z"/>
    <path
      d="m50.413 27.87h30.027v114.255h-30.027z"
      transform="matrix(.887 -.461 .461 .887 -31.838 39.778)"
    />
    <path
      d="m389.746 69.984h114.255v30.027h-114.255z"
      transform="matrix(.461 -.888 .888 .461 165.62 442.512)"
    />
    <path d="m121.844 386.85h30.032v30h-30.032z"/>
    <path d="m360.424 386.85h30.032v30h-30.032z"/>
    <path d="m241.133 196.55h30.033v30h-30.033z"/>
  </g>
</svg>
