<svg
  height="512pt"
  viewBox="0 0 512.0005 512"
  width="512pt"
  xmlns="http://www.w3.org/2000/svg"
>
  <path d="m284.25 72.15625c-3.898438 3.910156-3.898438 10.242188 0 14.152344 3.910156 3.898437 10.242188 3.898437 14.152344 0 3.902344-3.910156 3.902344-10.242188 0-14.152344-3.910156-3.902344-10.242188-3.902344-14.152344 0zm0 0"/>
  <path
    d="m397.40625 100.449219-8.285156 8.285156c-11.152344-5.3125-24.929688-3.363281-34.148438 5.855469-11.695312 11.695312-11.695312 30.730468.003906 42.441406 3.867188 3.867188 3.953126 10.183594-.003906 14.136719-3.902344 3.898437-10.242187 3.898437-14.132812.011719 0 0 0-.003907-.003906-.003907-3.070313-3.082031-4.398438-8.105469-3.832032-14.523437.480469-5.503906-3.589844-10.355469-9.09375-10.835938-5.511718-.484375-10.351562 3.589844-10.835937 9.089844-.722657 8.273438.585937 15.851562 3.726562 22.152344l-8.253906 8.253906c-3.90625 3.902344-3.90625 10.238281 0 14.144531s10.238281 3.902344 14.144531 0l8.285156-8.289062c11.3125 5.386719 25.035157 3.25 34.136719-5.851563 11.753907-11.734375 11.726563-30.722656.007813-42.429687-3.902344-3.902344-3.902344-10.253907-.003906-14.152344 3.898437-3.898437 10.25-3.898437 14.148437 0 2.507813 2.507813 3.875 6.429687 3.953125 11.339844.089844 5.46875 4.546875 9.84375 9.996094 9.84375h.164062c5.523438-.089844 9.929688-4.640625 9.839844-10.160157-.113281-7.0625-1.738281-12.621093-3.902344-16.929687l8.234375-8.234375c3.90625-3.90625 3.90625-10.238281 0-14.144531s-10.238281-3.90625-14.144531 0zm0 0"
  />
  <path
    d="m255.964844 43.871094c-48.066406 48.070312-57.394532 121.902344-24.46875 180.050781l-65.910156 65.914063-35.355469-35.363282c-1.875-1.878906-4.417969-2.929687-7.070313-2.929687-.003906 0-.003906 0-.003906 0-2.652344 0-5.195312 1.050781-7.070312 2.929687l-42.4375 42.433594c-3.90625 3.90625-3.90625 10.238281 0 14.144531l7.070312 7.070313-14.136719 14.148437-7.070312-7.074219c-3.902344-3.910156-10.238281-3.910156-14.144531-.003906l-42.4375 42.4375c-3.90625 3.902344-3.90625 10.238282 0 14.144532l35.363281 35.363281-35.363281 35.351562c-3.902344 3.90625-3.90625 10.238281 0 14.144531l42.4375 42.4375c3.90625 3.90625 10.234374 3.90625 14.144531 0l228.578125-228.578124c59.148437 33.488281 132.765625 22.816406 180.039062-24.457032 58.496094-58.496094 58.496094-153.671875 0-212.164062-58.496094-58.496094-153.667968-58.496094-212.164062 0zm-231.820313 330.828125 28.289063-28.289063 7.070312 7.074219c3.914063 3.917969 10.25 3.902344 14.148438 0l28.285156-28.292969c3.902344-3.90625 3.902344-10.234375-.003906-14.140625l-7.066406-7.070312 28.289062-28.292969 28.285156 28.292969-99.003906 99.011719zm28.292969 113.152343-28.292969-28.289062 35.269531-35.269531c.03125-.027344.066407-.054688.09375-.082031.03125-.03125.058594-.066407.085938-.09375l183.164062-183.167969c4.0625 5.308593 8.480469 10.355469 13.207032 15.085937 4.726562 4.726563 9.773437 9.140625 15.085937 13.207032zm401.546875-245.960937c-49.210937 49.207031-131.960937 51.910156-183.875 0-51.699219-51.703125-49.425781-134.449219 0-183.875 50.695313-50.695313 133.179687-50.695313 183.875 0 50.695313 50.691406 50.695313 133.179687 0 183.875zm0 0"
  />
  <path d="m320.984375 47.890625c-5.125 2.054687-7.617187 7.878906-5.5625 13.003906 2.058594 5.128907 7.878906 7.613281 13.007813 5.5625 33.570312-13.460937 71.753906-5.667969 97.273437 19.84375 3.902344 3.902344 10.238281 3.902344 14.144531-.003906 3.902344-3.90625 3.902344-10.238281-.003906-14.144531-31.191406-31.179688-77.84375-40.703125-118.859375-24.261719zm0 0"/>
</svg>
