<svg
  id="Capa_1"
  enable-background="new 0 0 512 512"
  height="512"
  viewBox="0 0 512 512"
  width="512"
  xmlns="http://www.w3.org/2000/svg"
>
  <g>
    <path d="m256 0-215 42.968v294.112c0 63.104 37.629 113.47 108.817 145.654 51.614 23.334 102.477 28.878 104.617 29.102l1.566.164 1.567-.164c2.14-.224 53.003-5.768 104.617-29.102 71.188-32.185 108.816-82.551 108.816-145.654v-294.112zm184.996 337.08c0 50.991-30.471 90.713-90.567 118.063-42.46 19.325-85.769 25.586-94.437 26.691-8.643-1.092-51.391-7.237-93.807-26.412-60.503-27.354-91.181-67.169-91.181-118.342v-269.536l184.996-36.973 184.996 36.973z"/>
    <path d="m184.511 172.981c0 21.951 10.151 41.599 26.05 54.588-21.891 14.674-36.328 39.628-36.328 67.888v92.34h163.533v-92.34c0-28.26-14.436-53.214-36.328-67.888 15.899-12.989 26.05-32.637 26.05-54.588 0-39.017-32.07-70.76-71.489-70.76s-71.488 31.743-71.488 70.76zm123.251 122.477v62.362h-103.524v-62.362c0-28.517 23.22-51.717 51.762-51.717s51.762 23.2 51.762 51.717zm-10.277-122.477c0 22.487-18.61 40.782-41.484 40.782s-41.484-18.295-41.484-40.782 18.61-40.782 41.484-40.782 41.484 18.295 41.484 40.782z"/>
    <path d="m240.999 285.792h30.002v29.978h-30.002z"/>
  </g>
</svg>
