<svg
  height="512pt"
  viewBox="0 0 512 512"
  width="512pt"
  xmlns="http://www.w3.org/2000/svg"
>
  <path d="m70 345.996094c-5.519531 0-10 4.480468-10 10 0 5.519531 4.480469 10 10 10s10-4.480469 10-10c0-5.519532-4.480469-10-10-10zm0 0"/>
  <path d="m70 405.996094c-5.519531 0-10 4.480468-10 10 0 5.519531 4.480469 10 10 10s10-4.480469 10-10c0-5.519532-4.480469-10-10-10zm0 0"/>
  <path d="m100 304.277344c11.636719-4.128906 20-15.242188 20-28.28125 0-16.539063-13.460938-30-30-30-5.515625 0-10-4.484375-10-10 0-5.511719 4.484375-10 10-10 3.542969 0 7.28125 1.808594 10.8125 5.230468 3.972656 3.839844 10.300781 3.734376 14.140625-.234374s3.738281-10.300782-.230469-14.140626c-5.074218-4.910156-10.152344-7.6875-14.722656-9.203124v-11.648438c0-5.523438-4.480469-10-10-10-5.523438 0-10 4.476562-10 10v11.71875c-11.640625 4.128906-20 15.242188-20 28.28125 0 16.539062 13.457031 30 30 30 5.511719 0 10 4.484375 10 10 0 5.511719-4.488281 10-10 10-4.273438 0-8.886719-2.6875-12.984375-7.566406-3.554687-4.226563-9.863281-4.773438-14.089844-1.21875-4.226562 3.554687-4.773437 9.859375-1.21875 14.089844 5.34375 6.359374 11.628907 10.789062 18.292969 13.023437v11.667969c0 5.523437 4.476562 10 10 10 5.519531 0 10-4.476563 10-10zm0 0"/>
  <path
    d="m438.644531 342.222656c7.4375-14.21875 11.351563-30.039062 11.351563-46.226562 0-43.585938-28.394532-82.25-70-95.390625v-70.605469c0-2.703125-1.113282-5.257812-2.929688-7.070312l-119.996094-120c-1.78125-1.78125-4.355468-2.929688-7.074218-2.929688h-219.996094c-16.542969 0-30 13.457031-30 30v451.996094c0 16.542968 13.457031 30 30 30h319.996094c16.542968 0 30-13.457032 30-30v-90.601563c5.597656-1.757812 11.023437-4.011719 16.230468-6.746093l64.558594 64.558593c11.722656 11.722657 30.695313 11.726563 42.421875 0 11.722657-11.722656 11.726563-30.695312 0-42.421875zm-178.648437-308.078125 85.859375 85.855469h-85.859375zm100 447.851563c0 5.511718-4.484375 10-10 10h-319.996094c-5.515625 0-10-4.488282-10-10v-451.996094c0-5.515625 4.484375-10 10-10h209.996094v110c0 5.519531 4.480468 10 10 10h110v56.503906c-3.3125-.328125-6.652344-.503906-10-.503906-55.140625 0-100 44.855469-100 99.996094s44.859375 100 100 100c3.347656 0 6.6875-.175782 10-.507813zm-10-106c-44.109375 0-80-35.886719-80-80 0-44.109375 35.890625-80 80-80 44.855468 0 80 37.035156 80 80 0 44.097656-35.894532 80-80 80zm139.066406 59.070312c-3.902344 3.898438-10.21875 3.914063-14.136719 0l-61.683593-61.683594c5.160156-4.230468 9.90625-8.980468 14.136718-14.136718l61.683594 61.683594c3.910156 3.910156 3.910156 10.226562 0 14.136718zm0 0"
  />
  <path d="m70 140h120c5.519531 0 10-4.480469 10-10v-60c0-5.523438-4.480469-10-10-10h-120c-5.523438 0-10 4.476562-10 10v60c0 5.523438 4.476562 10 10 10zm10-60h100v40h-100zm0 0"/>
  <path d="m209.996094 305.996094c5.523437 0 10-4.476563 10-10 0-5.519532-4.476563-10-10-10h-59.996094c-5.523438 0-10 4.480468-10 10 0 5.523437 4.476562 10 10 10zm0 0"/>
  <path d="m140 235.996094c0 5.523437 4.476562 10 10 10h59.996094c5.523437 0 10-4.476563 10-10 0-5.519532-4.476563-10-10-10h-59.996094c-5.523438 0-10 4.480468-10 10zm0 0"/>
  <path d="m100 355.996094c0 5.523437 4.476562 10 10 10h119.996094c5.523437 0 10-4.476563 10-10 0-5.523438-4.476563-10-10-10h-119.996094c-5.523438 0-10 4.476562-10 10zm0 0"/>
  <path d="m289.996094 405.996094h-179.996094c-5.523438 0-10 4.476562-10 10 0 5.523437 4.476562 10 10 10h179.996094c5.523437 0 10-4.476563 10-10 0-5.523438-4.476563-10-10-10zm0 0"/>
</svg>
