<svg width="20" height="21" viewBox="0 0 20 21" fill="none" xmlns="http://www.w3.org/2000/svg">
<path fill-rule="evenodd" clip-rule="evenodd" d="M16 6C16 9.31371 13.3137 12 10 12C6.68629 12 4 9.31371 4 6C4 2.68629 6.68629 0 10 0C13.3137 0 16 2.68629 16 6ZM14 6C14 8.20914 12.2091 10 10 10C7.79086 10 6 8.20914 6 6C6 3.79086 7.79086 2 10 2C12.2091 2 14 3.79086 14 6Z" fill="#039BE5"/>
<path fill-rule="evenodd" clip-rule="evenodd" d="M10.0001 13C7.06495 13 4.9487 13.6088 3.43064 14.5217C1.90653 15.4383 1.05047 16.6224 0.577732 17.6581C0.179248 18.5311 0.360613 19.4207 0.890045 20.0546C1.39471 20.6587 2.1794 21 3.00005 21H17C17.8207 21 18.6053 20.6588 19.11 20.0546C19.6394 19.4208 19.8208 18.5311 19.4223 17.6582C18.9496 16.6225 18.0936 15.4383 16.5695 14.5218C15.0515 13.6088 12.9352 13 10.0001 13ZM2.39715 18.4886C2.7253 17.7697 3.3281 16.9172 4.46135 16.2357C5.60065 15.5506 7.34028 15 10.0001 15C12.6599 15 14.3995 15.5506 15.5388 16.2357C16.672 16.9172 17.2748 17.7697 17.6029 18.4886C17.6417 18.5735 17.64 18.6245 17.6361 18.6506C17.6316 18.6803 17.617 18.7222 17.5751 18.7724C17.4849 18.8804 17.2839 19 17 19H3.00005C2.71612 19 2.51516 18.8804 2.425 18.7724C2.38302 18.7222 2.36842 18.6803 2.36398 18.6506C2.36009 18.6245 2.3584 18.5735 2.39715 18.4886Z" fill="#039BE5"/>
</svg>
