<svg
  width="21"
  height="21"
  viewBox="0 0 21 21"
  fill="none"
  xmlns="http://www.w3.org/2000/svg"
>
  <path
    d="M13.7812 1.3125H12.3559C12.0855 0.548625 11.3558 0 10.5 0C9.64425 0 8.9145 0.548625 8.64281 1.3125H7.21875C6.8565 1.3125 6.5625 1.6065 6.5625 1.96875V4.59375C6.5625 4.956 6.8565 5.25 7.21875 5.25H13.7812C14.1435 5.25 14.4375 4.956 14.4375 4.59375V1.96875C14.4375 1.6065 14.1435 1.3125 13.7812 1.3125Z"
    fill="#CCCCCC"
  />
  <path
    d="M17.0625 2.625H15.75V4.59375C15.75 5.67919 14.8667 6.5625 13.7812 6.5625H7.21875C6.13331 6.5625 5.25 5.67919 5.25 4.59375V2.625H3.9375C3.21431 2.625 2.625 3.21431 2.625 3.9375V19.6875C2.625 20.4238 3.20119 21 3.9375 21H17.0625C17.7988 21 18.375 20.4238 18.375 19.6875V3.9375C18.375 3.20119 17.7988 2.625 17.0625 2.625ZM10.3084 14.2459L7.68338 16.8709C7.55475 16.9982 7.38675 17.0625 7.21875 17.0625C7.05075 17.0625 6.88275 16.9982 6.75412 16.8709L5.44162 15.5584C5.18569 15.3024 5.18569 14.8864 5.44162 14.6304C5.69756 14.3745 6.11363 14.3745 6.36956 14.6304L7.21875 15.4783L9.37912 13.3179C9.63506 13.062 10.0511 13.062 10.3071 13.3179C10.563 13.5739 10.5643 13.9886 10.3084 14.2459ZM10.3084 8.99588L7.68338 11.6209C7.55475 11.7482 7.38675 11.8125 7.21875 11.8125C7.05075 11.8125 6.88275 11.7482 6.75412 11.6209L5.44162 10.3084C5.18569 10.0524 5.18569 9.63637 5.44162 9.38044C5.69756 9.1245 6.11363 9.1245 6.36956 9.38044L7.21875 10.2283L9.37912 8.06794C9.63506 7.812 10.0511 7.812 10.3071 8.06794C10.563 8.32387 10.5643 8.73863 10.3084 8.99588ZM15.0938 15.75H12.4688C12.1065 15.75 11.8125 15.456 11.8125 15.0938C11.8125 14.7315 12.1065 14.4375 12.4688 14.4375H15.0938C15.456 14.4375 15.75 14.7315 15.75 15.0938C15.75 15.456 15.456 15.75 15.0938 15.75ZM15.0938 10.5H12.4688C12.1065 10.5 11.8125 10.206 11.8125 9.84375C11.8125 9.4815 12.1065 9.1875 12.4688 9.1875H15.0938C15.456 9.1875 15.75 9.4815 15.75 9.84375C15.75 10.206 15.456 10.5 15.0938 10.5Z"
    fill="#CCCCCC"
  />
</svg>
