<svg
  width="13"
  height="12"
  viewBox="0 0 13 12"
  fill="none"
  xmlns="http://www.w3.org/2000/svg"
>
  <path
    d="M0.327793 5.40484L5.55694 0.245195C5.88958 -0.08319 6.42889 -0.08319 6.76137 0.245195C7.09387 0.573288 7.09387 1.10542 6.76137 1.43349L2.13438 5.99899L6.76123 10.5643C7.09373 10.8926 7.09373 11.4246 6.76123 11.7527C6.42873 12.081 5.88944 12.081 5.5568 11.7527L0.327658 6.59301C0.161407 6.42888 0.0783749 6.214 0.0783749 5.99902C0.0783749 5.78393 0.161568 5.56889 0.327793 5.40484Z"
    fill="#ADADAD"
  />
  <path
    d="M5.39518 5.40484L10.6243 0.245195C10.957 -0.08319 11.4963 -0.08319 11.8287 0.245195C12.1613 0.573288 12.1613 1.10542 11.8287 1.43349L7.20176 5.99899L11.8286 10.5643C12.1611 10.8926 12.1611 11.4246 11.8286 11.7527C11.4961 12.081 10.9568 12.081 10.6242 11.7527L5.39504 6.59301C5.22879 6.42888 5.14576 6.214 5.14576 5.99902C5.14576 5.78393 5.22895 5.56889 5.39518 5.40484Z"
    fill="#ADADAD"
  />
</svg>
