<svg
  width="20"
  height="20"
  viewBox="0 0 20 20"
  fill="none"
  xmlns="http://www.w3.org/2000/svg"
>
  <path
    d="M10.0006 0C4.47804 0 0.000976562 4.4774 0.000976562 9.9998C0.000976562 15.5222 4.47804 20 10.0006 20C15.5232 20 20.0008 15.5225 20.0008 9.9998C20.0008 4.47713 15.5232 0 10.0006 0ZM14.8008 8.90653L8.22958 15.4773L8.22991 15.4777C8.22764 15.4799 8.22544 15.4815 8.22318 15.4837L8.18291 15.524L8.18084 15.5217C7.81011 15.867 7.32978 16.0393 6.83251 16.0393C6.23944 16.0393 5.62424 15.7974 5.14824 15.3213C4.72498 14.8984 4.47118 14.352 4.43364 13.7828C4.39644 13.2198 4.57471 12.7004 4.93264 12.3072L4.92904 12.3036L11.423 5.8096C11.9715 5.261 12.9036 5.3014 13.5015 5.89913C13.7818 6.1794 13.9504 6.54287 13.9754 6.9222C14.002 7.32193 13.8616 7.70653 13.5904 7.97747L8.30398 13.2644L7.57031 12.5309L12.857 7.2438C12.9345 7.16633 12.945 7.0636 12.9402 6.99133C12.9318 6.8648 12.8688 6.73407 12.7677 6.63287C12.5777 6.44287 12.2978 6.40207 12.1565 6.54347L5.72618 12.9737L5.72638 12.9739C5.54084 13.1592 5.44938 13.4222 5.46878 13.7144C5.48984 14.0324 5.63651 14.3426 5.88184 14.5879C6.36891 15.0749 7.09118 15.1455 7.49384 14.7463L14.0677 8.173C14.3739 7.8666 14.5254 7.43593 14.4939 6.9606C14.4607 6.45933 14.2311 5.97227 13.8478 5.58893C13.0745 4.81587 11.9156 4.71713 11.2637 5.36867L5.82511 10.8071L5.09144 10.0736L10.53 4.635C11.5862 3.57907 13.4036 3.6776 14.5812 4.85513C15.1426 5.4162 15.4791 6.13947 15.5291 6.8918C15.5805 7.66993 15.322 8.3854 14.8008 8.90653Z"
    fill="#DADADA"
  />
</svg>
