<svg
  width="24"
  height="24"
  viewBox="0 0 24 24"
  fill="none"
  xmlns="http://www.w3.org/2000/svg"
>
  <path
    d="M11.9999 22.8093C17.9534 22.8093 22.8092 17.9721 22.8092 12C22.8092 6.02791 17.972 1.2093 11.9999 1.2093C6.02783 1.2093 1.20923 6.04651 1.20923 12C1.20923 17.9535 6.04644 22.8093 11.9999 22.8093ZM11.9999 2.71628C17.1162 2.71628 21.2836 6.88372 21.2836 12C21.2836 17.1163 17.1162 21.2837 11.9999 21.2837C6.88365 21.2837 2.71621 17.1163 2.71621 12C2.71621 6.88372 6.88365 2.71628 11.9999 2.71628Z"
    fill="#74A1E3"
  />
  <path
    d="M13.0231 17.3954C13.1719 17.5442 13.3579 17.6186 13.5626 17.6186C13.7486 17.6186 13.9533 17.5442 14.1021 17.3954C14.3998 17.0977 14.3998 16.614 14.1021 16.3163L9.73004 11.9442L14.1021 7.5721C14.3998 7.27443 14.3998 6.79071 14.1021 6.49303C13.8045 6.19536 13.3207 6.19536 13.0231 6.49303L8.11144 11.4047C7.9626 11.5535 7.88818 11.7395 7.88818 11.9442C7.88818 12.1488 7.9626 12.3349 8.11144 12.4837L13.0231 17.3954Z"
    fill="#74A1E3"
  />
</svg>
