<svg
  width="16"
  height="16"
  viewBox="0 0 16 16"
  fill="none"
  xmlns="http://www.w3.org/2000/svg"
>
  <path
    d="M8.00071 0C3.58263 0 0.000976562 3.58192 0.000976562 7.99984C0.000976562 12.4178 3.58263 16 8.00071 16C12.4188 16 16.0009 12.418 16.0009 7.99984C16.0009 3.58171 12.4188 0 8.00071 0ZM11.8037 5.75707L11.0439 6.51691L9.49714 4.97029L8.91036 5.55707L10.4571 7.10379L6.66338 10.8972L5.11676 9.35072L4.52999 9.93749L6.0766 11.4841L5.69858 11.8621L5.69138 11.8549C5.64946 11.9239 5.5813 11.9743 5.50034 11.9923L4.05804 12.3139C4.03644 12.3187 4.01447 12.3211 3.99276 12.3211C3.91404 12.3211 3.83756 12.2901 3.78087 12.2332C3.70812 12.1607 3.67783 12.0561 3.70023 11.9557L4.02167 10.5139C4.0398 10.433 4.09026 10.3646 4.15916 10.3228L4.15186 10.3155L10.2569 4.21019C10.3464 4.12085 10.4918 4.12085 10.5813 4.21045L11.8038 5.43269C11.8933 5.52219 11.8933 5.66757 11.8037 5.75707Z"
    fill="#74A1E3"
  />
</svg>
