<svg width="16" height="16" viewBox="0 0 16 16" fill="none" xmlns="http://www.w3.org/2000/svg">
<path fill-rule="evenodd" clip-rule="evenodd" d="M8 16C12.4183 16 16 12.4183 16 8C16 3.58172 12.4183 0 8 0C3.58172 0 0 3.58172 0 8C0 12.4183 3.58172 16 8 16ZM8 15C11.866 15 15 11.866 15 8C15 4.13401 11.866 1 8 1C4.13401 1 1 4.13401 1 8C1 11.866 4.13401 15 8 15Z" fill="#039BE5"/>
<path fill-rule="evenodd" clip-rule="evenodd" d="M12.0445 5.20529C12.2073 5.36801 12.2073 5.63183 12.0445 5.79455L7.04455 10.7945C6.88183 10.9573 6.61801 10.9573 6.45529 10.7945L3.95529 8.29455C3.79257 8.13183 3.79257 7.86801 3.95529 7.70529C4.11801 7.54257 4.38183 7.54257 4.54455 7.70529L6.74992 9.91066L11.4553 5.20529C11.618 5.04257 11.8818 5.04257 12.0445 5.20529Z" fill="#039BE5"/>
</svg>
