<svg
  width="25"
  height="25"
  viewBox="0 0 25 25"
  fill="none"
  xmlns="http://www.w3.org/2000/svg"
>
  <g clip-path="url(#clip0)">
    <path
      d="M16.1068 8.0653C17.3086 8.0653 18.2864 7.08749 18.2864 5.88568C18.2864 4.68377 17.3086 3.70596 16.1068 3.70596C14.9053 3.70596 13.9277 4.68382 13.9277 5.88568C13.9278 7.08749 14.9053 8.0653 16.1068 8.0653Z"
      fill="#CCCCCC"
    />
    <path
      d="M24.8608 13.5034L23.2894 11.9319C23.1996 11.8422 23.0801 11.7928 22.9525 11.7928C22.8251 11.7928 22.7054 11.8422 22.6157 11.9319L22.1561 12.3915C22.1372 12.3694 22.1178 12.3479 22.0971 12.3271C21.8863 12.1164 21.6021 12.0003 21.2967 12.0002L20.5517 10.9845C20.3535 10.7141 20.0187 10.3376 19.773 10.1087L18.2377 8.67901C18.1276 8.57642 17.9082 8.43164 17.6546 8.43164C17.6546 8.43164 14.979 8.43164 14.9646 8.43164C14.6126 8.43164 14.2962 8.62717 14.139 8.94188L13.0179 11.185C12.9353 11.3502 12.73 11.6444 12.6033 11.7788L11.8101 12.6216C11.6412 12.801 11.5523 13.0355 11.5598 13.2817C11.5672 13.528 11.6701 13.7566 11.8495 13.9254C12.0212 14.0871 12.2457 14.1761 12.4815 14.1761C12.7349 14.1761 12.9797 14.0704 13.1533 13.886L13.9465 13.0432C14.1953 12.7789 14.5055 12.3346 14.6679 12.0097L14.8347 11.676C14.8347 11.676 15.0682 12.9967 15.1344 13.4373C15.1377 13.4592 15.1388 13.4858 15.1383 13.4919L14.8795 16.3962C14.8515 16.7101 14.8383 17.2024 14.8493 17.517L14.9526 20.4774C14.971 21.0038 15.3977 21.416 15.924 21.416C15.9353 21.416 15.9468 21.4158 15.9585 21.4154C16.4944 21.3966 16.9152 20.9454 16.8965 20.4095L16.7931 17.4491C16.7849 17.2141 16.796 16.8028 16.8169 16.5688L16.9903 14.6218H17.3564L17.8904 16.8527C17.9684 17.1785 18.1282 17.6556 18.262 17.9624L19.387 20.5415C19.5418 20.8962 19.8919 21.1254 20.2789 21.1254C20.2877 21.1254 20.2965 21.1253 20.3053 21.125C20.4301 21.1216 20.5518 21.0944 20.6672 21.0441C20.9053 20.9402 21.0887 20.7498 21.1836 20.5081C21.2785 20.2662 21.2736 20.002 21.1698 19.7639L20.0447 17.1847C19.9563 16.9818 19.8335 16.6152 19.7819 16.3999L18.8023 11.7574C18.9027 11.8703 18.9991 11.9866 19.0642 12.0753L19.8127 13.0961C19.8777 13.1847 19.9576 13.26 20.0475 13.3193C20.063 13.5988 20.1762 13.8558 20.3723 14.0519C20.393 14.0726 20.4146 14.0921 20.4366 14.1109L19.977 14.5705C19.8873 14.6602 19.8379 14.7798 19.8379 14.9073C19.8379 15.0349 19.8873 15.1544 19.977 15.2441L21.5485 16.8157C21.6382 16.9054 21.7578 16.9548 21.8853 16.9548C22.0128 16.9548 22.1324 16.9054 22.2221 16.8157L24.8608 14.1769C24.9505 14.0872 24.9999 13.9676 24.9999 13.8401C24.9999 13.7126 24.9505 13.5931 24.8608 13.5034ZM20.7724 13.6518C20.7195 13.5989 20.6792 13.5364 20.6519 13.4676C20.8144 13.451 20.9684 13.3923 21.102 13.2944C21.3006 13.1487 21.4307 12.9344 21.4681 12.6908C21.4731 12.6587 21.4761 12.6266 21.4777 12.5946C21.5604 12.6212 21.6355 12.6659 21.6969 12.7273C21.7178 12.7482 21.7361 12.7709 21.7531 12.7945L20.8397 13.7079C20.816 13.6909 20.7933 13.6726 20.7724 13.6518Z"
      fill="#CCCCCC"
    />
    <path
      d="M11.1438 15.6814H10.6547V5.35714C10.6547 5.09688 10.443 4.88515 10.1827 4.88515H8.90067V4.05588C8.90067 3.79562 8.68894 3.58389 8.42869 3.58389H3.16665C2.9064 3.58389 2.69467 3.79562 2.69467 4.05588V4.88515H1.41263C1.15238 4.88515 0.940646 5.09688 0.940646 5.35714V15.6814H0.451499C0.202559 15.6814 0 15.884 0 16.1329V17.6811C0 17.93 0.202559 18.1326 0.451499 18.1326H11.1438C11.3928 18.1326 11.5953 17.93 11.5953 17.6811V16.1329C11.5953 15.8839 11.3928 15.6814 11.1438 15.6814ZM3.99829 13.7374C3.99829 13.8095 3.93933 13.8685 3.86727 13.8685H2.15307C2.08101 13.8685 2.02205 13.8095 2.02205 13.7374V12.0232C2.02205 11.9512 2.08101 11.8922 2.15307 11.8922H3.86727C3.93933 11.8922 3.99829 11.9512 3.99829 12.0232V13.7374ZM3.99829 11.0006C3.99829 11.0726 3.93933 11.1316 3.86727 11.1316H2.15307C2.08101 11.1316 2.02205 11.0726 2.02205 11.0006V9.28638C2.02205 9.21432 2.08101 9.15536 2.15307 9.15536H3.86727C3.93933 9.15536 3.99829 9.21432 3.99829 9.28638V11.0006ZM3.99829 8.23458C3.99829 8.30664 3.93933 8.3656 3.86727 8.3656H2.15307C2.08101 8.3656 2.02205 8.30664 2.02205 8.23458V6.52039C2.02205 6.44833 2.08101 6.38937 2.15307 6.38937H3.86727C3.93933 6.38937 3.99829 6.44833 3.99829 6.52039V8.23458ZM6.78577 16.0522C6.78577 16.1242 6.72681 16.1832 6.65475 16.1832H4.94055C4.86849 16.1832 4.80953 16.1242 4.80953 16.0522V12.0232C4.80953 11.9512 4.86849 11.8922 4.94055 11.8922H6.65475C6.72681 11.8922 6.78577 11.9512 6.78577 12.0232V16.0522ZM6.78577 11.0006C6.78577 11.0726 6.72681 11.1316 6.65475 11.1316H4.94055C4.86849 11.1316 4.80953 11.0726 4.80953 11.0006V9.28638C4.80953 9.21432 4.86849 9.15536 4.94055 9.15536H6.65475C6.72681 9.15536 6.78577 9.21432 6.78577 9.28638V11.0006ZM6.78577 8.23458C6.78577 8.30664 6.72681 8.3656 6.65475 8.3656H4.94055C4.86849 8.3656 4.80953 8.30664 4.80953 8.23458V6.52039C4.80953 6.44833 4.86849 6.38937 4.94055 6.38937H6.65475C6.72681 6.38937 6.78577 6.44833 6.78577 6.52039V8.23458ZM9.58089 13.7374C9.58089 13.8095 9.52193 13.8685 9.44987 13.8685H7.73567C7.66361 13.8685 7.60465 13.8095 7.60465 13.7374V12.0232C7.60465 11.9512 7.66361 11.8922 7.73567 11.8922H9.44987C9.52193 11.8922 9.58089 11.9512 9.58089 12.0232V13.7374ZM9.58089 11.0006C9.58089 11.0726 9.52193 11.1316 9.44987 11.1316H7.73567C7.66361 11.1316 7.60465 11.0726 7.60465 11.0006V9.28638C7.60465 9.21432 7.66361 9.15536 7.73567 9.15536H9.44987C9.52193 9.15536 9.58089 9.21432 9.58089 9.28638V11.0006ZM9.58089 8.23458C9.58089 8.30664 9.52193 8.3656 9.44987 8.3656H7.73567C7.66361 8.3656 7.60465 8.30664 7.60465 8.23458V6.52039C7.60465 6.44833 7.66361 6.38937 7.73567 6.38937H9.44987C9.52193 6.38937 9.58089 6.44833 9.58089 6.52039V8.23458Z"
      fill="#CCCCCC"
    />
  </g>
  <defs>
    <clipPath id="clip0">
      <rect
        width="25"
        height="25"
        fill="white"
      />
    </clipPath>
  </defs>
</svg>
