<svg width="12" height="16" viewBox="0 0 12 16" fill="none" xmlns="http://www.w3.org/2000/svg">
<path fill-rule="evenodd" clip-rule="evenodd" d="M4.66667 0.666626C4.29848 0.666626 4 0.965103 4 1.33329V2.66663H0.666667C0.298477 2.66663 0 2.9651 0 3.33329C0 3.70148 0.298477 3.99996 0.666667 3.99996H11.3333C11.7015 3.99996 12 3.70148 12 3.33329C12 2.9651 11.7015 2.66663 11.3333 2.66663H8V1.33329C8 0.965103 7.70152 0.666626 7.33333 0.666626H4.66667ZM6.66667 2.66663H5.33333V1.99996H6.66667V2.66663Z" fill="#666C72"/>
<path d="M4.66667 7.33329C5.03486 7.33329 5.33333 7.63177 5.33333 7.99996V12C5.33333 12.3681 5.03486 12.6666 4.66667 12.6666C4.29848 12.6666 4 12.3681 4 12V7.99996C4 7.63177 4.29848 7.33329 4.66667 7.33329Z" fill="#666C72"/>
<path d="M8 7.99996C8 7.63177 7.70152 7.33329 7.33333 7.33329C6.96514 7.33329 6.66667 7.63177 6.66667 7.99996V12C6.66667 12.3681 6.96514 12.6666 7.33333 12.6666C7.70152 12.6666 8 12.3681 8 12V7.99996Z" fill="#666C72"/>
<path fill-rule="evenodd" clip-rule="evenodd" d="M0.666671 4.66663C0.47341 4.66663 0.28966 4.75049 0.163035 4.89649C0.0364102 5.04249 -0.0206265 5.23625 0.00670477 5.42757L1.1765 13.6161C1.31726 14.6014 2.1611 15.3333 3.1564 15.3333H8.84361C9.83891 15.3333 10.6828 14.6014 10.8235 13.6161L11.9933 5.42757C12.0206 5.23625 11.9636 5.04249 11.837 4.89649C11.7103 4.75049 11.5266 4.66663 11.3333 4.66663H0.666671ZM2.49643 13.4276L1.43534 5.99996H10.5647L9.50358 13.4276C9.45666 13.756 9.17538 14 8.84361 14H3.1564C2.82463 14 2.54335 13.756 2.49643 13.4276Z" fill="#666C72"/>
</svg>
