<svg
  width="15"
  height="15"
  viewBox="0 0 15 15"
  fill="none"
  xmlns="http://www.w3.org/2000/svg"
>
  <path
    d="M14.8412 7.12338L12.6982 4.9805C12.5923 4.87446 12.4667 4.82148 12.3216 4.82148C12.1765 4.82148 12.051 4.87446 11.9449 4.9805C11.839 5.08661 11.7859 5.21218 11.7859 5.35725V6.42876H8.5715V3.2144H9.64307C9.78814 3.2144 9.91374 3.16136 10.0197 3.05537C10.1257 2.94933 10.1787 2.82387 10.1787 2.67871C10.1787 2.53353 10.1257 2.40795 10.0197 2.30194L7.87679 0.159025C7.77086 0.0530084 7.64532 0 7.50013 0C7.35495 0 7.22946 0.0530377 7.12339 0.159025L4.98053 2.30194C4.87446 2.40804 4.82151 2.53361 4.82151 2.67871C4.82151 2.82372 4.87449 2.9493 4.98053 3.05537C5.08664 3.16136 5.21209 3.2144 5.35728 3.2144H6.42874V6.42879H3.2144V5.35728C3.2144 5.21209 3.16136 5.08655 3.05531 4.98053C2.94921 4.87449 2.82364 4.82151 2.67857 4.82151C2.53353 4.82151 2.40795 4.87449 2.30191 4.98053L0.159025 7.12338C0.0530377 7.22943 0 7.35494 0 7.50004C0 7.64514 0.0530377 7.77074 0.159025 7.8767L2.30191 10.0195C2.40795 10.1255 2.53344 10.1788 2.67857 10.1788C2.82375 10.1788 2.9493 10.1255 3.05531 10.0195C3.16136 9.91368 3.2144 9.78797 3.2144 9.64287V8.57129H6.42874V11.7857H5.35737C5.21218 11.7857 5.08661 11.8388 4.98059 11.9447C4.87455 12.0508 4.82157 12.1763 4.82157 12.3214C4.82157 12.4665 4.87455 12.5921 4.98059 12.6982L7.12347 14.841C7.22964 14.9469 7.35515 15 7.50025 15C7.64532 15 7.77104 14.9469 7.87691 14.841L10.0197 12.6982C10.1259 12.5921 10.1789 12.4665 10.1789 12.3214C10.1789 12.1763 10.1259 12.0508 10.0197 11.9447C9.91377 11.8388 9.78817 11.7857 9.64307 11.7857H8.5717V8.57138H11.786V9.64307C11.786 9.78814 11.839 9.91374 11.9449 10.0197C12.0511 10.1257 12.1767 10.1789 12.3218 10.1789C12.4667 10.1789 12.5923 10.1257 12.6984 10.0197L14.8413 7.87679C14.9473 7.77074 15.0003 7.64514 15.0003 7.50004C15.0003 7.35494 14.9473 7.22943 14.8412 7.12338Z"
    fill="#DADADA"
  />
</svg>
