<svg
  width="16"
  height="16"
  viewBox="0 0 16 16"
  fill="none"
  xmlns="http://www.w3.org/2000/svg"
>
  <path
    d="M11.4286 2.85718H1.71428C0.767511 2.85718 0 3.62469 0 4.57146V14.2857C0 15.2325 0.767511 16 1.71428 16H11.4286C12.3753 16 13.1428 15.2325 13.1428 14.2857V4.57146C13.1428 3.62469 12.3753 2.85718 11.4286 2.85718ZM12 14.2858C12 14.6014 11.7442 14.8572 11.4286 14.8572H1.71428C1.39868 14.8572 1.14285 14.6014 1.14285 14.2858V4.57146C1.14285 4.25586 1.39868 4.00002 1.71428 4.00002H11.4286C11.7442 4.00002 12 4.25586 12 4.57146V14.2858Z"
    fill="#DADADA"
  />
  <path
    d="M14.2859 0H4.00017C3.0534 0 2.28589 0.767511 2.28589 1.71428C2.28589 2.02989 2.54173 2.28572 2.85733 2.28572C3.17293 2.28572 3.42873 2.02989 3.42873 1.71428C3.42873 1.39868 3.68457 1.14285 4.00017 1.14285H14.2859C14.6015 1.14285 14.8573 1.39868 14.8573 1.71428V12C14.8573 12.3156 14.6015 12.5714 14.2859 12.5714C13.9703 12.5714 13.7144 12.8273 13.7144 13.1429C13.7144 13.4585 13.9703 13.7143 14.2859 13.7143C15.2326 13.7143 16.0002 12.9468 16.0002 12V1.71428C16.0002 0.767511 15.2326 0 14.2859 0Z"
    fill="#DADADA"
  />
  <rect
    x="1"
    y="4"
    width="11"
    height="11"
    fill="#DADADA"
  />
</svg>
