<svg
  width="16"
  height="16"
  viewBox="0 0 16 16"
  fill="none"
  xmlns="http://www.w3.org/2000/svg"
>
  <path
    d="M8.00046 0C3.58239 0 0.000732422 3.58192 0.000732422 7.99984C0.000732422 12.4178 3.58239 16 8.00046 16C12.4185 16 16.0006 12.418 16.0006 7.99984C16.0006 3.58171 12.4185 0 8.00046 0ZM11.8035 5.75707L11.0436 6.51691L9.49689 4.97029L8.91012 5.55707L10.4568 7.10379L6.66313 10.8972L5.11652 9.35072L4.52975 9.93749L6.07636 11.4841L5.69833 11.8621L5.69113 11.8549C5.64921 11.9239 5.58105 11.9743 5.50009 11.9923L4.0578 12.3139C4.0362 12.3187 4.01423 12.3211 3.99252 12.3211C3.9138 12.3211 3.83732 12.2901 3.78063 12.2332C3.70788 12.1607 3.67759 12.0561 3.69999 11.9557L4.02143 10.5139C4.03956 10.433 4.09001 10.3646 4.15892 10.3228L4.15161 10.3155L10.2567 4.21019C10.3462 4.12085 10.4916 4.12085 10.5811 4.21045L11.8036 5.43269C11.8931 5.52219 11.8931 5.66757 11.8035 5.75707Z"
    fill="#DADADA"
  />
</svg>
