<svg
  width="14"
  height="14"
  viewBox="0 0 14 14"
  fill="none"
  xmlns="http://www.w3.org/2000/svg"
>
  <path
    d="M13.9402 0.397396C13.8275 0.139324 13.6325 0.0102709 13.3541 0.0101318H0.645582C0.367618 0.0101318 0.172281 0.139324 0.0597465 0.397396C-0.052719 0.668683 -0.00643217 0.9005 0.198816 1.09239L5.09378 5.98721V10.8125C5.09378 10.9849 5.15668 11.1336 5.2824 11.2596L7.824 13.8011C7.94325 13.9268 8.09212 13.9898 8.27091 13.9898C8.35027 13.9898 8.43296 13.9732 8.51903 13.9401C8.77728 13.8275 8.90644 13.6323 8.90644 13.3543V5.98724L13.8012 1.09243C14.0065 0.900535 14.0527 0.668788 13.9402 0.397396Z"
    fill="#74A1E3"
  />
</svg>
