<svg
  width="23"
  height="23"
  viewBox="0 0 23 23"
  fill="none"
  xmlns="http://www.w3.org/2000/svg"
>
  <path
    d="M23 5.24805V12.2104C23 12.2104 21.5099 12.504 21.2029 12.5426C20.8969 12.5811 19.9353 12.8916 19.2383 12.2217C18.1636 11.1916 14.3449 7.39406 14.3449 7.39406C14.3449 7.39406 13.6865 6.74799 12.6293 7.30635C11.6589 7.81785 10.2203 8.56745 9.61948 8.85934C8.48359 9.46393 7.54214 8.50471 7.54214 7.77404C7.54214 7.20728 7.89581 6.82262 8.40136 6.53972C9.77146 5.70914 12.6592 4.08821 13.862 3.44915C14.5931 3.06031 15.1198 3.02699 16.1236 3.87256C17.3597 4.91221 18.4598 5.85987 18.4598 5.85987C18.4598 5.85987 18.8186 6.15933 19.3909 6.03872C20.7961 5.74163 23 5.24805 23 5.24805ZM7.80081 17.045C7.98574 16.5699 7.92393 16.0385 7.56938 15.674C7.2508 15.3479 6.78567 15.2619 6.34217 15.3636C6.46621 14.9237 6.39772 14.4555 6.07742 14.1251C5.75787 13.7998 5.29362 13.7121 4.85016 13.8147C4.97327 13.3755 4.90496 12.9073 4.58448 12.5779C4.08264 12.0631 3.21461 12.0852 2.64437 12.6288C2.07715 13.1731 1.71379 14.1592 2.22003 14.7397C2.72544 15.3172 3.30617 14.9658 3.74889 14.8649C3.62573 15.3042 3.2567 15.7127 3.71116 16.2877C4.1652 16.8629 4.79725 16.5139 5.24044 16.4139C5.11686 16.8515 4.76393 17.3011 5.20094 17.8341C5.6419 18.3688 6.36412 18.0839 6.84113 17.9358C6.65703 18.4091 6.263 18.9193 6.76925 19.491C7.2747 20.0668 8.4428 19.8004 9.01336 19.256C9.5824 18.7117 9.63702 17.8491 9.13653 17.3327C8.79098 16.9785 8.27587 16.896 7.80081 17.045ZM18.2118 13.4228C14.0872 9.29821 16.0272 11.2391 13.8076 9.01462C13.8076 9.01462 13.1405 8.3505 12.2612 8.73627C11.644 9.00673 10.8494 9.37534 10.2515 9.65674C9.59451 10.0013 9.12167 10.1079 8.89967 10.1064C7.62953 10.0981 6.59903 9.07722 6.59903 7.80833C6.59903 6.98518 7.03604 6.26852 7.68781 5.86173C8.60434 5.22749 10.714 4.10539 10.714 4.10539C10.714 4.10539 10.0713 3.291 8.66341 3.291C7.25596 3.291 4.31537 5.21742 4.31537 5.21742C4.31537 5.21742 3.48117 5.75174 2.29201 5.27046L0 4.47232V12.4392C0 12.4392 0.654468 12.6287 1.24253 12.8689C1.37534 12.4901 1.58965 12.1403 1.88693 11.8514C2.86253 10.9222 4.4796 10.9125 5.36722 11.8265C5.63461 12.1044 5.82121 12.4358 5.91644 12.8022C6.27409 12.9126 6.59805 13.1081 6.85839 13.3764C7.12657 13.6523 7.31248 13.9856 7.40849 14.3501C7.76573 14.4606 8.08923 14.6569 8.35045 14.9253C8.64462 15.2287 8.84059 15.5951 8.93211 15.9921C9.30554 16.1009 9.643 16.3033 9.91481 16.5812C10.4482 17.1291 10.6376 17.8725 10.5229 18.5895C10.5238 18.5895 10.5256 18.5895 10.5264 18.5912C10.5351 18.6026 10.8569 18.9613 11.0576 19.1636C11.4508 19.5573 12.0929 19.5573 12.4874 19.1636C12.8792 18.7702 12.881 18.1293 12.4874 17.7338C12.4733 17.7198 11.0687 16.2505 11.1817 16.1366C11.2939 16.0235 13.0835 17.8856 13.1168 17.9196C13.5095 18.3125 14.1512 18.3125 14.5457 17.9196C14.9393 17.5261 14.9385 16.8853 14.5457 16.4907C14.5264 16.4723 14.4459 16.3952 14.416 16.3645C14.416 16.3645 12.6417 14.7839 12.7767 14.6488C12.9134 14.5129 15.1174 16.5697 15.1209 16.5697C15.5171 16.9264 16.1274 16.9238 16.5085 16.5425C16.8793 16.1717 16.8873 15.5852 16.5585 15.1899C16.5516 15.1689 14.8789 13.4209 15.0094 13.2893C15.1419 13.1561 16.797 14.8603 16.8004 14.8639C17.1923 15.2566 17.8349 15.2566 18.2294 14.8639C18.6221 14.4711 18.6221 13.8294 18.2294 13.4332C18.224 13.4298 18.217 13.4263 18.2118 13.4228Z"
    fill="#CCCCCC"
  />
</svg>
