<svg width="15" height="15" viewBox="0 0 15 15" fill="none" xmlns="http://www.w3.org/2000/svg">
<path fill-rule="evenodd" clip-rule="evenodd" d="M7.20068 0C5.24525 0 4.99985 0.00855009 4.23184 0.0435005C3.46534 0.0786008 2.94213 0.199952 2.48433 0.378004C2.01077 0.561906 1.60907 0.807908 1.20886 1.20826C0.808358 1.60847 0.562356 2.01017 0.377854 2.48358C0.199352 2.94153 0.0778508 3.46489 0.0433504 4.23109C0.00900009 4.9991 0 5.24465 0 7.20008C0 9.1555 0.00870007 9.40015 0.0435005 10.1682C0.0787508 10.9347 0.200102 11.4579 0.378004 11.9157C0.562056 12.3892 0.808058 12.7909 1.20841 13.1911C1.60847 13.5916 2.01017 13.8382 2.48343 14.0221C2.94153 14.2002 3.46489 14.3215 4.23124 14.3566C4.99925 14.3916 5.2445 14.4002 7.19977 14.4002C9.15534 14.4002 9.4 14.3916 10.168 14.3566C10.9345 14.3215 11.4583 14.2002 11.9164 14.0221C12.3898 13.8382 12.7909 13.5916 13.191 13.1911C13.5915 12.7909 13.8375 12.3892 14.022 11.9158C14.199 11.4579 14.3205 10.9345 14.3565 10.1683C14.391 9.4003 14.4 9.1555 14.4 7.20008C14.4 5.24465 14.391 4.99925 14.3565 4.23124C14.3205 3.46474 14.199 2.94153 14.022 2.48373C13.8375 2.01017 13.5915 1.60847 13.191 1.20826C12.7905 0.807758 12.39 0.561756 11.916 0.378004C11.457 0.199952 10.9335 0.0786008 10.167 0.0435005C9.39895 0.00855009 9.15445 0 7.19843 0H7.20068ZM6.96066 1.29744H6.9607L7.20067 1.29751C9.1231 1.29751 9.35095 1.30441 10.1101 1.33891C10.8121 1.37101 11.1931 1.48831 11.4469 1.58687C11.7829 1.71737 12.0225 1.87337 12.2743 2.12537C12.5263 2.37737 12.6823 2.61738 12.8131 2.95338C12.9117 3.20688 13.0291 3.58789 13.0611 4.28989C13.0956 5.0489 13.1031 5.2769 13.1031 7.19842C13.1031 9.11994 13.0956 9.34795 13.0611 10.107C13.029 10.809 12.9117 11.19 12.8131 11.4435C12.6826 11.7795 12.5263 12.0187 12.2743 12.2706C12.0223 12.5226 11.7831 12.6786 11.4469 12.8091C11.1934 12.9081 10.8121 13.0251 10.1101 13.0572C9.3511 13.0917 9.1231 13.0992 7.20067 13.0992C5.2781 13.0992 5.05025 13.0917 4.29124 13.0572C3.58924 13.0248 3.20823 12.9075 2.95428 12.8089C2.61828 12.6784 2.37827 12.5224 2.12627 12.2704C1.87427 12.0184 1.71827 11.779 1.58747 11.4429C1.48891 11.1894 1.37146 10.8084 1.33951 10.1064C1.30501 9.34735 1.29811 9.11934 1.29811 7.19662C1.29811 5.2739 1.30501 5.0471 1.33951 4.28809C1.37161 3.58609 1.48891 3.20508 1.58747 2.95128C1.71797 2.61528 1.87427 2.37527 2.12627 2.12327C2.37827 1.87127 2.61828 1.71527 2.95428 1.58447C3.20808 1.48546 3.58924 1.36846 4.29124 1.33621C4.95545 1.30621 5.21285 1.29721 6.55477 1.29571V1.29751C6.68015 1.29732 6.81503 1.29738 6.96058 1.29744H6.96062H6.96066ZM10.18 3.35673C10.18 2.87957 10.567 2.49302 11.044 2.49302V2.49272C11.521 2.49272 11.908 2.87972 11.908 3.35673C11.908 3.83373 11.521 4.22074 11.044 4.22074C10.567 4.22074 10.18 3.83373 10.18 3.35673ZM7.20053 3.50255C5.15863 3.50263 3.50314 5.15816 3.50314 7.20008C3.50314 9.24205 5.15871 10.8969 7.20068 10.8969C9.24265 10.8969 10.8976 9.24205 10.8976 7.20008C10.8976 5.15811 9.2425 3.50255 7.20053 3.50255ZM9.6007 7.20007C9.6007 5.87451 8.52609 4.80005 7.20067 4.80005C5.87511 4.80005 4.80065 5.87451 4.80065 7.20007C4.80065 8.52549 5.87511 9.6001 7.20067 9.6001C8.52609 9.6001 9.6007 8.52549 9.6007 7.20007Z" fill="white"/>
</svg>
