<svg
  width="21"
  height="21"
  viewBox="0 0 21 21"
  xmlns="http://www.w3.org/2000/svg"
>
  <path
    d="M3.10957 0H1.86101L0.259277 1.49575L1.09539 2.39094C1.42517 2.10048 1.62149 1.88827 1.68436 1.75494H1.70792V1.89632C1.70792 2.21038 1.70585 2.68532 1.70198 3.3214C1.69802 3.9574 1.69604 4.43635 1.69604 4.75829H0.435758V5.92434H4.38144V4.75829H3.10957V0Z"
  />
  <path
    d="M20.853 3.02104C20.7781 2.94642 20.69 2.90916 20.5878 2.90916H6.26584C6.16378 2.90916 6.07562 2.94642 6.00087 3.02104C5.92641 3.09567 5.88916 3.18395 5.88916 3.28605V5.54742C5.88916 5.64952 5.92629 5.7378 6.00087 5.81243C6.07562 5.88697 6.16378 5.9243 6.26584 5.9243H20.5879C20.6901 5.9243 20.7784 5.88697 20.853 5.81243C20.9276 5.7378 20.9647 5.64952 20.9647 5.54742V3.28605C20.9649 3.18399 20.9276 3.09567 20.853 3.02104Z"
  />
  <path
    d="M3.03896 17.3607L4.15786 16.0062V14.9697H0.235733V16.7599H1.48413V16.1357C1.60979 16.1357 1.80017 16.1321 2.05549 16.1243C2.31051 16.1162 2.50102 16.1124 2.62667 16.1124V16.1243C2.4773 16.2656 2.33217 16.4166 2.1908 16.5777C2.04942 16.7388 1.88259 16.9507 1.69019 17.2134C1.49791 17.4765 1.37044 17.6474 1.30757 17.7259L1.61371 18.3854C2.43815 18.3225 2.85043 18.5423 2.85043 19.045C2.85043 19.2648 2.76603 19.4316 2.59718 19.5453C2.42849 19.6594 2.23015 19.7163 2.00243 19.7163C1.55492 19.7163 1.13872 19.5397 0.754036 19.1862L0.0825195 20.2227C0.60074 20.7409 1.27601 21 2.10841 21C2.74437 21 3.27629 20.8196 3.70441 20.4583C4.13233 20.097 4.34626 19.6023 4.34626 18.9743C4.34626 18.5737 4.22832 18.2283 3.99306 17.9376C3.75742 17.6474 3.43956 17.4548 3.03896 17.3607Z"
  />
  <path
    d="M3.13292 12.2961H1.63709C1.64505 12.0997 1.7844 11.8936 2.05531 11.6779C2.32622 11.4621 2.62242 11.2639 2.94452 11.0832C3.26633 10.9025 3.5608 10.6495 3.82783 10.3236C4.09482 9.99774 4.22827 9.63851 4.22827 9.24591C4.22827 8.68837 4.03203 8.24668 3.63947 7.92082C3.24699 7.595 2.76396 7.43201 2.19079 7.43201C1.73527 7.43201 1.32105 7.54389 0.948082 7.76773C0.575154 7.99149 0.29451 8.30365 0.106026 8.70422L1.10724 9.39908C1.3821 8.94357 1.70008 8.71593 2.06121 8.71593C2.25766 8.71593 2.41269 8.76894 2.52659 8.87492C2.64032 8.98111 2.69741 9.13213 2.69741 9.32846C2.69741 9.50902 2.60509 9.68571 2.42057 9.85843C2.23596 10.0312 2.01418 10.2019 1.75499 10.3708C1.49592 10.5396 1.23673 10.7261 0.977701 10.9303C0.718632 11.1344 0.49665 11.4013 0.312125 11.731C0.127683 12.0608 0.0354004 12.426 0.0354004 12.8264C0.0354004 12.9677 0.0589558 13.1798 0.105984 13.4624H4.3696V11.5894V11.5893H3.13292V12.2961Z"
  />
  <path
    d="M20.5878 14.9697H6.26584C6.15598 14.9697 6.06564 15.0051 5.9951 15.0757C5.92443 15.1463 5.88916 15.2366 5.88916 15.3465V17.6079C5.88916 17.71 5.92629 17.7984 6.00087 17.8729C6.07562 17.9475 6.16378 17.9847 6.26584 17.9847H20.5879C20.6901 17.9847 20.7784 17.9478 20.853 17.8729C20.9276 17.7984 20.9647 17.71 20.9647 17.6079V15.3465C20.9647 15.2446 20.9273 15.1562 20.853 15.0817C20.7782 15.0071 20.69 14.9697 20.5878 14.9697Z"
  />
  <path
    d="M20.5878 8.93944H6.26584C6.15598 8.93944 6.06564 8.97471 5.9951 9.04538C5.92443 9.11604 5.88916 9.20639 5.88916 9.31628V11.5777C5.88916 11.6798 5.92629 11.768 6.00087 11.8427C6.07562 11.9174 6.16378 11.9547 6.26584 11.9547H20.5879C20.6901 11.9547 20.7784 11.9174 20.853 11.8427C20.9276 11.768 20.9647 11.6798 20.9647 11.5777V9.31628C20.9647 9.21422 20.9273 9.1259 20.853 9.05132C20.7782 8.97673 20.69 8.93944 20.5878 8.93944Z"
  />
</svg>
