<svg width="20" height="24" viewBox="0 0 20 24" fill="none" xmlns="http://www.w3.org/2000/svg">
<path fill-rule="evenodd" clip-rule="evenodd" d="M10 6C7.79086 6 6 7.79086 6 10C6 12.2091 7.79086 14 10 14C12.2091 14 14 12.2091 14 10C14 7.79086 12.2091 6 10 6ZM8 10C8 8.89543 8.89543 8 10 8C11.1046 8 12 8.89543 12 10C12 11.1046 11.1046 12 10 12C8.89543 12 8 11.1046 8 10Z" fill="#039BE5"/>
<path fill-rule="evenodd" clip-rule="evenodd" d="M10 0C4.49846 0 0 4.36654 0 9.8C0 13.4667 2.19629 16.999 4.36628 19.5264C5.46827 20.8099 6.60528 21.8831 7.54221 22.6425C8.00938 23.0211 8.44007 23.3326 8.80237 23.5554C8.98237 23.666 9.16181 23.765 9.33139 23.8396C9.46886 23.9001 9.71874 24 10 24C10.2813 24 10.5311 23.9001 10.6686 23.8396C10.8382 23.765 11.0176 23.666 11.1976 23.5554C11.5599 23.3326 11.9906 23.0211 12.4578 22.6425C13.3947 21.8831 14.5317 20.8099 15.6337 19.5264C17.8037 16.999 20 13.4667 20 9.8C20 4.36654 15.5015 0 10 0ZM2 9.8C2 5.51325 5.56042 2 10 2C14.4396 2 18 5.51325 18 9.8C18 12.7333 16.1963 15.801 14.1163 18.2236C13.0933 19.4151 12.0428 20.4044 11.1985 21.0888C10.775 21.432 10.4166 21.6877 10.15 21.8517C10.093 21.8868 10.043 21.9158 10 21.9396C9.957 21.9158 9.90704 21.8868 9.84997 21.8517C9.58337 21.6877 9.225 21.432 8.80154 21.0888C7.95722 20.4044 6.90673 19.4151 5.88372 18.2236C3.80371 15.801 2 12.7333 2 9.8Z" fill="#039BE5"/>
</svg>
