<svg
  width="25"
  height="25"
  viewBox="0 0 25 25"
  xmlns="http://www.w3.org/2000/svg"
>
  <path
    d="M16.1068 8.0653C17.3086 8.0653 18.2864 7.08749 18.2864 5.88568C18.2864 4.68377 17.3086 3.70596 16.1068 3.70596C14.9053 3.70596 13.9277 4.68382 13.9277 5.88568C13.9278 7.08749 14.9053 8.0653 16.1068 8.0653Z"
  />
  <path
    d="M24.8611 13.5034L23.2896 11.9319C23.1999 11.8422 23.0803 11.7928 22.9528 11.7928C22.8253 11.7928 22.7057 11.8422 22.616 11.9319L22.1564 12.3915C22.1375 12.3694 22.118 12.3479 22.0973 12.3271C21.8866 12.1164 21.6023 12.0003 21.2969 12.0002L20.552 10.9845C20.3537 10.7141 20.019 10.3376 19.7732 10.1087L18.2379 8.67901C18.1278 8.57642 17.9085 8.43164 17.6549 8.43164C17.6549 8.43164 14.9793 8.43164 14.9649 8.43164C14.6128 8.43164 14.2965 8.62717 14.1392 8.94188L13.0181 11.185C12.9355 11.3502 12.7302 11.6444 12.6036 11.7788L11.8103 12.6216C11.6414 12.801 11.5525 13.0355 11.56 13.2817C11.5674 13.528 11.6704 13.7566 11.8497 13.9254C12.0215 14.0871 12.2459 14.1761 12.4818 14.1761C12.7351 14.1761 12.98 14.0704 13.1535 13.886L13.9468 13.0432C14.1956 12.7789 14.5057 12.3346 14.6681 12.0097L14.8349 11.676C14.8349 11.676 15.0684 12.9967 15.1347 13.4373C15.138 13.4592 15.139 13.4858 15.1385 13.4919L14.8797 16.3962C14.8518 16.7101 14.8385 17.2024 14.8495 17.517L14.9529 20.4774C14.9713 21.0038 15.3979 21.416 15.9242 21.416C15.9356 21.416 15.9471 21.4158 15.9587 21.4154C16.4946 21.3966 16.9154 20.9454 16.8967 20.4095L16.7933 17.4491C16.7851 17.2141 16.7962 16.8028 16.8171 16.5688L16.9906 14.6218H17.3566L17.8906 16.8527C17.9687 17.1785 18.1284 17.6556 18.2623 17.9624L19.3873 20.5415C19.542 20.8962 19.8921 21.1254 20.2791 21.1254C20.2879 21.1254 20.2968 21.1253 20.3056 21.125C20.4303 21.1216 20.5521 21.0944 20.6675 21.0441C20.9056 20.9402 21.089 20.7498 21.1839 20.5081C21.2788 20.2662 21.2739 20.002 21.17 19.7639L20.045 17.1847C19.9565 16.9818 19.8337 16.6152 19.7822 16.3999L18.8025 11.7574C18.9029 11.8703 18.9994 11.9866 19.0644 12.0753L19.813 13.0961C19.878 13.1847 19.9578 13.26 20.0477 13.3193C20.0633 13.5988 20.1764 13.8558 20.3726 14.0519C20.3933 14.0726 20.4149 14.0921 20.4369 14.1109L19.9772 14.5705C19.8875 14.6602 19.8381 14.7798 19.8381 14.9073C19.8381 15.0349 19.8875 15.1544 19.9772 15.2441L21.5488 16.8157C21.6385 16.9054 21.7581 16.9548 21.8856 16.9548C22.0131 16.9548 22.1327 16.9054 22.2224 16.8157L24.8611 14.1769C24.9508 14.0872 25.0002 13.9676 25.0002 13.8401C25.0002 13.7126 24.9507 13.5931 24.8611 13.5034ZM20.7727 13.6518C20.7198 13.5989 20.6794 13.5364 20.6522 13.4676C20.8146 13.451 20.9687 13.3923 21.1022 13.2944C21.3009 13.1487 21.4309 12.9344 21.4684 12.6908C21.4733 12.6587 21.4763 12.6266 21.4779 12.5946C21.5607 12.6212 21.6357 12.6659 21.6972 12.7273C21.718 12.7482 21.7363 12.7709 21.7533 12.7945L20.8399 13.7079C20.8162 13.6909 20.7935 13.6726 20.7727 13.6518Z"
  />
  <path
    d="M11.1438 15.6814H10.6547V5.35714C10.6547 5.09688 10.443 4.88515 10.1827 4.88515H8.90067V4.05588C8.90067 3.79562 8.68894 3.58389 8.42869 3.58389H3.16665C2.9064 3.58389 2.69467 3.79562 2.69467 4.05588V4.88515H1.41263C1.15238 4.88515 0.940646 5.09688 0.940646 5.35714V15.6814H0.451499C0.202559 15.6814 0 15.884 0 16.1329V17.6811C0 17.93 0.202559 18.1326 0.451499 18.1326H11.1438C11.3928 18.1326 11.5953 17.93 11.5953 17.6811V16.1329C11.5953 15.8839 11.3928 15.6814 11.1438 15.6814ZM3.99829 13.7374C3.99829 13.8095 3.93933 13.8685 3.86727 13.8685H2.15307C2.08101 13.8685 2.02205 13.8095 2.02205 13.7374V12.0232C2.02205 11.9512 2.08101 11.8922 2.15307 11.8922H3.86727C3.93933 11.8922 3.99829 11.9512 3.99829 12.0232V13.7374ZM3.99829 11.0006C3.99829 11.0726 3.93933 11.1316 3.86727 11.1316H2.15307C2.08101 11.1316 2.02205 11.0726 2.02205 11.0006V9.28638C2.02205 9.21432 2.08101 9.15536 2.15307 9.15536H3.86727C3.93933 9.15536 3.99829 9.21432 3.99829 9.28638V11.0006ZM3.99829 8.23458C3.99829 8.30664 3.93933 8.3656 3.86727 8.3656H2.15307C2.08101 8.3656 2.02205 8.30664 2.02205 8.23458V6.52039C2.02205 6.44833 2.08101 6.38937 2.15307 6.38937H3.86727C3.93933 6.38937 3.99829 6.44833 3.99829 6.52039V8.23458ZM6.78577 16.0522C6.78577 16.1242 6.72681 16.1832 6.65475 16.1832H4.94055C4.86849 16.1832 4.80953 16.1242 4.80953 16.0522V12.0232C4.80953 11.9512 4.86849 11.8922 4.94055 11.8922H6.65475C6.72681 11.8922 6.78577 11.9512 6.78577 12.0232V16.0522ZM6.78577 11.0006C6.78577 11.0726 6.72681 11.1316 6.65475 11.1316H4.94055C4.86849 11.1316 4.80953 11.0726 4.80953 11.0006V9.28638C4.80953 9.21432 4.86849 9.15536 4.94055 9.15536H6.65475C6.72681 9.15536 6.78577 9.21432 6.78577 9.28638V11.0006ZM6.78577 8.23458C6.78577 8.30664 6.72681 8.3656 6.65475 8.3656H4.94055C4.86849 8.3656 4.80953 8.30664 4.80953 8.23458V6.52039C4.80953 6.44833 4.86849 6.38937 4.94055 6.38937H6.65475C6.72681 6.38937 6.78577 6.44833 6.78577 6.52039V8.23458ZM9.58089 13.7374C9.58089 13.8095 9.52193 13.8685 9.44987 13.8685H7.73567C7.66361 13.8685 7.60465 13.8095 7.60465 13.7374V12.0232C7.60465 11.9512 7.66361 11.8922 7.73567 11.8922H9.44987C9.52193 11.8922 9.58089 11.9512 9.58089 12.0232V13.7374ZM9.58089 11.0006C9.58089 11.0726 9.52193 11.1316 9.44987 11.1316H7.73567C7.66361 11.1316 7.60465 11.0726 7.60465 11.0006V9.28638C7.60465 9.21432 7.66361 9.15536 7.73567 9.15536H9.44987C9.52193 9.15536 9.58089 9.21432 9.58089 9.28638V11.0006ZM9.58089 8.23458C9.58089 8.30664 9.52193 8.3656 9.44987 8.3656H7.73567C7.66361 8.3656 7.60465 8.30664 7.60465 8.23458V6.52039C7.60465 6.44833 7.66361 6.38937 7.73567 6.38937H9.44987C9.52193 6.38937 9.58089 6.44833 9.58089 6.52039V8.23458Z"
  />
</svg>
