<svg
  width="12"
  height="12"
  viewBox="0 0 12 12"
  xmlns="http://www.w3.org/2000/svg"
>
  <g clip-path="url(#clip0)">
    <path
      d="M11.0625 7.42969V10.5938C11.0625 10.8522 10.8522 11.0625 10.5938 11.0625H7.33594V12H10.5938C11.3692 12 12 11.3692 12 10.5938V7.42969H11.0625Z"
    />
    <path
      d="M10.5938 0H7.33594V0.9375H10.5938C10.8522 0.9375 11.0625 1.14778 11.0625 1.40625V4.61719H12V1.40625C12 0.630844 11.3692 0 10.5938 0Z"
    />
    <path
      d="M6.74525 6.51384L10.2073 6.51384L8.94505 7.77613L9.60795 8.43904L12.0001 6.04696L9.60983 3.62957L8.94317 4.28873L10.2163 5.57634H6.74525L6.74525 6.51384Z"
    />
    <path
      d="M1.40625 11.0625C1.14778 11.0625 0.9375 10.8522 0.9375 10.5938V7.42969H0V10.5938C0 11.3692 0.630844 12 1.40625 12H4.66406V11.0625H1.40625Z"
    />
    <path
      d="M1.40625 0C0.630844 0 0 0.630844 0 1.40625V4.61719H0.9375V1.40625C0.9375 1.14778 1.14778 0.9375 1.40625 0.9375H4.66406V0H1.40625Z"
    />
    <path
      d="M2.3921 8.43904L3.05501 7.77614L1.79271 6.51384H5.25481V5.57634H1.78374L3.05688 4.28873L2.39023 3.62957L1.78814e-06 6.04696L2.3921 8.43904Z"
    />
  </g>
  <defs>
    <clipPath id="clip0">
      <rect
        width="12"
        height="12"
      />
    </clipPath>
  </defs>
</svg>
