<svg
  width="14"
  height="14"
  viewBox="0 0 14 14"
  xmlns="http://www.w3.org/2000/svg"
>
  <path
    d="M11.89 5.41179C12.2896 5.13562 12.5521 4.67452 12.5521 4.15311V3.58269V3.01262C12.5521 2.1694 11.8661 1.4834 11.0229 1.4834C10.1797 1.4834 9.49367 2.16943 9.49367 3.01262V3.58285V4.15311C9.49367 4.67455 9.75617 5.13565 10.1558 5.41179C9.48596 5.623 8.90955 6.05896 8.52925 6.62003V6.27752C8.52925 5.4343 7.84323 4.7483 7 4.7483C6.15677 4.7483 5.47077 5.43432 5.47077 6.27752V6.62003C5.09048 6.05899 4.51404 5.623 3.84418 5.41179C4.24383 5.13562 4.50633 4.67452 4.50633 4.15311V3.01265C4.50633 2.16943 3.82033 1.48343 2.97708 1.48343C2.2129 1.48343 1.57784 2.04684 1.46549 2.78009C1.45387 2.85594 1.44785 2.9336 1.44785 3.01265V4.15311C1.44785 4.67455 1.71038 5.13565 2.11001 5.41179C0.903629 5.79212 0 6.90156 0 8.15746V9.04777C0 9.16043 0.0913281 9.25173 0.203957 9.25173H1.31187C1.4245 9.25173 1.51583 9.16043 1.51583 9.04777C1.51583 8.93514 1.4245 8.84382 1.31187 8.84382H0.407914V8.15746C0.407914 7.51365 0.682938 6.89784 1.18229 6.42337C1.47355 6.14666 1.82468 5.93923 2.19956 5.81457L2.44325 6.288L2.09087 7.81755C2.07435 7.88919 2.0977 7.96419 2.15193 8.0138L2.83938 8.64298C2.87834 8.67863 2.9277 8.69649 2.97705 8.69649C3.02641 8.69649 3.07576 8.67866 3.11473 8.64298L3.80215 8.0138C3.85637 7.96417 3.8797 7.88919 3.86321 7.81755L3.51086 6.28802L3.75454 5.81457C4.12943 5.93923 4.48055 6.14663 4.77184 6.42337C5.13836 6.7716 5.38379 7.19603 5.48857 7.65174C5.49511 7.69415 5.50375 7.73585 5.5137 7.77703C5.53514 7.90215 5.54619 8.02922 5.54619 8.15746V8.84382H1.99169C1.87906 8.84382 1.78773 8.93514 1.78773 9.04777C1.78773 9.16043 1.87906 9.25173 1.99169 9.25173H5.08154C4.43825 9.78701 4.02289 10.571 4.02289 11.4223V12.3126C4.02289 12.4252 4.11422 12.5165 4.22685 12.5165H5.33477C5.44739 12.5165 5.53872 12.4252 5.53872 12.3126C5.53872 12.1999 5.44739 12.1086 5.33477 12.1086H4.43084V11.4223C4.43084 10.7785 4.70586 10.1627 5.20521 9.68819C5.49648 9.41147 5.8476 9.20404 6.22248 9.07938L6.46617 9.55284L6.11382 11.0824C6.0973 11.154 6.12065 11.229 6.17488 11.2786L6.86232 11.9078C6.90129 11.9435 6.95064 11.9613 7 11.9613C7.04936 11.9613 7.09874 11.9435 7.1377 11.9078L7.82512 11.2786C7.87935 11.229 7.90267 11.154 7.88618 11.0824L7.53383 9.55284L7.77752 9.07938C8.1524 9.20404 8.50352 9.41144 8.79479 9.68819C9.29414 10.1626 9.56916 10.7785 9.56916 11.4223V12.1086H6.01461C5.90198 12.1086 5.81066 12.1999 5.81066 12.3126C5.81066 12.4252 5.90198 12.5165 6.01461 12.5165H9.77312C9.88575 12.5165 9.97708 12.4252 9.97708 12.3126V11.4223C9.97708 10.5709 9.56173 9.78698 8.91846 9.25173H9.96152C10.0741 9.25173 10.1655 9.16043 10.1655 9.04777C10.1655 8.93514 10.0741 8.84382 9.96152 8.84382H8.45378V8.15743C8.45378 8.02914 8.46489 7.90199 8.48632 7.77681C8.49622 7.73576 8.50484 7.69423 8.51134 7.65198C8.61607 7.19616 8.86156 6.77165 9.22813 6.42335C9.51943 6.14663 9.87055 5.9392 10.2454 5.81454L10.4891 6.28797L10.1368 7.81755C10.1202 7.88919 10.1436 7.96417 10.1978 8.0138L10.8852 8.64298C10.9242 8.67869 10.9736 8.69649 11.0229 8.69649C11.0723 8.69649 11.1217 8.67866 11.1606 8.64298L11.848 8.0138C11.9023 7.96419 11.9256 7.88919 11.9091 7.81755L11.5568 6.288L11.8004 5.81457C12.1753 5.93923 12.5264 6.14666 12.8177 6.42337C13.3171 6.89782 13.5921 7.51365 13.5921 8.15746V8.84382H10.6414C10.5288 8.84382 10.4374 8.93514 10.4374 9.04777C10.4374 9.16043 10.5288 9.25173 10.6414 9.25173H13.796C13.9087 9.25173 14 9.16043 14 9.04777V8.15746C14 6.90156 13.0964 5.79212 11.89 5.41179ZM1.85574 3.01262C1.85574 2.39433 2.35875 1.89131 2.97708 1.89131C3.5954 1.89131 4.09842 2.39433 4.09842 3.01262V3.35382C3.62608 3.23731 3.4317 2.75108 3.42286 2.72841C3.39459 2.65374 3.32533 2.60244 3.24565 2.59716C3.16597 2.592 3.09055 2.63356 3.05266 2.70383C3.04929 2.71012 2.72642 3.28934 1.85574 3.36965V3.01262ZM2.97711 8.216L2.51513 7.79319L2.82111 6.46499H3.1331L3.43908 7.79319L2.97711 8.216ZM2.60624 5.71337C2.64603 5.70683 2.68595 5.70128 2.72595 5.69666C2.73161 5.696 2.73727 5.69546 2.74293 5.69483C2.77465 5.69138 2.80637 5.68862 2.83814 5.68638C2.84695 5.68575 2.85575 5.68504 2.86459 5.68452C2.89064 5.68293 2.9167 5.68214 2.94273 5.68143C2.95419 5.68168 2.96554 5.6823 2.97705 5.6823C2.98856 5.6823 2.99991 5.68168 3.01137 5.68143C3.03743 5.68217 3.06348 5.68296 3.08949 5.68452C3.09832 5.68504 3.10713 5.68578 3.11598 5.68638C3.14776 5.68865 3.17945 5.69138 3.21114 5.69483C3.21683 5.69543 3.22252 5.696 3.2282 5.69666C3.26818 5.70128 3.30807 5.70683 3.34786 5.71337L3.171 6.05705H2.78316L2.60624 5.71337ZM3.02173 5.27327C3.00781 5.27289 2.99389 5.27237 2.97989 5.27218C2.97803 5.27212 2.9762 5.27212 2.97434 5.27218H2.97432C2.96034 5.27237 2.94645 5.27289 2.93248 5.27327C2.33477 5.24973 1.85574 4.75642 1.85574 4.15308V3.77899C2.54978 3.7261 2.97618 3.40979 3.20321 3.17075C3.36224 3.40348 3.64738 3.6986 4.09842 3.77038V4.15308C4.09844 4.75642 3.61941 5.24973 3.02173 5.27327ZM5.87863 6.2775C5.87866 5.6592 6.3817 5.15618 7 5.15618C7.11594 5.15618 7.2278 5.17385 7.33307 5.20669C7.78922 5.34887 8.12131 5.77514 8.12131 6.27752V6.61872C7.649 6.50221 7.45459 6.01601 7.44579 5.99331C7.41751 5.91866 7.34825 5.86737 7.26857 5.86209C7.18897 5.85709 7.11348 5.89848 7.07558 5.96876C7.07219 5.97505 6.74934 6.55427 5.87866 6.63458V6.2775H5.87863ZM5.95416 8.73925V8.53215C6.01002 8.5846 6.06968 8.63297 6.1329 8.67664C6.07255 8.69567 6.01297 8.71664 5.95416 8.73925ZM7 11.4809L6.53803 11.058L6.84403 9.72983H7.15602L7.462 11.058L7 11.4809ZM6.62922 8.97824C6.669 8.9717 6.70893 8.96615 6.74893 8.96153C6.75459 8.96087 6.76025 8.96033 6.76591 8.9597C6.79763 8.95625 6.82935 8.95349 6.86112 8.95125C6.86993 8.95062 6.87873 8.94991 6.88756 8.94939C6.91362 8.9478 6.93968 8.94704 6.96571 8.9463C6.97717 8.94655 6.98852 8.94717 7.00003 8.94717C7.01154 8.94717 7.02289 8.94655 7.03434 8.9463C7.0604 8.94706 7.08646 8.94783 7.11246 8.94939C7.12127 8.94991 7.1301 8.95065 7.13893 8.95125C7.17071 8.95352 7.20243 8.95625 7.23409 8.9597C7.23978 8.9603 7.24546 8.96087 7.25115 8.96153C7.29113 8.96618 7.33105 8.9717 7.37081 8.97824L7.19392 9.32195H6.80611L6.62922 8.97824ZM8.04584 8.73925C7.98705 8.71661 7.9275 8.69567 7.8671 8.67664C7.93032 8.63297 7.98998 8.58457 8.04584 8.53212V8.73925ZM8.12134 7.41795C8.12134 7.47551 8.11696 7.53205 8.10857 7.58732C8.10141 7.61958 8.09501 7.65207 8.08905 7.68466C7.9724 8.16063 7.55128 8.51815 7.04465 8.53811C7.03071 8.53773 7.01682 8.53721 7.00282 8.53702C7.00096 8.53696 6.99913 8.53696 6.99727 8.53702C6.98329 8.53721 6.96937 8.53773 6.95543 8.53811C6.44891 8.51818 6.02779 8.1608 5.91109 7.68491C5.9051 7.65217 5.89868 7.61955 5.89148 7.58718C5.88309 7.53194 5.87871 7.47542 5.87871 7.41792V7.04386C6.57275 6.99098 6.99915 6.67466 7.22619 6.43562C7.38522 6.66832 7.67036 6.96344 8.12137 7.03525V7.41795H8.12134ZM9.90158 3.01262C9.90158 2.39433 10.4046 1.89131 11.0229 1.89131C11.6412 1.89131 12.1442 2.39433 12.1442 3.01262V3.35382C11.6719 3.23728 11.4775 2.75108 11.4687 2.72841C11.4404 2.65377 11.3712 2.60247 11.2915 2.59719C11.2117 2.59202 11.1364 2.63359 11.0985 2.70386C11.0951 2.71015 10.7723 3.28937 9.90161 3.36968V3.01262H9.90158ZM11.0229 8.216L10.5609 7.79319L10.8669 6.46499H11.1789L11.4849 7.79319L11.0229 8.216ZM10.6521 5.71337C10.6919 5.70683 10.7318 5.70128 10.7718 5.69666C10.7775 5.696 10.7831 5.69543 10.7888 5.69483C10.8205 5.69138 10.8522 5.68862 10.884 5.68638C10.8928 5.68575 10.9016 5.68504 10.9105 5.68452C10.9365 5.68293 10.9626 5.68217 10.9886 5.68143C11.0001 5.68168 11.0114 5.6823 11.0229 5.6823C11.0344 5.6823 11.0458 5.68168 11.0572 5.68143C11.0833 5.68217 11.1094 5.68296 11.1354 5.68452C11.1442 5.68504 11.153 5.68578 11.1619 5.68638C11.1936 5.68865 11.2254 5.69138 11.2571 5.69483C11.2627 5.69543 11.2684 5.696 11.274 5.69666C11.3141 5.70131 11.3539 5.70683 11.3938 5.71337L11.2169 6.05705H10.8291L10.6521 5.71337ZM11.0675 5.27327C11.0536 5.27289 11.0397 5.27237 11.0257 5.27218C11.0238 5.27212 11.022 5.27212 11.0201 5.27218H11.0201C11.0061 5.27237 10.9922 5.27289 10.9782 5.27327C10.3806 5.24973 9.90156 4.75642 9.90156 4.15308V3.77899C10.5956 3.7261 11.022 3.40979 11.249 3.17075C11.408 3.40348 11.6932 3.6986 12.1442 3.77038V4.15308C12.1442 4.75642 11.6652 5.24973 11.0675 5.27327Z"
  />
</svg>
