<svg
  width="20"
  height="20"
  viewBox="0 0 20 20"
  xmlns="http://www.w3.org/2000/svg"
>
  <path
    d="M19.6664 14.9992H16.6294C16.2671 14.9989 15.9099 14.9146 15.5857 14.7529L15.3787 14.6492C14.9618 14.4416 14.5025 14.3332 14.0367 14.3326H9.99972C9.83772 14.3316 9.68167 14.2714 9.56105 14.1632C9.53412 14.1406 9.50894 14.116 9.48572 14.0896C9.38897 13.9719 9.33513 13.8249 9.33305 13.6726C9.33389 13.5894 9.3513 13.5072 9.38426 13.4308C9.41723 13.3543 9.46509 13.2853 9.52505 13.2276C9.66642 13.0835 9.85919 13.0014 10.061 12.9992H13.6664C13.797 13.0002 13.9265 12.9749 14.0471 12.9249C14.1678 12.8748 14.2771 12.8011 14.3687 12.7079C14.4738 12.6055 14.5546 12.4809 14.6054 12.3433C14.6562 12.2056 14.6757 12.0584 14.6624 11.9123C14.6424 11.7179 14.5663 11.5337 14.4432 11.382C14.3201 11.2303 14.1554 11.1178 13.9694 11.0583L15.1584 8.99928H15.7294C15.9738 8.99897 16.2153 9.05259 16.4366 9.1563C16.6579 9.26001 16.8536 9.41126 17.0097 9.59927L17.4764 10.1599C17.6952 10.4231 17.9694 10.6348 18.2795 10.7799C18.5895 10.925 18.9278 10.9999 19.2701 10.9993H19.6664C19.7548 10.9993 19.8396 10.9641 19.9021 10.9016C19.9646 10.8391 19.9997 10.7543 19.9997 10.6659C19.9997 10.5775 19.9646 10.4927 19.9021 10.4302C19.8396 10.3677 19.7548 10.3326 19.6664 10.3326H19.2701C19.0257 10.3329 18.7842 10.2793 18.5629 10.1756C18.3416 10.0719 18.1459 9.92062 17.9897 9.7326L17.5231 9.17194C17.3042 8.90873 17.03 8.69703 16.72 8.55195C16.4099 8.40687 16.0717 8.33198 15.7294 8.33261H15.5431L17.5204 4.90764C17.6093 4.75595 17.6674 4.58816 17.6912 4.41394C17.715 4.23972 17.7041 4.06252 17.6592 3.89252C17.6142 3.72252 17.5361 3.56309 17.4293 3.42341C17.3225 3.28373 17.1891 3.16656 17.0368 3.07863C16.8845 2.99071 16.7164 2.93378 16.542 2.91112C16.3676 2.88845 16.1905 2.9005 16.0208 2.94657C15.8511 2.99264 15.6922 3.07183 15.5532 3.17956C15.4143 3.2873 15.298 3.42146 15.2111 3.57432L12.4634 8.33261H11.6834C11.2145 8.33328 10.754 8.45726 10.3481 8.6921C9.94226 8.92695 9.6053 9.2644 9.37105 9.6706L7.31104 13.2556C7.24538 13.3695 7.20282 13.4952 7.18579 13.6256C7.16876 13.7559 7.17761 13.8883 7.21182 14.0153C7.24603 14.1422 7.30494 14.2612 7.38517 14.3653C7.46539 14.4695 7.56537 14.5568 7.67938 14.6222C7.93097 14.7684 8.21674 14.8454 8.50771 14.8456C8.57629 14.845 8.64476 14.8401 8.71271 14.8309V14.8336C8.69239 14.8682 8.67871 14.9063 8.67238 14.9459L8.20571 17.7562C8.19467 17.8231 8.20427 17.8918 8.23325 17.953C8.26223 18.0143 8.3092 18.0653 8.36791 18.0992C8.42661 18.1331 8.49426 18.1483 8.56182 18.1428C8.62938 18.1372 8.69365 18.1112 8.74605 18.0682L10.9461 16.2579C10.9768 16.2325 11.0028 16.2018 11.0227 16.1672L11.6954 14.9992H14.0367C14.399 14.9996 14.7562 15.0839 15.0804 15.2456L15.2874 15.3492C15.7043 15.5569 16.1636 15.6653 16.6294 15.6659H19.6664C19.7548 15.6659 19.8396 15.6308 19.9021 15.5683C19.9646 15.5058 19.9997 15.421 19.9997 15.3326C19.9997 15.2442 19.9646 15.1594 19.9021 15.0969C19.8396 15.0343 19.7548 14.9992 19.6664 14.9992ZM13.6291 11.6659C13.7171 11.6624 13.8035 11.6913 13.8717 11.747C13.94 11.8028 13.9855 11.8816 13.9997 11.9686C14.0043 12.0177 13.9977 12.0672 13.9804 12.1134C13.9631 12.1596 13.9355 12.2013 13.8997 12.2353C13.8695 12.2665 13.8332 12.2913 13.7931 12.308C13.753 12.3248 13.7099 12.3331 13.6664 12.3326H13.2331L13.6181 11.6659H13.6291ZM15.7884 3.90765C15.8774 3.75578 16.0229 3.64529 16.1931 3.60029C16.3633 3.55529 16.5444 3.57944 16.6969 3.66746C16.8493 3.75549 16.9608 3.90024 17.0069 4.07014C17.053 4.24003 17.0301 4.42127 16.9431 4.57431L16.2764 5.72897L15.1217 5.0623L15.7884 3.90765ZM14.7884 5.64097L15.9444 6.30763L12.4637 12.3326H10.9241L14.7884 5.64097ZM8.01205 14.0432C7.93544 13.9993 7.87943 13.9267 7.8563 13.8414C7.83318 13.7562 7.84483 13.6652 7.88871 13.5886L9.94938 10.0026C10.125 9.69807 10.3775 9.44507 10.6818 9.26897C10.986 9.09287 11.3312 8.99986 11.6827 8.99928H12.0781L10.154 12.3326H10.061C9.68135 12.3352 9.31823 12.4885 9.05138 12.7586C8.92916 12.8787 8.83215 13.022 8.76604 13.1801C8.69993 13.3382 8.66605 13.5079 8.66638 13.6792C8.66946 13.8372 8.70108 13.9932 8.75971 14.1399C8.63485 14.1737 8.50455 14.1826 8.37626 14.166C8.24796 14.1494 8.1242 14.1077 8.01205 14.0432ZM10.4747 15.7802L9.00805 16.9872L9.31938 15.1139L9.45705 14.8759C9.62703 14.9554 9.81209 14.9974 9.99972 14.9992H10.9254L10.4747 15.7802Z"
  />
  <path
    d="M14.9998 2.66667C15.0882 2.66667 15.1729 2.63155 15.2355 2.56904C15.298 2.50652 15.3331 2.42174 15.3331 2.33333V0.333333C15.3331 0.244928 15.298 0.160143 15.2355 0.0976311C15.1729 0.0351189 15.0882 0 14.9998 0H4.3556C4.26736 1.8746e-05 4.18273 0.0350207 4.12027 0.0973334L0.0979985 4.106C0.0669043 4.137 0.0422402 4.17383 0.0254227 4.21439C0.00860512 4.25495 -3.44876e-05 4.29843 1.03461e-07 4.34233V19.6667C1.03461e-07 19.7551 0.0351185 19.8399 0.0976296 19.9024C0.160141 19.9649 0.244924 20 0.333328 20H14.9998C15.0882 20 15.1729 19.9649 15.2355 19.9024C15.298 19.8399 15.3331 19.7551 15.3331 19.6667V16.3333C15.3331 16.2449 15.298 16.1601 15.2355 16.0976C15.1729 16.0351 15.0882 16 14.9998 16C14.9113 16 14.8266 16.0351 14.7641 16.0976C14.7015 16.1601 14.6664 16.2449 14.6664 16.3333V19.3333H0.666656V5H3.99993C4.17674 5 4.34631 4.92976 4.47133 4.80474C4.59635 4.67971 4.66659 4.51014 4.66659 4.33333V0.666667H14.6664V2.33333C14.6664 2.42174 14.7015 2.50652 14.7641 2.56904C14.8266 2.63155 14.9113 2.66667 14.9998 2.66667ZM0.81432 4.33333L3.99993 1.15867V4.33333H0.81432Z"
  />
  <path
    d="M12.9998 2.66655H6.33332C6.24492 2.66655 6.16014 2.63144 6.09763 2.56894C6.03512 2.50644 6 2.42167 6 2.33328C6 2.24489 6.03512 2.16012 6.09763 2.09761C6.16014 2.03511 6.24492 2 6.33332 2H12.9998C13.0882 2 13.173 2.03511 13.2355 2.09761C13.298 2.16012 13.3331 2.24489 13.3331 2.33328C13.3331 2.42167 13.298 2.50644 13.2355 2.56894C13.173 2.63144 13.0882 2.66655 12.9998 2.66655Z"
  />
  <path
    d="M12.9998 4.66655H6.33332C6.24492 4.66655 6.16014 4.63144 6.09763 4.56894C6.03512 4.50644 6 4.42167 6 4.33328C6 4.24489 6.03512 4.16012 6.09763 4.09761C6.16014 4.03511 6.24492 4 6.33332 4H12.9998C13.0882 4 13.173 4.03511 13.2355 4.09761C13.298 4.16012 13.3331 4.24489 13.3331 4.33328C13.3331 4.42167 13.298 4.50644 13.2355 4.56894C13.173 4.63144 13.0882 4.66655 12.9998 4.66655Z"
  />
  <path
    d="M12.3334 6.66655H2.99973C2.91132 6.66655 2.82653 6.63144 2.76402 6.56894C2.7015 6.50644 2.66638 6.42167 2.66638 6.33328C2.66638 6.24489 2.7015 6.16012 2.76402 6.09761C2.82653 6.03511 2.91132 6 2.99973 6H12.3334C12.4218 6 12.5066 6.03511 12.5691 6.09761C12.6316 6.16012 12.6667 6.24489 12.6667 6.33328C12.6667 6.42167 12.6316 6.50644 12.5691 6.56894C12.5066 6.63144 12.4218 6.66655 12.3334 6.66655Z"
  />
  <path
    d="M8.99958 8.66655H2.99971C2.9113 8.66655 2.82652 8.63144 2.76401 8.56894C2.7015 8.50644 2.66638 8.42167 2.66638 8.33328C2.66638 8.24489 2.7015 8.16012 2.76401 8.09761C2.82652 8.03511 2.9113 8 2.99971 8H8.99958C9.08799 8 9.17277 8.03511 9.23528 8.09761C9.29779 8.16012 9.33291 8.24489 9.33291 8.33328C9.33291 8.42167 9.29779 8.50644 9.23528 8.56894C9.17277 8.63144 9.08799 8.66655 8.99958 8.66655Z"
  />
  <path
    d="M7.66649 10.6669H2.99972C2.91131 10.6669 2.82653 10.6318 2.76402 10.5693C2.7015 10.5067 2.66638 10.4219 2.66638 10.3335C2.66638 10.245 2.7015 10.1602 2.76402 10.0977C2.82653 10.0351 2.91131 10 2.99972 10H7.66649C7.7549 10 7.83968 10.0351 7.9022 10.0977C7.96471 10.1602 7.99983 10.245 7.99983 10.3335C7.99983 10.4219 7.96471 10.5067 7.9022 10.5693C7.83968 10.6318 7.7549 10.6669 7.66649 10.6669Z"
  />
  <path
    d="M6.99993 12.6669H2.99973C2.91132 12.6669 2.82653 12.6318 2.76402 12.5693C2.7015 12.5067 2.66638 12.4219 2.66638 12.3335C2.66638 12.245 2.7015 12.1602 2.76402 12.0977C2.82653 12.0351 2.91132 12 2.99973 12H6.99993C7.08834 12 7.17313 12.0351 7.23564 12.0977C7.29816 12.1602 7.33328 12.245 7.33328 12.3335C7.33328 12.4219 7.29816 12.5067 7.23564 12.5693C7.17313 12.6318 7.08834 12.6669 6.99993 12.6669Z"
  />
  <path
    d="M6.99993 18.3333H2.99973C2.91132 18.3333 2.82653 18.2982 2.76402 18.2357C2.7015 18.1731 2.66638 18.0883 2.66638 17.9999C2.66638 17.9114 2.7015 17.8266 2.76402 17.7641C2.82653 17.7015 2.91132 17.6664 2.99973 17.6664H6.99993C7.08834 17.6664 7.17313 17.7015 7.23564 17.7641C7.29816 17.8266 7.33328 17.9114 7.33328 17.9999C7.33328 18.0883 7.29816 18.1731 7.23564 18.2357C7.17313 18.2982 7.08834 18.3333 6.99993 18.3333Z"
  />
  <path
    d="M6.33305 14.6669H2.99972C2.91131 14.6669 2.82653 14.6318 2.76401 14.5693C2.7015 14.5067 2.66638 14.4219 2.66638 14.3335C2.66638 14.245 2.7015 14.1602 2.76401 14.0977C2.82653 14.0351 2.91131 14 2.99972 14H6.33305C6.42145 14 6.50624 14.0351 6.56875 14.0977C6.63126 14.1602 6.66638 14.245 6.66638 14.3335C6.66638 14.4219 6.63126 14.5067 6.56875 14.5693C6.50624 14.6318 6.42145 14.6669 6.33305 14.6669Z"
  />
</svg>
