<svg
  width="16"
  height="14"
  viewBox="0 0 16 14"
  xmlns="http://www.w3.org/2000/svg"
>
  <path
    d="M15.8592 12.3146L8.8395 0.673031C8.66209 0.378812 8.34356 0.198906 7.99997 0.198906C7.65637 0.198906 7.33784 0.378781 7.16044 0.673031L0.140811 12.3146C-0.0417515 12.6173 -0.0471578 12.995 0.126717 13.3028C0.300592 13.6107 0.626748 13.8011 0.980311 13.8011H15.0197C15.3732 13.8011 15.6994 13.6107 15.8732 13.3028C16.0471 12.995 16.0417 12.6173 15.8592 12.3146ZM8.00522 4.22584C8.40837 4.22584 8.7495 4.45328 8.7495 4.85641C8.7495 6.0865 8.60478 7.85419 8.60478 9.08428C8.60478 9.40475 8.25331 9.53909 8.00522 9.53909C7.67447 9.53909 7.39534 9.40472 7.39534 9.08428C7.39534 7.85419 7.25065 6.0865 7.25065 4.85641C7.25065 4.45328 7.5814 4.22584 8.00522 4.22584ZM8.01556 11.8443C7.56075 11.8443 7.21959 11.4722 7.21959 11.0484C7.21959 10.6142 7.56072 10.2524 8.01556 10.2524C8.43937 10.2524 8.80119 10.6142 8.80119 11.0484C8.80119 11.4722 8.43937 11.8443 8.01556 11.8443Z"
  />
</svg>
