<svg
  width="20"
  height="16"
  viewBox="0 0 20 16"
  xmlns="http://www.w3.org/2000/svg"
>
  <path
    d="M11.8026 10.8064C13.0116 10.2967 13.9659 9.60299 14.6653 8.72489C15.3645 7.84698 15.7142 6.89094 15.7142 5.8567C15.7142 4.82243 15.3645 3.8663 14.665 2.98836C13.9657 2.11041 13.0115 1.41659 11.8024 0.906799C10.5934 0.39709 9.2783 0.142334 7.85707 0.142334C6.43595 0.142334 5.12089 0.397247 3.91172 0.906799C2.70268 1.41655 1.74843 2.11037 1.04913 2.98836C0.349748 3.86646 0 4.82243 0 5.85674C0 6.74208 0.264529 7.57577 0.792767 8.35701C1.32096 9.13809 2.04646 9.79669 2.969 10.3323C2.89465 10.511 2.81839 10.6745 2.74024 10.8235C2.66206 10.9723 2.56914 11.1154 2.46117 11.2532C2.35328 11.391 2.26967 11.4988 2.21009 11.5767C2.15056 11.6548 2.05384 11.7648 1.91984 11.9059C1.78587 12.0473 1.70027 12.1403 1.66313 12.1848C1.66313 12.1773 1.64824 12.1942 1.61845 12.2351C1.58862 12.276 1.57189 12.2945 1.56822 12.2911C1.56446 12.287 1.54957 12.3056 1.52353 12.3466C1.4975 12.3875 1.48444 12.408 1.48444 12.408L1.45649 12.4636C1.44547 12.4861 1.43789 12.508 1.43421 12.5305C1.43046 12.5527 1.42858 12.577 1.42858 12.603C1.42858 12.629 1.43226 12.653 1.43984 12.6755C1.45473 12.7721 1.4975 12.8501 1.56818 12.9099C1.63881 12.9693 1.715 12.999 1.79694 12.999H1.83044C2.20239 12.9469 2.52239 12.8874 2.7902 12.8203C3.93604 12.5229 4.97035 12.0465 5.89294 11.3918C6.56253 11.5108 7.2173 11.5703 7.85715 11.5703C9.27838 11.5708 10.5936 11.3162 11.8026 10.8064Z"
  />
  <path
    d="M19.2077 11.2193C19.7362 10.4418 20.0002 9.60694 20.0002 8.71398C20.0002 7.7987 19.7208 6.94253 19.163 6.14648C18.6049 5.35051 17.8459 4.68819 16.8862 4.15991C17.0571 4.7179 17.1427 5.28335 17.1427 5.85639C17.1427 6.85332 16.8938 7.79827 16.3949 8.69123C15.8965 9.58391 15.1821 10.3725 14.2521 11.0572C13.389 11.6822 12.4068 12.1619 11.3056 12.4969C10.2046 12.8316 9.05499 12.9991 7.85704 12.9991C7.63391 12.9991 7.30649 12.9844 6.875 12.9547C8.37046 13.9366 10.1265 14.4278 12.1427 14.4278C12.7827 14.4278 13.4374 14.3681 14.1071 14.2491C15.0296 14.9041 16.064 15.3801 17.2098 15.6779C17.4776 15.745 17.7976 15.8044 18.1696 15.8564C18.2588 15.8639 18.3408 15.8378 18.4152 15.7783C18.4896 15.7188 18.538 15.6372 18.5602 15.5331C18.5567 15.4884 18.5602 15.4639 18.5714 15.4604C18.5824 15.4568 18.5806 15.4325 18.5658 15.388C18.5511 15.3432 18.5436 15.3209 18.5436 15.3209L18.5158 15.2652C18.508 15.2506 18.4955 15.23 18.4767 15.204C18.4581 15.1782 18.4433 15.1593 18.432 15.1482C18.4211 15.1371 18.4045 15.1184 18.382 15.0925C18.3598 15.0667 18.3448 15.0499 18.3373 15.0424C18.3002 14.9977 18.2146 14.9048 18.0807 14.7633C17.9467 14.6221 17.8501 14.5124 17.7906 14.4343C17.7311 14.3561 17.6473 14.2483 17.5395 14.1105C17.4317 13.973 17.3386 13.8297 17.2604 13.6809C17.1823 13.5321 17.106 13.3683 17.0317 13.1899C17.9543 12.6537 18.6796 11.9971 19.2077 11.2193Z"
  />
</svg>
