<svg
  width="14"
  height="12"
  viewBox="0 0 14 12"
  xmlns="http://www.w3.org/2000/svg"
>
  <path
    d="M11.89 4.41179C12.2896 4.13562 12.5521 3.67452 12.5521 3.15311V2.58269V2.01262C12.5521 1.1694 11.8661 0.483398 11.0229 0.483398C10.1797 0.483398 9.49367 1.16943 9.49367 2.01262V2.58285V3.15311C9.49367 3.67455 9.75617 4.13565 10.1558 4.41179C9.48596 4.623 8.90955 5.05896 8.52925 5.62003V5.27752C8.52925 4.4343 7.84323 3.7483 7 3.7483C6.15677 3.7483 5.47077 4.43432 5.47077 5.27752V5.62003C5.09048 5.05899 4.51404 4.623 3.84418 4.41179C4.24383 4.13562 4.50633 3.67452 4.50633 3.15311V2.01265C4.50633 1.16943 3.82033 0.483426 2.97708 0.483426C2.2129 0.483426 1.57784 1.04684 1.46549 1.78009C1.45387 1.85594 1.44785 1.9336 1.44785 2.01265V3.15311C1.44785 3.67455 1.71038 4.13565 2.11001 4.41179C0.903629 4.79212 0 5.90156 0 7.15746V8.04777C0 8.16043 0.0913281 8.25173 0.203957 8.25173H1.31187C1.4245 8.25173 1.51583 8.16043 1.51583 8.04777C1.51583 7.93514 1.4245 7.84382 1.31187 7.84382H0.407914V7.15746C0.407914 6.51365 0.682938 5.89784 1.18229 5.42337C1.47355 5.14666 1.82468 4.93923 2.19956 4.81457L2.44325 5.288L2.09087 6.81755C2.07435 6.88919 2.0977 6.96419 2.15193 7.0138L2.83938 7.64298C2.87834 7.67863 2.9277 7.69649 2.97705 7.69649C3.02641 7.69649 3.07576 7.67866 3.11473 7.64298L3.80215 7.0138C3.85637 6.96417 3.8797 6.88919 3.86321 6.81755L3.51086 5.28802L3.75454 4.81457C4.12943 4.93923 4.48055 5.14663 4.77184 5.42337C5.13836 5.7716 5.38379 6.19603 5.48857 6.65174C5.49511 6.69415 5.50375 6.73585 5.5137 6.77703C5.53514 6.90215 5.54619 7.02922 5.54619 7.15746V7.84382H1.99169C1.87906 7.84382 1.78773 7.93514 1.78773 8.04777C1.78773 8.16043 1.87906 8.25173 1.99169 8.25173H5.08154C4.43825 8.78701 4.02289 9.57096 4.02289 10.4223V11.3126C4.02289 11.4252 4.11422 11.5165 4.22685 11.5165H5.33477C5.44739 11.5165 5.53872 11.4252 5.53872 11.3126C5.53872 11.1999 5.44739 11.1086 5.33477 11.1086H4.43084V10.4223C4.43084 9.77847 4.70586 9.16266 5.20521 8.68819C5.49648 8.41147 5.8476 8.20404 6.22248 8.07938L6.46617 8.55284L6.11382 10.0824C6.0973 10.154 6.12065 10.229 6.17488 10.2786L6.86232 10.9078C6.90129 10.9435 6.95064 10.9613 7 10.9613C7.04936 10.9613 7.09874 10.9435 7.1377 10.9078L7.82512 10.2786C7.87935 10.229 7.90267 10.154 7.88618 10.0824L7.53383 8.55284L7.77752 8.07938C8.1524 8.20404 8.50352 8.41144 8.79479 8.68819C9.29414 9.16263 9.56916 9.77847 9.56916 10.4223V11.1086H6.01461C5.90198 11.1086 5.81066 11.1999 5.81066 11.3126C5.81066 11.4252 5.90198 11.5165 6.01461 11.5165H9.77312C9.88575 11.5165 9.97708 11.4252 9.97708 11.3126V10.4223C9.97708 9.57093 9.56173 8.78698 8.91846 8.25173H9.96152C10.0741 8.25173 10.1655 8.16043 10.1655 8.04777C10.1655 7.93514 10.0741 7.84382 9.96152 7.84382H8.45378V7.15743C8.45378 7.02914 8.46489 6.90199 8.48632 6.77681C8.49622 6.73576 8.50484 6.69423 8.51134 6.65198C8.61607 6.19616 8.86156 5.77165 9.22813 5.42335C9.51943 5.14663 9.87055 4.9392 10.2454 4.81454L10.4891 5.28797L10.1368 6.81755C10.1202 6.88919 10.1436 6.96417 10.1978 7.0138L10.8852 7.64298C10.9242 7.67869 10.9736 7.69649 11.0229 7.69649C11.0723 7.69649 11.1217 7.67866 11.1606 7.64298L11.848 7.0138C11.9023 6.96419 11.9256 6.88919 11.9091 6.81755L11.5568 5.288L11.8004 4.81457C12.1753 4.93923 12.5264 5.14666 12.8177 5.42337C13.3171 5.89782 13.5921 6.51365 13.5921 7.15746V7.84382H10.6414C10.5288 7.84382 10.4374 7.93514 10.4374 8.04777C10.4374 8.16043 10.5288 8.25173 10.6414 8.25173H13.796C13.9087 8.25173 14 8.16043 14 8.04777V7.15746C14 5.90156 13.0964 4.79212 11.89 4.41179ZM1.85574 2.01262C1.85574 1.39433 2.35875 0.891312 2.97708 0.891312C3.5954 0.891312 4.09842 1.39433 4.09842 2.01262V2.35382C3.62608 2.23731 3.4317 1.75108 3.42286 1.72841C3.39459 1.65374 3.32533 1.60244 3.24565 1.59716C3.16597 1.592 3.09055 1.63356 3.05266 1.70383C3.04929 1.71012 2.72642 2.28934 1.85574 2.36965V2.01262ZM2.97711 7.216L2.51513 6.79319L2.82111 5.46499H3.1331L3.43908 6.79319L2.97711 7.216ZM2.60624 4.71337C2.64603 4.70683 2.68595 4.70128 2.72595 4.69666C2.73161 4.696 2.73727 4.69546 2.74293 4.69483C2.77465 4.69138 2.80637 4.68862 2.83814 4.68638C2.84695 4.68575 2.85575 4.68504 2.86459 4.68452C2.89064 4.68293 2.9167 4.68214 2.94273 4.68143C2.95419 4.68168 2.96554 4.6823 2.97705 4.6823C2.98856 4.6823 2.99991 4.68168 3.01137 4.68143C3.03743 4.68217 3.06348 4.68296 3.08949 4.68452C3.09832 4.68504 3.10713 4.68578 3.11598 4.68638C3.14776 4.68865 3.17945 4.69138 3.21114 4.69483C3.21683 4.69543 3.22252 4.696 3.2282 4.69666C3.26818 4.70128 3.30807 4.70683 3.34786 4.71337L3.171 5.05705H2.78316L2.60624 4.71337ZM3.02173 4.27327C3.00781 4.27289 2.99389 4.27237 2.97989 4.27218C2.97803 4.27212 2.9762 4.27212 2.97434 4.27218H2.97432C2.96034 4.27237 2.94645 4.27289 2.93248 4.27327C2.33477 4.24973 1.85574 3.75642 1.85574 3.15308V2.77899C2.54978 2.7261 2.97618 2.40979 3.20321 2.17075C3.36224 2.40348 3.64738 2.6986 4.09842 2.77038V3.15308C4.09844 3.75642 3.61941 4.24973 3.02173 4.27327ZM5.87863 5.2775C5.87866 4.6592 6.3817 4.15618 7 4.15618C7.11594 4.15618 7.2278 4.17385 7.33307 4.20669C7.78922 4.34887 8.12131 4.77514 8.12131 5.27752V5.61872C7.649 5.50221 7.45459 5.01601 7.44579 4.99331C7.41751 4.91866 7.34825 4.86737 7.26857 4.86209C7.18897 4.85709 7.11348 4.89848 7.07558 4.96876C7.07219 4.97505 6.74934 5.55427 5.87866 5.63458V5.2775H5.87863ZM5.95416 7.73925V7.53215C6.01002 7.5846 6.06968 7.63297 6.1329 7.67664C6.07255 7.69567 6.01297 7.71664 5.95416 7.73925ZM7 10.4809L6.53803 10.058L6.84403 8.72983H7.15602L7.462 10.058L7 10.4809ZM6.62922 7.97824C6.669 7.9717 6.70893 7.96615 6.74893 7.96153C6.75459 7.96087 6.76025 7.96033 6.76591 7.9597C6.79763 7.95625 6.82935 7.95349 6.86112 7.95125C6.86993 7.95062 6.87873 7.94991 6.88756 7.94939C6.91362 7.9478 6.93968 7.94704 6.96571 7.9463C6.97717 7.94655 6.98852 7.94717 7.00003 7.94717C7.01154 7.94717 7.02289 7.94655 7.03434 7.9463C7.0604 7.94706 7.08646 7.94783 7.11246 7.94939C7.12127 7.94991 7.1301 7.95065 7.13893 7.95125C7.17071 7.95352 7.20243 7.95625 7.23409 7.9597C7.23978 7.9603 7.24546 7.96087 7.25115 7.96153C7.29113 7.96618 7.33105 7.9717 7.37081 7.97824L7.19392 8.32195H6.80611L6.62922 7.97824ZM8.04584 7.73925C7.98705 7.71661 7.9275 7.69567 7.8671 7.67664C7.93032 7.63297 7.98998 7.58457 8.04584 7.53212V7.73925ZM8.12134 6.41795C8.12134 6.47551 8.11696 6.53205 8.10857 6.58732C8.10141 6.61958 8.09501 6.65207 8.08905 6.68466C7.9724 7.16063 7.55128 7.51815 7.04465 7.53811C7.03071 7.53773 7.01682 7.53721 7.00282 7.53702C7.00096 7.53696 6.99913 7.53696 6.99727 7.53702C6.98329 7.53721 6.96937 7.53773 6.95543 7.53811C6.44891 7.51818 6.02779 7.1608 5.91109 6.68491C5.9051 6.65217 5.89868 6.61955 5.89148 6.58718C5.88309 6.53194 5.87871 6.47542 5.87871 6.41792V6.04386C6.57275 5.99098 6.99915 5.67466 7.22619 5.43562C7.38522 5.66832 7.67036 5.96344 8.12137 6.03525V6.41795H8.12134ZM9.90158 2.01262C9.90158 1.39433 10.4046 0.891312 11.0229 0.891312C11.6412 0.891312 12.1442 1.39433 12.1442 2.01262V2.35382C11.6719 2.23728 11.4775 1.75108 11.4687 1.72841C11.4404 1.65377 11.3712 1.60247 11.2915 1.59719C11.2117 1.59202 11.1364 1.63359 11.0985 1.70386C11.0951 1.71015 10.7723 2.28937 9.90161 2.36968V2.01262H9.90158ZM11.0229 7.216L10.5609 6.79319L10.8669 5.46499H11.1789L11.4849 6.79319L11.0229 7.216ZM10.6521 4.71337C10.6919 4.70683 10.7318 4.70128 10.7718 4.69666C10.7775 4.696 10.7831 4.69543 10.7888 4.69483C10.8205 4.69138 10.8522 4.68862 10.884 4.68638C10.8928 4.68575 10.9016 4.68504 10.9105 4.68452C10.9365 4.68293 10.9626 4.68217 10.9886 4.68143C11.0001 4.68168 11.0114 4.6823 11.0229 4.6823C11.0344 4.6823 11.0458 4.68168 11.0572 4.68143C11.0833 4.68217 11.1094 4.68296 11.1354 4.68452C11.1442 4.68504 11.153 4.68578 11.1619 4.68638C11.1936 4.68865 11.2254 4.69138 11.2571 4.69483C11.2627 4.69543 11.2684 4.696 11.274 4.69666C11.3141 4.70131 11.3539 4.70683 11.3938 4.71337L11.2169 5.05705H10.8291L10.6521 4.71337ZM11.0675 4.27327C11.0536 4.27289 11.0397 4.27237 11.0257 4.27218C11.0238 4.27212 11.022 4.27212 11.0201 4.27218H11.0201C11.0061 4.27237 10.9922 4.27289 10.9782 4.27327C10.3806 4.24973 9.90156 3.75642 9.90156 3.15308V2.77899C10.5956 2.7261 11.022 2.40979 11.249 2.17075C11.408 2.40348 11.6932 2.6986 12.1442 2.77038V3.15308C12.1442 3.75642 11.6652 4.24973 11.0675 4.27327Z"
  />
</svg>
