<svg
  width="20"
  height="16"
  viewBox="0 0 20 16"
  xmlns="http://www.w3.org/2000/svg"
>
  <path
    d="M19.2856 11.5714H0.714342C0.520765 11.5714 0.353418 11.6422 0.211988 11.7834C0.0707149 11.9247 0 12.0924 0 12.2859V15.1427C0 15.3359 0.0707149 15.5037 0.212027 15.6449C0.353575 15.7862 0.521 15.8571 0.714381 15.8571H19.2856C19.4789 15.8571 19.6465 15.7863 19.7879 15.6449C19.9292 15.5037 20 15.336 20 15.1427V12.2859C20 12.0924 19.9292 11.9247 19.7879 11.7834C19.6465 11.6421 19.4789 11.5714 19.2856 11.5714ZM18.5713 14.4287H11.4289V13H18.5716V14.4287H18.5713Z"
  />
  <path
    d="M19.2856 5.85722H0.714342C0.520765 5.85722 0.353418 5.92794 0.211988 6.06933C0.0707149 6.21064 0 6.37807 0 6.57145V9.42847C0 9.62189 0.0707149 9.78939 0.212027 9.93067C0.353575 10.0719 0.521 10.1429 0.714381 10.1429H19.2856C19.4789 10.1429 19.6465 10.072 19.7879 9.93067C19.9292 9.78943 20 9.62193 20 9.42847V6.57145C20 6.37807 19.9292 6.21068 19.7879 6.06933C19.6465 5.9279 19.4789 5.85722 19.2856 5.85722ZM18.5711 8.71436H7.14295V7.28587H18.5711V8.71436Z"
  />
  <path
    d="M19.7879 0.354942C19.6465 0.213746 19.4789 0.142914 19.2856 0.142914H0.714342C0.520765 0.142914 0.353418 0.213746 0.211988 0.354942C0.0707149 0.496333 0 0.663836 0 0.857257V3.7142C0 3.90778 0.0707149 4.0752 0.212027 4.21651C0.353575 4.3579 0.521 4.42854 0.714381 4.42854H19.2856C19.4789 4.42854 19.6465 4.3579 19.7879 4.21651C19.9292 4.0752 20 3.90778 20 3.7142V0.857257C19.9999 0.663836 19.9292 0.49645 19.7879 0.354942ZM18.5711 3.00013H14.2856V1.57148H18.5711V3.00013Z"
  />
</svg>
