<svg
  width="14"
  height="14"
  viewBox="0 0 14 14"
  xmlns="http://www.w3.org/2000/svg"
>
  <path
    d="M11.5127 11.3434C11.3994 11.3434 11.3076 11.4352 11.3076 11.5484V13.4766C11.3076 13.539 11.2568 13.5898 11.1944 13.5898H10.092V9.5512C10.092 9.43794 10.0001 9.34612 9.88689 9.34612C9.77363 9.34612 9.68181 9.43794 9.68181 9.5512V13.5898H7.46191L8.10566 12.8816C8.17599 12.8042 8.20916 12.694 8.19436 12.5867C8.19409 12.5846 8.19376 12.5825 8.19341 12.5804L7.58028 8.95828L7.74546 8.70961C7.83679 8.77447 7.90715 8.83693 8.03908 8.83693C8.17328 8.83693 8.29876 8.76181 8.3605 8.63816V8.63814L9.00718 7.34204L10.4804 7.91257C10.5336 7.93543 11.3076 8.28395 11.3076 9.20423V10.5914C11.3075 10.7046 11.3994 10.7965 11.5126 10.7965C11.6259 10.7965 11.7177 10.7046 11.7177 10.5914V9.20423C11.7177 7.9917 10.6795 7.55095 10.6353 7.53277C10.634 7.53222 10.6327 7.5317 10.6314 7.53121L8.17954 6.58167V6.00663C8.56897 5.70377 8.83899 5.25481 8.90678 4.74261C9.10095 4.72894 9.28111 4.65642 9.42825 4.5299C9.6204 4.36466 9.73065 4.12418 9.73065 3.87021C9.73065 3.65944 9.6546 3.45819 9.51909 3.30137V2.54168C9.51906 1.14021 8.37888 0 6.9774 0C5.57593 0 4.43575 1.14021 4.43575 2.54168V3.32128C4.29878 3.47651 4.2243 3.66759 4.2243 3.87018C4.2243 4.12423 4.33449 4.36469 4.52669 4.52996C4.67372 4.65642 4.85378 4.72886 5.04789 4.74255C5.11622 5.26436 5.39412 5.73005 5.81672 6.03698V6.58167L3.36751 7.53118C3.36622 7.53167 3.36494 7.53219 3.36365 7.53271C3.31944 7.55089 2.28125 7.99165 2.28125 9.20418V13.4765C2.28125 13.7651 2.51605 13.9999 2.80466 13.9999H4.75857C4.87182 13.9999 4.96364 13.9081 4.96364 13.7948C4.96364 13.6816 4.87182 13.5898 4.75857 13.5898H4.31732V9.5512C4.31732 9.43794 4.2255 9.34612 4.11224 9.34612C3.99898 9.34612 3.90716 9.43794 3.90716 9.5512V13.5898H2.80469C2.74227 13.5898 2.69146 13.539 2.69146 13.4766V9.20421C2.69146 8.28084 3.47057 7.93311 3.51842 7.91265L4.99044 7.34199L5.63718 8.63814C5.69905 8.76209 5.8247 8.83693 5.95863 8.83693C6.08991 8.83693 6.15958 8.77543 6.25225 8.70961L6.41743 8.95828L5.80436 12.5804C5.804 12.5825 5.8037 12.5846 5.8034 12.5866C5.78858 12.6939 5.82175 12.8042 5.8921 12.8816L6.53586 13.5898H5.71568C5.60242 13.5898 5.5106 13.6817 5.5106 13.7949C5.5106 13.9082 5.60242 14 5.71568 14H11.1944C11.483 14 11.7178 13.7652 11.7178 13.4766V11.5485C11.7178 11.4352 11.6259 11.3434 11.5127 11.3434ZM8.62303 7.19329L8.02013 8.40161C8.00515 8.39098 7.68563 8.16397 7.29505 7.88662C7.46453 7.67741 7.26626 7.92214 8.03976 6.96741L8.62303 7.19329ZM7.41083 8.472L7.25448 8.70734H6.74307L6.58672 8.472L6.99879 8.17934L7.41083 8.472ZM6.22684 6.64784V6.26404C6.476 6.36448 6.74227 6.41104 7.00231 6.41104C7.27118 6.41104 7.53486 6.35373 7.76936 6.25119V6.64951L6.99879 7.60066L6.22684 6.64784ZM9.32046 3.87021C9.32043 4.00455 9.26225 4.13167 9.1608 4.21892C9.09373 4.27662 9.01271 4.3135 8.92398 4.32794V3.41255C9.15968 3.45084 9.32046 3.64634 9.32046 3.87021ZM5.03094 4.32794C4.79256 4.28925 4.63445 4.09216 4.63445 3.87018C4.63445 3.65094 4.81621 3.47249 5.03094 3.42286V4.32794ZM5.04196 3.00497C4.97663 3.01246 4.90177 3.03015 4.84596 3.04913V2.54168C4.84596 1.36637 5.80211 0.410184 6.97743 0.410184C8.15275 0.410184 9.1089 1.36637 9.1089 2.54168V3.03505C9.04929 3.01692 8.98747 3.00494 8.924 2.99931C8.924 2.80142 8.92573 2.83959 8.27836 2.14361C8.15931 2.0157 7.96238 1.9889 7.81251 2.08682C7.09802 2.55355 6.22643 2.78802 5.42225 2.73027C5.24586 2.71707 5.08519 2.83325 5.04196 3.00497ZM5.44112 4.48941V3.20994V3.14254C6.32638 3.19438 7.2545 2.93139 8.0043 2.4512C8.3012 2.76998 8.46198 2.93718 8.51382 3.00079C8.51382 3.16168 8.51382 4.30522 8.51382 4.48938C8.51382 5.32191 7.83499 6.00083 7.00234 6.00083C6.06735 6.00086 5.44112 5.27554 5.44112 4.48941ZM5.97747 8.40161L5.37457 7.19329L5.9568 6.96779L6.70167 7.88722C6.32288 8.1562 6.01184 8.3772 5.97747 8.40161ZM6.21276 12.6247L6.80637 9.11747H7.19112L7.78473 12.6247L6.99876 13.4894L6.21276 12.6247Z"
  />
</svg>
