<svg
  width="16"
  height="16"
  viewBox="0 0 16 16"
  xmlns="http://www.w3.org/2000/svg"
>
  <path
    d="M14.2841 1.66484H9.24587C9.02352 1.66484 8.84271 1.84568 8.84271 2.06808V8.38801H2.3911C2.16875 8.38801 1.98786 8.56941 1.98786 8.79176V13.7238C1.98786 13.9461 2.16871 14.127 2.3911 14.127L14.2836 14.1237C14.5061 14.1237 14.6871 13.9428 14.6871 13.72L14.6876 2.06781C14.6879 1.84568 14.5069 1.66484 14.2841 1.66484ZM7.99984 11.5794C7.99984 11.8407 7.78822 12.0521 7.52702 12.0521H4.8874C4.8695 12.0521 4.85202 12.0511 4.83467 12.0491V12.0896L5.21335 13.0485C5.22618 13.0805 5.21595 13.1174 5.18819 13.1382C5.17445 13.1487 5.15815 13.1539 5.14194 13.1539C5.12532 13.1539 5.10897 13.1484 5.09514 13.1377L3.21174 11.6897C3.19275 11.6752 3.18175 11.6524 3.18175 11.629C3.18175 11.6047 3.19275 11.5823 3.21174 11.5676L5.09514 10.1197C5.12254 10.0986 5.16057 10.0986 5.18819 10.1192C5.21572 10.1401 5.22595 10.1766 5.21335 10.2086L4.85832 11.1078C4.86791 11.1073 4.8774 11.1063 4.8874 11.1063H7.05437V9.52127C7.05437 9.25993 7.26609 9.04858 7.52702 9.04858C7.78822 9.04858 7.99984 9.25993 7.99984 9.52127V11.5794ZM15.1679 0.338318H7.97277C7.51336 0.338318 7.14085 0.710833 7.14085 1.17042V6.9542H0.832008C0.372516 6.9542 0 7.32699 0 7.78639V14.8298C0 15.2892 0.372516 15.6617 0.832008 15.6617H8.02701C8.0428 15.6617 8.05746 15.6578 8.07303 15.6572H15.167C15.6265 15.6572 15.9992 15.2845 15.9992 14.8248V8.22164C15.9992 8.21863 16 8.21612 16 8.2136V1.17042C16 0.710833 15.6272 0.338318 15.1679 0.338318ZM15.0456 13.7205C15.0456 14.1408 14.7039 14.4825 14.2836 14.4825H9.31641C9.31285 14.4845 9.29892 14.486 9.28422 14.486H2.3911C1.97097 14.486 1.62918 14.1442 1.62918 13.724V8.79222C1.62918 8.37176 1.97092 8.03025 2.3911 8.03025H8.48417V2.06803C8.48417 1.64794 8.82591 1.30616 9.24591 1.30616H14.2841C14.7043 1.30616 15.0461 1.64794 15.0461 2.06803L15.0456 13.7205Z"
  />
</svg>
