<svg
  width="25"
  height="25"
  viewBox="0 0 25 25"
  xmlns="http://www.w3.org/2000/svg"
>
  <path
    d="M10.6629 16.0767C10.2672 14.6258 9.25034 13.3326 7.78975 12.6368C8.28916 12.0827 8.59375 11.3498 8.59375 10.5469V9.375C8.59375 7.65186 7.19189 6.25 5.46875 6.25C3.74561 6.25 2.34375 7.65186 2.34375 9.375V10.5469C2.34375 11.3502 2.64868 12.0836 3.14863 12.6378C1.76987 13.299 0.695215 14.5339 0.274609 16.0766C0.00839843 17.052 0 17.0473 0 17.1875C0 18.2827 1.47876 18.6524 1.96465 18.774C3.92012 19.2629 7.01572 19.2633 8.9728 18.774C9.45874 18.6524 10.9375 18.2827 10.9375 17.1875C10.9375 17.0479 10.9333 17.0674 10.6629 16.0767ZM3.90625 10.5469V9.375C3.90625 8.51343 4.60718 7.8125 5.46875 7.8125C6.33032 7.8125 7.03125 8.51343 7.03125 9.375V10.5469C7.03125 11.4084 6.33032 12.1094 5.46875 12.1094C4.60718 12.1094 3.90625 11.4084 3.90625 10.5469ZM1.63579 17.0237L1.78203 16.4877C2.48931 13.8935 5.62661 12.8045 7.78838 14.4563C8.88423 15.2936 9.09575 16.2688 9.30171 17.0238C7.80381 17.7596 3.13892 17.7622 1.63579 17.0237Z"
  />
  <path
    d="M23.2086 17.4163C23.0622 17.2698 22.8634 17.1875 22.6562 17.1875H18.75C18.3185 17.1875 17.9688 17.5373 17.9688 17.9688V24.2188C17.9688 24.6502 18.3185 25 18.75 25H24.2188C24.6502 25 25 24.6502 25 24.2188V19.5312C25 19.324 24.9177 19.1253 24.7711 18.9788L23.2086 17.4163ZM23.4375 23.4375H19.5312V18.75H22.3326L23.4375 19.8548V23.4375Z"
  />
  <path
    d="M23.2086 8.82256C23.0622 8.67607 22.8634 8.59375 22.6562 8.59375H18.75C18.3185 8.59375 17.9688 8.94355 17.9688 9.375V15.625C17.9688 16.0564 18.3185 16.4062 18.75 16.4062H24.2188C24.6502 16.4062 25 16.0564 25 15.625V10.9375C25 10.7303 24.9177 10.5316 24.7711 10.3851L23.2086 8.82256ZM23.4375 14.8438H19.5312V10.1562H22.3326L23.4375 11.2611V14.8438Z"
  />
  <path
    d="M24.7711 1.79131L23.2086 0.228809C23.0622 0.0823242 22.8634 0 22.6562 0H18.75C18.3185 0 17.9688 0.349805 17.9688 0.78125V7.03125C17.9688 7.4627 18.3185 7.8125 18.75 7.8125H24.2188C24.6502 7.8125 25 7.4627 25 7.03125V2.34375C25 2.13652 24.9177 1.93784 24.7711 1.79131ZM23.4375 6.25H19.5312V1.5625H22.3326L23.4375 2.66733V6.25Z"
  />
  <path
    d="M16.4062 4.29688C16.8377 4.29688 17.1875 3.94707 17.1875 3.51562C17.1875 3.08418 16.8377 2.73438 16.4062 2.73438H13.2812C12.8498 2.73438 12.5 3.08418 12.5 3.51562V11.7188H10.1562C9.72476 11.7188 9.375 12.0686 9.375 12.5C9.375 12.9314 9.72476 13.2812 10.1562 13.2812H12.5V21.0938C12.5 21.5252 12.8498 21.875 13.2812 21.875H16.4062C16.8377 21.875 17.1875 21.5252 17.1875 21.0938C17.1875 20.6623 16.8377 20.3125 16.4062 20.3125H14.0625V13.2812H16.4062C16.8377 13.2812 17.1875 12.9314 17.1875 12.5C17.1875 12.0686 16.8377 11.7188 16.4062 11.7188H14.0625V4.29688H16.4062Z"
  />
</svg>
