<svg
  width="14"
  height="14"
  viewBox="0 0 14 14"
  xmlns="http://www.w3.org/2000/svg"
>
  <g clip-path="url(#clip0)">
    <path
      d="M12.1611 12.6055H11.3135V2.11816C11.3133 1.95141 11.247 1.79155 11.1291 1.67364C11.0112 1.55574 10.8513 1.48942 10.6846 1.48925H7.19146V0.191078C7.19137 0.140371 7.17117 0.0917702 7.13528 0.0559455C7.0994 0.0201208 7.05076 -7.45085e-08 7.00005 0L3.80084 0C3.75013 -7.45085e-08 3.70149 0.0201208 3.66561 0.0559455C3.62972 0.0917702 3.60952 0.140371 3.60943 0.191078V1.48925H3.31543C3.1487 1.48945 2.98885 1.55578 2.87095 1.67368C2.75305 1.79157 2.68673 1.95142 2.68652 2.11816V12.6055H1.83887C1.78811 12.6055 1.73944 12.6257 1.70355 12.6616C1.66767 12.6974 1.64749 12.7461 1.64746 12.7969V13.8083C1.64749 13.859 1.66767 13.9077 1.70355 13.9436C1.73944 13.9795 1.78811 13.9996 1.83887 13.9997H12.1611C12.2119 13.9997 12.2606 13.9795 12.2965 13.9436C12.3324 13.9077 12.3525 13.859 12.3525 13.8083V12.7969C12.3525 12.7461 12.3324 12.6974 12.2965 12.6615C12.2606 12.6256 12.2119 12.6055 12.1611 12.6055ZM3.99224 0.382812H6.80865V1.48925H3.99224V0.382812ZM3.06934 2.11816C3.06942 2.05291 3.09538 1.99037 3.14151 1.94424C3.18764 1.8981 3.25019 1.87215 3.31543 1.87206H10.6846C10.7498 1.87212 10.8124 1.89807 10.8585 1.94421C10.9047 1.99034 10.9306 2.05291 10.9307 2.11816V12.6055H8.42193V10.5273H8.90012C8.95088 10.5273 8.99957 10.5072 9.03546 10.4713C9.07136 10.4354 9.09152 10.3867 9.09152 10.3359V9.47515C9.09152 9.42439 9.07136 9.37571 9.03546 9.33981C8.99957 9.30392 8.95088 9.28375 8.90012 9.28375H5.09966C5.0489 9.28375 5.00021 9.30392 4.96432 9.33981C4.92842 9.37571 4.90826 9.42439 4.90826 9.47515V10.3359C4.90826 10.3867 4.92842 10.4354 4.96432 10.4713C5.00021 10.5072 5.0489 10.5273 5.09966 10.5273H5.57818V12.6055H3.06934V2.11816ZM5.29107 10.144V9.66601H8.70904V10.144H5.29107ZM5.96066 10.5268H8.03912V12.6049H5.96099L5.96066 10.5268ZM11.9697 13.6169H2.03027V12.9883H11.9697V13.6169Z"
    />
    <path
      d="M3.97168 4.0202H6.19341C6.24418 4.0202 6.29286 4.00003 6.32876 3.96414C6.36465 3.92824 6.38482 3.87956 6.38482 3.82879V2.77441C6.38483 2.74927 6.37989 2.72438 6.37028 2.70115C6.36067 2.67792 6.34657 2.65681 6.32879 2.63904C6.31101 2.62126 6.28991 2.60716 6.26668 2.59755C6.24345 2.58793 6.21855 2.58299 6.19341 2.58301H3.97168C3.92092 2.58301 3.87223 2.60317 3.83633 2.63907C3.80044 2.67497 3.78027 2.72365 3.78027 2.77441V3.82879C3.7803 3.87955 3.80048 3.92822 3.83637 3.96411C3.87226 4 3.92092 4.02017 3.97168 4.0202ZM4.16309 2.96582H6.00201V3.63739H4.16309V2.96582Z"
    />
    <path
      d="M3.97168 6.29583H6.19341C6.21855 6.29584 6.24345 6.2909 6.26668 6.28129C6.28991 6.27168 6.31101 6.25758 6.32879 6.2398C6.34657 6.22202 6.36067 6.20092 6.37028 6.17769C6.37989 6.15446 6.38483 6.12956 6.38482 6.10442V5.05005C6.38482 4.99928 6.36465 4.9506 6.32876 4.9147C6.29286 4.87881 6.24418 4.85864 6.19341 4.85864H3.97168C3.92092 4.85867 3.87226 4.87885 3.83637 4.91474C3.80048 4.95063 3.7803 4.99929 3.78027 5.05005V6.10442C3.78027 6.15519 3.80044 6.20387 3.83633 6.23977C3.87223 6.27566 3.92092 6.29583 3.97168 6.29583ZM4.16309 5.24146H6.00201V5.91302H4.16309V5.24146Z"
    />
    <path
      d="M6.38482 8.37994V7.32556C6.38483 7.30042 6.37989 7.27553 6.37028 7.2523C6.36067 7.22907 6.34657 7.20796 6.32879 7.19019C6.31101 7.17241 6.28991 7.15831 6.26668 7.1487C6.24345 7.13908 6.21855 7.13414 6.19341 7.13416H3.97168C3.92092 7.13416 3.87223 7.15432 3.83633 7.19022C3.80044 7.22611 3.78027 7.2748 3.78027 7.32556V8.37994C3.7803 8.43069 3.80048 8.47936 3.83637 8.51525C3.87226 8.55114 3.92092 8.57131 3.97168 8.57134H6.19341C6.24418 8.57134 6.29286 8.55118 6.32876 8.51528C6.36465 8.47939 6.38482 8.4307 6.38482 8.37994ZM6.00201 8.18853H4.16309V7.51697H6.00201V8.18853Z"
    />
    <path
      d="M7.80664 4.0202H10.0283C10.079 4.0202 10.1277 4.00003 10.1636 3.96414C10.1995 3.92824 10.2197 3.87956 10.2197 3.82879V2.77441C10.2197 2.74927 10.2147 2.72438 10.2051 2.70115C10.1955 2.67792 10.1814 2.65681 10.1636 2.63904C10.1459 2.62126 10.1248 2.60716 10.1015 2.59755C10.0783 2.58793 10.0534 2.58299 10.0283 2.58301H7.80664C7.7815 2.58299 7.7566 2.58793 7.73338 2.59755C7.71015 2.60716 7.68904 2.62126 7.67126 2.63904C7.65349 2.65681 7.63939 2.67792 7.62977 2.70115C7.62016 2.72438 7.61522 2.74927 7.61523 2.77441V3.82879C7.61523 3.87956 7.6354 3.92824 7.6713 3.96414C7.70719 4.00003 7.75588 4.0202 7.80664 4.0202ZM7.99805 2.96582H9.83686V3.63739H7.99805V2.96582Z"
    />
    <path
      d="M7.80664 6.29583H10.0283C10.0534 6.29584 10.0783 6.2909 10.1015 6.28129C10.1248 6.27168 10.1459 6.25758 10.1636 6.2398C10.1814 6.22202 10.1955 6.20092 10.2051 6.17769C10.2147 6.15446 10.2197 6.12956 10.2197 6.10442V5.05005C10.2197 4.99928 10.1995 4.9506 10.1636 4.9147C10.1277 4.87881 10.079 4.85864 10.0283 4.85864H7.80664C7.75588 4.85864 7.70719 4.87881 7.6713 4.9147C7.6354 4.9506 7.61523 4.99928 7.61523 5.05005V6.10442C7.61522 6.12956 7.62016 6.15446 7.62977 6.17769C7.63939 6.20092 7.65349 6.22202 7.67126 6.2398C7.68904 6.25758 7.71015 6.27168 7.73338 6.28129C7.7566 6.2909 7.7815 6.29584 7.80664 6.29583ZM7.99805 5.24146H9.83686V5.91302H7.99805V5.24146Z"
    />
    <path
      d="M7.80664 8.57134H10.0283C10.079 8.57134 10.1277 8.55118 10.1636 8.51528C10.1995 8.47939 10.2197 8.4307 10.2197 8.37994V7.32556C10.2197 7.30042 10.2147 7.27553 10.2051 7.2523C10.1955 7.22907 10.1814 7.20796 10.1636 7.19019C10.1459 7.17241 10.1248 7.15831 10.1015 7.1487C10.0783 7.13908 10.0534 7.13414 10.0283 7.13416H7.80664C7.7815 7.13414 7.7566 7.13908 7.73338 7.1487C7.71015 7.15831 7.68904 7.17241 7.67126 7.19019C7.65349 7.20796 7.63939 7.22907 7.62977 7.2523C7.62016 7.27553 7.61522 7.30042 7.61523 7.32556V8.37994C7.61523 8.4307 7.6354 8.47939 7.6713 8.51528C7.70719 8.55118 7.75588 8.57134 7.80664 8.57134ZM7.99805 7.51697H9.83686V8.18853H7.99805V7.51697Z"
    />
  </g>
  <defs>
    <clipPath id="clip0">
      <rect
        width="14"
        height="14"
        fill="white"
      />
    </clipPath>
  </defs>
</svg>
