<svg
  width="12"
  height="7"
  viewBox="0 0 12 7"
  xmlns="http://www.w3.org/2000/svg"
>
  <path d="M11.9305 3.27196L9.26388 0.802782C9.18979 0.741652 9.1088 0.72989 9.02082 0.767522C8.93294 0.805204 8.88882 0.873352 8.88882 0.972165V2.55242H0.222217C0.157371 2.55242 0.104103 2.57355 0.0624863 2.61588C0.0208936 2.65818 0 2.71229 0 2.77812V4.13258C0 4.19838 0.0207963 4.2525 0.062462 4.29475C0.104176 4.33705 0.157444 4.35818 0.222193 4.35818H8.88887V5.93841C8.88887 6.0326 8.93306 6.10075 9.02089 6.14295C9.10894 6.18074 9.18994 6.16645 9.26403 6.10075L11.9306 3.60321C11.9769 3.55621 12 3.49988 12 3.43398C12 3.37299 11.9768 3.31898 11.9305 3.27196Z"/>
</svg>
