<svg
  width="16"
  height="16"
  viewBox="0 0 16 16"
  xmlns="http://www.w3.org/2000/svg"
>
  <path
    d="M9.53674e-07 8C9.53674e-07 12.4062 3.58004 16 8 16C12.42 16 16 12.4062 16 8C16 3.5938 12.4062 0 8 0C3.5938 0 9.53674e-07 3.5938 9.53674e-07 8ZM14.8709 8C14.8709 11.7866 11.7866 14.8709 8 14.8709C4.21343 14.8709 1.12909 11.7866 1.12909 8C1.12909 4.21342 4.21343 1.12909 8 1.12909C11.7866 1.12909 14.8709 4.21342 14.8709 8Z"
  />
  <path
    d="M11.7439 7.96111C11.2214 6.66176 9.81089 6.01207 7.51204 6.01207H6.42872V4.774C6.42872 4.69012 6.39807 4.61756 6.33684 4.55633C6.27557 4.49506 6.20309 4.46442 6.11922 4.46442C6.03534 4.46442 5.96278 4.49506 5.90155 4.55633L3.42537 7.03248C3.36414 7.0938 3.3335 7.16632 3.3335 7.25015C3.3335 7.33397 3.36414 7.40648 3.42537 7.46777L5.90157 9.94399C5.96287 10.0052 6.03542 10.0359 6.11924 10.0359C6.20303 10.0359 6.27557 10.0052 6.33686 9.94399C6.39811 9.88277 6.42873 9.8102 6.42873 9.72635V8.48819H7.51205C7.82796 8.48819 8.11084 8.49781 8.3607 8.51712C8.61054 8.53649 8.85893 8.57114 9.10549 8.62118C9.35219 8.67115 9.56664 8.73961 9.74883 8.82674C9.93097 8.91388 10.1011 9.02588 10.2591 9.16285C10.4171 9.29996 10.5461 9.46268 10.6461 9.65136C10.746 9.84 10.8242 10.0632 10.8806 10.3211C10.937 10.5791 10.9653 10.8709 10.9653 11.1965C10.9653 11.3737 10.9572 11.5721 10.9411 11.7913C10.9411 11.8106 10.9371 11.8485 10.929 11.905C10.921 11.9614 10.9169 12.0041 10.9169 12.0331C10.9169 12.0814 10.9306 12.1217 10.958 12.1539C10.9854 12.1862 11.0233 12.2022 11.0717 12.2022C11.1233 12.2022 11.1684 12.1749 11.2071 12.12C11.2296 12.091 11.2505 12.0556 11.2699 12.0136C11.2893 11.9717 11.3111 11.9234 11.3352 11.8686C11.3595 11.8137 11.3764 11.7752 11.386 11.7526C11.7954 10.8338 12.0002 10.1068 12.0002 9.57153C12.0002 8.92999 11.9148 8.3931 11.7439 7.96111Z"
  />
</svg>
