<svg
  width="16"
  height="14"
  viewBox="0 0 16 14"
  xmlns="http://www.w3.org/2000/svg"
>
  <path
    d="M12.0173 10.858C13.2482 10.3391 14.2199 9.63272 14.932 8.73864C15.644 7.84477 16 6.87134 16 5.81829C16 4.76521 15.644 3.7917 14.9317 2.89778C14.2197 2.00387 13.2482 1.29743 12.0171 0.778368C10.786 0.25939 9.44704 0 7.99996 0C6.553 0 5.21402 0.259549 3.98287 0.778368C2.75183 1.29739 1.78022 2.00383 1.06821 2.89778C0.356108 3.79186 0 4.76521 0 5.81833C0 6.71977 0.26934 7.56863 0.807184 8.36407C1.34499 9.15935 2.08367 9.82994 3.023 10.3753C2.9473 10.5573 2.86964 10.7237 2.79008 10.8755C2.71048 11.0269 2.61587 11.1727 2.50593 11.3129C2.39608 11.4532 2.31094 11.563 2.25028 11.6423C2.18967 11.7218 2.0912 11.8338 1.95476 11.9775C1.81835 12.1215 1.73119 12.2161 1.69338 12.2615C1.69338 12.2539 1.67821 12.271 1.64788 12.3127C1.61751 12.3544 1.60048 12.3732 1.59674 12.3697C1.59292 12.3656 1.57775 12.3845 1.55124 12.4262C1.52473 12.4679 1.51144 12.4887 1.51144 12.4887L1.48298 12.5453C1.47176 12.5682 1.46404 12.5906 1.46029 12.6135C1.45647 12.6361 1.45456 12.6609 1.45456 12.6873C1.45456 12.7137 1.45831 12.7382 1.46603 12.7611C1.48119 12.8594 1.52473 12.9388 1.5967 12.9997C1.66862 13.0602 1.74619 13.0904 1.82962 13.0904H1.86373C2.24244 13.0374 2.56826 12.9768 2.84095 12.9086C4.00762 12.6057 5.06074 12.1206 6.00011 11.454C6.68188 11.5753 7.34856 11.6358 8.00004 11.6358C9.44712 11.6363 10.7863 11.377 12.0173 10.858Z"
  />
</svg>
