<svg
  width="16"
  height="16"
  viewBox="0 0 16 16"
  xmlns="http://www.w3.org/2000/svg"
>
  <path d="M14.125 3.75H13.1875V1.875H12.25V0H8.4054L7.7804 0.9375H3.75V2.8125H2.8125V4.6875H1.875V5.95178L0 8.76428V16H16V8.76428L14.125 5.95178V3.75ZM4.6875 1.875H8.2821L8.9071 0.9375H11.3125V1.875H9.3429L8.7179 2.8125H4.6875V1.875ZM3.75 3.75H9.2196L9.8446 2.8125H12.25V3.75H10.2804L9.6554 4.6875H3.75V3.75ZM2.8125 5.625H10.1571L10.7821 4.6875H13.1875V8.4375H9.88086L9.56836 9.375H6.43164L6.11914 8.4375H2.8125V5.625ZM1.875 7.64197V8.4375H1.3446L1.875 7.64197ZM15.0625 15.0625H0.9375V9.375H5.44336L5.75586 10.3125H10.2441L10.5566 9.375H15.0625V15.0625ZM14.6554 8.4375H14.125V7.64197L14.6554 8.4375Z"/>
  <path d="M5.625 11.25H10.375V12.1875H5.625V11.25Z"/>
</svg>
