<svg
  width="18"
  height="18"
  viewBox="0 0 18 18"
  xmlns="http://www.w3.org/2000/svg"
>
  <path
    d="M9.00068 0C4.03034 0 0.000976562 4.02966 0.000976562 8.99982C0.000976562 13.97 4.03034 18 9.00068 18C13.971 18 18.0009 13.9702 18.0009 8.99982C18.0009 4.02942 13.971 0 9.00068 0ZM13.279 6.4767L12.4242 7.33152L10.6842 5.59158L10.024 6.2517L11.7641 7.99176L7.49618 12.2593L5.75624 10.5196L5.09612 11.1797L6.83606 12.9196L6.41078 13.3449L6.40268 13.3368C6.35552 13.4144 6.27884 13.4711 6.18776 13.4913L4.56518 13.8531C4.54088 13.8586 4.51616 13.8612 4.49174 13.8612C4.40318 13.8612 4.31714 13.8263 4.25336 13.7624C4.17152 13.6808 4.13744 13.5631 4.16264 13.4502L4.52426 11.8281C4.54466 11.7371 4.60142 11.6602 4.67894 11.6132L4.67072 11.605L11.5389 4.73646C11.6396 4.63596 11.8032 4.63596 11.9038 4.73676L13.2792 6.11178C13.3798 6.21246 13.3798 6.37602 13.279 6.4767Z"
  />
</svg>
