<svg
  width="17"
  height="17"
  viewBox="0 0 17 17"
  xmlns="http://www.w3.org/2000/svg"
>
  <path
    d="M6.54899 10.9447L6.28816 12.4938C6.25261 12.7056 6.33951 12.9191 6.51289 13.0455C6.68655 13.1716 6.91715 13.1885 7.10688 13.089L8.4997 12.362L9.89252 13.0892C9.97492 13.1319 10.0652 13.1535 10.1546 13.1535C10.2716 13.1535 10.3883 13.1168 10.4868 13.0456C10.6603 12.9192 10.7475 12.7058 10.7116 12.494L10.4511 10.9448L11.5726 9.84467C11.726 9.69444 11.7806 9.47025 11.7148 9.26621C11.6487 9.06231 11.4719 8.91304 11.2597 8.88171L9.70565 8.65125L9.00569 7.2444C8.91076 7.05236 8.71408 6.93073 8.49956 6.93073C8.28545 6.93073 8.08891 7.05236 7.99316 7.2444L7.29389 8.65125L5.7398 8.88157C5.52719 8.9129 5.35121 9.06218 5.28502 9.26608C5.21882 9.47011 5.2733 9.69457 5.42694 9.84453L6.54899 10.9447Z"
  />
  <path
    d="M15.1787 1.80729H13.3992V0.820219C13.3992 0.367205 13.032 0 12.5788 0H12.4488C11.9958 0 11.6287 0.367205 11.6287 0.820219V1.80729H5.3501V0.820219C5.3501 0.367205 4.98289 0 4.53001 0H4.3998C3.94679 0 3.57972 0.367205 3.57972 0.820219V1.80729H1.82092C0.890242 1.80729 0.132812 2.56444 0.132812 3.4954V15.312C0.132812 16.2424 0.890242 17.0001 1.82092 17.0001H15.1788C16.1094 17.0001 16.8669 16.2426 16.8669 15.312V3.4954C16.8668 2.56444 16.1092 1.80729 15.1787 1.80729ZM14.9585 15.0918H2.04116V5.89326H14.9585V15.0918Z"
  />
</svg>
