<svg
  width="16"
  height="14"
  viewBox="0 0 16 14"
  xmlns="http://www.w3.org/2000/svg"
>
  <path
    d="M9.65531 2.31104C10.3951 2.77489 10.9139 3.55982 11.0083 4.47093C11.31 4.61191 11.6449 4.69297 11.9999 4.69297C13.296 4.69297 14.3465 3.64248 14.3465 2.34659C14.3465 1.05049 13.296 0 11.9999 0C10.7162 0.000399351 9.67488 1.03212 9.65531 2.31104ZM8.11801 7.11564C9.4141 7.11564 10.4646 6.06494 10.4646 4.76905C10.4646 3.47316 9.4139 2.42266 8.11801 2.42266C6.82211 2.42266 5.77102 3.47336 5.77102 4.76925C5.77102 6.06514 6.82211 7.11564 8.11801 7.11564ZM9.11339 7.27558H7.12223C5.46552 7.27558 4.11771 8.62359 4.11771 10.2803V12.7153L4.1239 12.7535L4.29163 12.806C5.87266 13.3 7.24622 13.4647 8.37679 13.4647C10.585 13.4647 11.8649 12.8351 11.9438 12.795L12.1005 12.7157H12.1173V10.2803C12.1179 8.62359 10.7701 7.27558 9.11339 7.27558ZM12.9957 4.85311H11.0199C10.9985 5.64363 10.6611 6.35547 10.1273 6.86744C11.6 7.30533 12.6774 8.67091 12.6774 10.2839V11.0343C14.6282 10.9628 15.7524 10.4099 15.8265 10.3727L15.9832 10.2933H16V7.85743C16 6.20092 14.6522 4.85311 12.9957 4.85311ZM4.0005 4.69337C4.45955 4.69337 4.88666 4.55939 5.24847 4.33116C5.36348 3.58098 5.76563 2.92545 6.3401 2.47897C6.34249 2.43504 6.34669 2.39151 6.34669 2.34719C6.34669 1.05109 5.29599 0.000598983 4.0005 0.000598983C2.70421 0.000598983 1.65391 1.05109 1.65391 2.34719C1.65391 3.64268 2.70421 4.69337 4.0005 4.69337ZM6.10787 6.86744C5.57674 6.35807 5.24048 5.65002 5.21592 4.8643C5.14264 4.8589 5.07016 4.85311 4.99548 4.85311H3.00452C1.34781 4.85311 0 6.20092 0 7.85743V10.2929L0.00618994 10.3304L0.173917 10.3833C1.44226 10.7793 2.57422 10.9618 3.55742 11.0193V10.2839C3.55782 8.67091 4.63487 7.30573 6.10787 6.86744Z"
  />
</svg>
