<svg
  width="16"
  height="16"
  viewBox="0 0 16 16"
  xmlns="http://www.w3.org/2000/svg"
>
  <path
    d="M13.6566 2.34343C12.1448 0.83165 10.138 0 8 0C5.86195 0 3.85522 0.83165 2.34343 2.34343C0.83165 3.85522 0 5.86195 0 8C0 10.138 0.83165 12.1448 2.34343 13.6566C3.85522 15.1684 5.86195 16 8 16C10.138 16 12.1448 15.1684 13.6566 13.6566C15.1684 12.1448 16 10.138 16 8C16 5.86195 15.1684 3.85522 13.6566 2.34343ZM13.0135 13.0135C11.6734 14.3535 9.89226 15.0909 8 15.0909C6.10774 15.0909 4.3266 14.3535 2.98653 13.0135C0.222222 10.2492 0.222222 5.75084 2.98653 2.98653C4.3266 1.64646 6.10774 0.909091 8 0.909091C9.89226 0.909091 11.6734 1.64646 13.0135 2.98653C15.7778 5.75084 15.7778 10.2492 13.0135 13.0135Z"
  />
  <path
    d="M11.5252 4.47478C11.3467 4.29633 11.0605 4.29633 10.8821 4.47478L7.9999 7.35694L5.11776 4.47478C4.9393 4.29633 4.65311 4.29633 4.47466 4.47478C4.29621 4.65323 4.29621 4.93943 4.47466 5.11788L7.35681 8.00003L4.47466 10.8822C4.29621 11.0606 4.29621 11.3468 4.47466 11.5253C4.5622 11.6128 4.68005 11.66 4.79452 11.66C4.909 11.66 5.02685 11.6162 5.11439 11.5253L7.99654 8.64313L10.8787 11.5253C10.9662 11.6128 11.0841 11.66 11.1986 11.66C11.3164 11.66 11.4309 11.6162 11.5184 11.5253C11.6969 11.3468 11.6969 11.0606 11.5184 10.8822L8.643 8.00003L11.5252 5.11788C11.7036 4.93943 11.7036 4.65323 11.5252 4.47478Z"
  />
</svg>
