<svg
  width="12"
  height="12"
  viewBox="0 0 12 12"
  xmlns="http://www.w3.org/2000/svg"
>
  <g clip-path="url(#clip0)">
    <path
      d="M11.0625 7.42969V10.5938C11.0625 10.8522 10.8522 11.0625 10.5938 11.0625H7.33594V12H10.5938C11.3692 12 12 11.3692 12 10.5938V7.42969H11.0625Z"
    />
    <path
      d="M10.5938 0H7.33594V0.9375H10.5938C10.8522 0.9375 11.0625 1.14778 11.0625 1.40625V4.61719H12V1.40625C12 0.630844 11.3692 0 10.5938 0Z"
    />
    <path
      d="M12 5.55478H8.53795L9.80025 4.29248L9.13734 3.62958L6.74524 6.02166L9.13547 8.43905L9.80212 7.77989L8.52897 6.49228H12V5.55478Z"
    />
    <path
      d="M1.40625 11.0625C1.14778 11.0625 0.9375 10.8522 0.9375 10.5938V7.42969H0V10.5938C0 11.3692 0.630844 12 1.40625 12H4.66406V11.0625H1.40625Z"
    />
    <path
      d="M1.40625 0C0.630844 0 0 0.630844 0 1.40625V4.61719H0.9375V1.40625C0.9375 1.14778 1.14778 0.9375 1.40625 0.9375H4.66406V0H1.40625Z"
    />
    <path
      d="M2.8627 3.62958L2.1998 4.29248L3.46209 5.55478H0V6.49228H3.47107L2.19792 7.77989L2.86458 8.43905L5.2548 6.02166L2.8627 3.62958Z"
    />
  </g>
  <defs>
    <clipPath id="clip0">
      <rect
        width="12"
        height="12"
      />
    </clipPath>
  </defs>
</svg>
