<svg
  width="23"
  height="23"
  viewBox="0 0 23 23"
  fill="none"
  xmlns="http://www.w3.org/2000/svg"
>
  <path
    d="M3.51831 2.71423C3.51769 2.71423 3.51699 2.71423 3.51638 2.71423C3.29884 2.71423 3.09424 2.79903 2.93975 2.95314C2.78355 3.10895 2.69751 3.31642 2.69751 3.53728V15.8787C2.69751 16.3313 3.06714 16.7004 3.52156 16.7015C5.43731 16.7061 8.64695 17.1054 10.8612 19.4225V6.50685C10.8612 6.35344 10.822 6.20932 10.748 6.09006C8.93069 3.16339 5.43839 2.71872 3.51831 2.71423Z"
    fill="#CCCCCC"
  />
  <path
    d="M20.3025 15.8787V3.5372C20.3025 3.31634 20.2164 3.10888 20.0602 2.95306C19.9057 2.79896 19.701 2.71416 19.4837 2.71416C19.483 2.71416 19.4823 2.71416 19.4817 2.71416C17.5617 2.71873 14.0694 3.16339 12.252 6.09006C12.178 6.20932 12.1389 6.35344 12.1389 6.50685V19.4224C14.3531 17.1053 17.5627 16.706 19.4785 16.7015C19.9328 16.7003 20.3025 16.3312 20.3025 15.8787Z"
    fill="#CCCCCC"
  />
  <path
    d="M22.1771 5.56035H21.5803V15.8787C21.5803 17.0342 20.6389 17.9764 19.4816 17.9793C17.8566 17.9832 15.1773 18.3009 13.2798 20.0968C16.5616 19.2933 20.0212 19.8157 21.9929 20.265C22.2391 20.321 22.4934 20.2631 22.6907 20.1059C22.8872 19.9491 23 19.7147 23 19.4631V6.38324C23.0001 5.92951 22.6308 5.56035 22.1771 5.56035Z"
    fill="#CCCCCC"
  />
  <path
    d="M1.41965 15.8787V5.56035H0.822892C0.36924 5.56035 0 5.92951 0 6.38324V19.4628C0 19.7145 0.112755 19.9489 0.309301 20.1057C0.506389 20.2628 0.760551 20.321 1.00712 20.2647C2.97878 19.8153 6.43847 19.2931 9.72013 20.0966C7.82266 18.3008 5.14334 17.9831 3.51839 17.9792C2.36119 17.9764 1.41965 17.0342 1.41965 15.8787Z"
    fill="#CCCCCC"
  />
</svg>
