<svg
  width="34"
  height="34"
  viewBox="0 0 34 34"
  fill="none"
  xmlns="http://www.w3.org/2000/svg"
>
  <g clip-path="url(#clip0)">
    <path
      d="M27.5078 4.25012H23.9219V4.07918C23.9219 3.01823 23.0589 2.15495 21.9977 2.15495H20.7663C20.2044 0.864441 18.9175 0.00012207 17.4781 0.00012207H17.35C15.9106 0.00012207 14.6237 0.864441 14.0618 2.15495H12.8305C11.7693 2.15495 10.9062 3.01823 10.9062 4.07918V4.25012H7.32031C5.24123 4.25012 4 5.2431 4 6.90637V30.6798C4 32.5107 5.48947 34.0001 7.32031 34.0001H27.5078C29.3387 34.0001 30.8281 32.5107 30.8281 30.6798V15.6499C30.8281 15.2832 30.5309 14.9859 30.1641 14.9859C29.7973 14.9859 29.5 15.2832 29.5 15.6499V30.6798C29.5 31.7784 28.6064 32.672 27.5078 32.672H7.32031C6.22176 32.672 5.32812 31.7784 5.32812 30.6798V6.90637C5.32812 6.57797 5.32812 5.57825 7.32031 5.57825H10.9062V6.50793C10.9062 6.87473 11.2035 7.172 11.5703 7.172H23.2578C23.6246 7.172 23.9219 6.87473 23.9219 6.50793V5.57825H27.5078C28.6064 5.57825 29.5 6.47188 29.5 7.57043V9.8062C29.5 10.173 29.7973 10.4703 30.1641 10.4703C30.5309 10.4703 30.8281 10.173 30.8281 9.8062V7.57043C30.8281 5.73959 29.3387 4.25012 27.5078 4.25012ZM22.5938 5.84387H12.2344V4.07918C12.2344 3.75052 12.5018 3.48308 12.8305 3.48308H14.5306C14.8304 3.48308 15.093 3.2823 15.1716 2.99307C15.4374 2.0128 16.3334 1.32825 17.35 1.32825H17.4781C18.4947 1.32825 19.3907 2.0128 19.6568 2.99307C19.7352 3.2823 19.9979 3.48308 20.2975 3.48308H21.9979C22.3266 3.48308 22.5938 3.75052 22.5938 4.07918V5.84387Z"
      fill="#DAE7F3"
    />
    <path
      d="M30.1641 11.9208C29.9895 11.9208 29.818 11.9911 29.6945 12.1145C29.5711 12.2388 29.5 12.4095 29.5 12.5841C29.5 12.7594 29.5711 12.9301 29.6945 13.0541C29.818 13.1778 29.9895 13.2489 30.1641 13.2489C30.3386 13.2489 30.5101 13.1778 30.6336 13.0541C30.757 12.9306 30.8281 12.7594 30.8281 12.5841C30.8281 12.4095 30.757 12.238 30.6336 12.1145C30.5101 11.9911 30.3386 11.9208 30.1641 11.9208Z"
      fill="#DAE7F3"
    />
    <path
      d="M11.814 9.56262C10.276 9.56262 9.0249 10.8137 9.0249 12.3517C9.0249 13.8897 10.276 15.1407 11.814 15.1407C13.3517 15.1407 14.603 13.8897 14.603 12.3517C14.603 10.8137 13.3517 9.56262 11.814 9.56262ZM11.814 13.8126C11.0083 13.8126 10.353 13.1574 10.353 12.3517C10.353 11.546 11.0083 10.8907 11.814 10.8907C12.6194 10.8907 13.2749 11.546 13.2749 12.3517C13.2749 13.1574 12.6194 13.8126 11.814 13.8126Z"
      fill="#DAE7F3"
    />
    <path
      d="M11.814 17.5314C10.276 17.5314 9.0249 18.7825 9.0249 20.3204C9.0249 21.8584 10.276 23.1095 11.814 23.1095C13.3517 23.1095 14.603 21.8584 14.603 20.3204C14.603 18.7825 13.3517 17.5314 11.814 17.5314ZM11.814 21.7814C11.0083 21.7814 10.353 21.1261 10.353 20.3204C10.353 19.5147 11.0083 18.8595 11.814 18.8595C12.6194 18.8595 13.2749 19.5147 13.2749 20.3204C13.2749 21.1261 12.6194 21.7814 11.814 21.7814Z"
      fill="#DAE7F3"
    />
    <path
      d="M11.814 25.5001C10.276 25.5001 9.0249 26.7512 9.0249 28.2892C9.0249 29.8272 10.276 31.0782 11.814 31.0782C13.3517 31.0782 14.603 29.8272 14.603 28.2892C14.603 26.7512 13.3517 25.5001 11.814 25.5001ZM11.814 29.7501C11.0083 29.7501 10.353 29.0949 10.353 28.2892C10.353 27.4835 11.0083 26.8282 11.814 26.8282C12.6194 26.8282 13.2749 27.4835 13.2749 28.2892C13.2749 29.0949 12.6194 29.7501 11.814 29.7501Z"
      fill="#DAE7F3"
    />
    <path
      d="M25.1393 13.8126H17.5249C17.1581 13.8126 16.8608 14.1099 16.8608 14.4767C16.8608 14.8435 17.1581 15.1407 17.5249 15.1407H25.1396C25.5061 15.1407 25.8036 14.8435 25.8036 14.4767C25.8036 14.1099 25.5061 13.8126 25.1393 13.8126Z"
      fill="#DAE7F3"
    />
    <path
      d="M25.1393 10.6251H17.5249C17.1581 10.6251 16.8608 10.9224 16.8608 11.2892C16.8608 11.656 17.1581 11.9532 17.5249 11.9532H25.1396C25.5061 11.9532 25.8036 11.656 25.8036 11.2892C25.8036 10.9224 25.5061 10.6251 25.1393 10.6251Z"
      fill="#DAE7F3"
    />
    <path
      d="M25.1393 21.7814H17.5249C17.1581 21.7814 16.8608 22.0786 16.8608 22.4454C16.8608 22.8122 17.1581 23.1095 17.5249 23.1095H25.1396C25.5061 23.1095 25.8036 22.8122 25.8036 22.4454C25.8036 22.0786 25.5061 21.7814 25.1393 21.7814Z"
      fill="#DAE7F3"
    />
    <path
      d="M25.1393 18.5939H17.5249C17.1581 18.5939 16.8608 18.8911 16.8608 19.2579C16.8608 19.6247 17.1581 19.922 17.5249 19.922H25.1396C25.5061 19.922 25.8036 19.6247 25.8036 19.2579C25.8036 18.8911 25.5061 18.5939 25.1393 18.5939Z"
      fill="#DAE7F3"
    />
    <path
      d="M25.1393 29.7501H17.5249C17.1581 29.7501 16.8608 30.0474 16.8608 30.4142C16.8608 30.781 17.1581 31.0782 17.5249 31.0782H25.1396C25.5061 31.0782 25.8036 30.781 25.8036 30.4142C25.8036 30.0474 25.5061 29.7501 25.1393 29.7501Z"
      fill="#DAE7F3"
    />
    <path
      d="M25.1393 26.5626H17.5249C17.1581 26.5626 16.8608 26.8599 16.8608 27.2267C16.8608 27.5935 17.1581 27.8907 17.5249 27.8907H25.1396C25.5061 27.8907 25.8036 27.5935 25.8036 27.2267C25.8036 26.8599 25.5061 26.5626 25.1393 26.5626Z"
      fill="#DAE7F3"
    />
  </g>
  <defs>
    <clipPath id="clip0">
      <rect
        width="34"
        height="34"
        fill="white"
        transform="translate(0 0.00012207)"
      />
    </clipPath>
  </defs>
</svg>
