<svg
  width="34"
  height="34"
  viewBox="0 0 34 34"
  fill="none"
  xmlns="http://www.w3.org/2000/svg"
>
  <path
    d="M33.3359 9.82812C33.1613 9.82812 32.99 9.89918 32.8664 10.0227C32.7429 10.1462 32.6719 10.3175 32.6719 10.4922C32.6719 10.6668 32.7429 10.8382 32.8664 10.9617C32.99 11.0852 33.1613 11.1562 33.3359 11.1562C33.5106 11.1562 33.6819 11.0852 33.8054 10.9617C33.9289 10.8382 34 10.6668 34 10.4922C34 10.3175 33.9289 10.1462 33.8054 10.0227C33.6819 9.89918 33.5106 9.82812 33.3359 9.82812Z"
    fill="#DAE7F3"
  />
  <path
    d="M30.6797 0H7.30469C5.47387 0 3.98438 1.48949 3.98438 3.32031V4.91406H1.99219C0.893695 4.91406 0 5.80776 0 6.90625C0 8.00474 0.893695 8.89844 1.99219 8.89844H3.98438V15.0078H1.99219C0.893695 15.0078 0 15.9015 0 17C0 18.0985 0.893695 18.9922 1.99219 18.9922H3.98438V25.1016H1.99219C0.893695 25.1016 0 25.9953 0 27.0938C0 28.1922 0.893695 29.0859 1.99219 29.0859H3.98438V30.6797C3.98438 32.5105 5.47387 34 7.30469 34H30.6797C32.5105 34 34 32.5105 34 30.6797V13.1484C34 12.7817 33.7027 12.4844 33.3359 12.4844C32.9692 12.4844 32.6719 12.7817 32.6719 13.1484V30.6797C32.6719 31.7782 31.7782 32.6719 30.6797 32.6719H7.30469C6.2062 32.6719 5.3125 31.7782 5.3125 30.6797V29.0859H6.24219C7.34068 29.0859 8.23438 28.1922 8.23438 27.0938C8.23438 25.9953 7.34068 25.1016 6.24219 25.1016H5.3125V18.9922H6.24219C7.34068 18.9922 8.23438 18.0985 8.23438 17C8.23438 15.9015 7.34068 15.0078 6.24219 15.0078H5.3125V8.89844H6.24219C7.34068 8.89844 8.23438 8.00474 8.23438 6.90625C8.23438 5.80776 7.34068 4.91406 6.24219 4.91406H5.3125V3.32031C5.3125 2.22182 6.2062 1.32812 7.30469 1.32812H30.6797C31.7782 1.32812 32.6719 2.22182 32.6719 3.32031V7.80765C32.6719 8.17441 32.9692 8.47171 33.3359 8.47171C33.7027 8.47171 34 8.17441 34 7.80765V3.32031C34 1.48949 32.5105 0 30.6797 0ZM6.90625 27.0938C6.90625 27.4599 6.60835 27.7578 6.24219 27.7578H1.99219C1.62602 27.7578 1.32812 27.4599 1.32812 27.0938C1.32812 26.7276 1.62602 26.4297 1.99219 26.4297H6.24219C6.60835 26.4297 6.90625 26.7276 6.90625 27.0938ZM6.90625 17C6.90625 17.3662 6.60835 17.6641 6.24219 17.6641H1.99219C1.62602 17.6641 1.32812 17.3662 1.32812 17C1.32812 16.6338 1.62602 16.3359 1.99219 16.3359H6.24219C6.60835 16.3359 6.90625 16.6338 6.90625 17ZM6.90625 6.90625C6.90625 7.27241 6.60835 7.57031 6.24219 7.57031H1.99219C1.62602 7.57031 1.32812 7.27241 1.32812 6.90625C1.32812 6.54009 1.62602 6.24219 1.99219 6.24219H6.24219C6.60835 6.24219 6.90625 6.54009 6.90625 6.90625Z"
    fill="#DAE7F3"
  />
  <path
    d="M11.9863 26.6243C11.8628 26.7478 11.7917 26.9191 11.7917 27.0938C11.7917 27.2684 11.8628 27.4397 11.9863 27.5632C12.1098 27.6868 12.2812 27.7578 12.4558 27.7578C12.6305 27.7578 12.8018 27.6868 12.9253 27.5632C13.0488 27.4397 13.1199 27.2684 13.1199 27.0938C13.1199 26.9191 13.0488 26.7478 12.9253 26.6243C12.8018 26.5007 12.6305 26.4297 12.4558 26.4297C12.2812 26.4297 12.1098 26.5007 11.9863 26.6243Z"
    fill="#DAE7F3"
  />
  <path
    d="M27.8242 23.4266V18.0603C27.8242 16.0936 26.2241 14.4934 24.2573 14.4934H22.0775C22.8033 13.7295 23.2502 12.6981 23.2502 11.5636V9.33087V9.17197C23.2502 6.82417 21.34 4.91406 18.9922 4.91406C16.6443 4.91406 14.7342 6.82417 14.7342 9.17203V9.33094V11.5637C14.7342 12.6981 15.1811 13.7295 15.9069 14.4935H13.727C11.7603 14.4935 10.1602 16.0936 10.1602 18.0604V23.4267C10.1602 23.7934 10.4575 24.0907 10.8242 24.0907H27.1602C27.5269 24.0907 27.8242 23.7934 27.8242 23.4266ZM16.1533 15.8216H17.7617L16.1533 17.367V15.8216ZM21.8311 15.8216V17.367L20.2227 15.8216H21.8311ZM16.0623 9.17203C16.0623 7.5565 17.3767 6.24219 18.9922 6.24219C20.505 6.24219 21.7536 7.3946 21.9064 8.86763L20.5183 8.05216C20.2386 7.8878 19.8812 7.94963 19.6729 8.19818C19.0472 8.94486 18.1296 9.37311 17.1555 9.37311H16.0623V9.33094V9.17203ZM16.0623 11.5637V10.7012H17.1555C18.3324 10.7012 19.4507 10.256 20.2996 9.46402L21.922 10.4172V11.5637C21.922 13.1792 20.6077 14.4935 18.9922 14.4935C17.3767 14.4935 16.0623 13.1792 16.0623 11.5637ZM26.4961 22.7625H11.4883V18.0603C11.4883 16.8259 12.4926 15.8216 13.727 15.8216H14.8251V18.926C14.8251 19.1921 14.9841 19.4326 15.2289 19.5369C15.4738 19.6412 15.7573 19.5892 15.9493 19.4048L18.3281 17.1192V19.1184C18.3281 19.4851 18.6254 19.7824 18.9922 19.7824C19.3589 19.7824 19.6562 19.4851 19.6562 19.1184V17.1191L22.0351 19.4048C22.1613 19.5261 22.327 19.5901 22.4953 19.5901C22.583 19.5901 22.6715 19.5727 22.7554 19.537C23.0003 19.4327 23.1592 19.1922 23.1592 18.926V15.8216H24.2573C25.4918 15.8216 26.4961 16.8259 26.4961 18.0604V22.7625Z"
    fill="#DAE7F3"
  />
  <path
    d="M15.1121 26.4297C14.7453 26.4297 14.448 26.727 14.448 27.0938C14.448 27.4605 14.7453 27.7578 15.1121 27.7578H25.5001C25.8668 27.7578 26.1641 27.4605 26.1641 27.0938C26.1641 26.727 25.8668 26.4297 25.5001 26.4297H15.1121Z"
    fill="#DAE7F3"
  />
</svg>
