<svg
  width="19"
  height="19"
  viewBox="0 0 19 19"
  xmlns="http://www.w3.org/2000/svg"
>
  <path d="M7.83008 10.0566H11.1699V11.1699H7.83008V10.0566Z"/>
  <path
    d="M15.4145 11.17H12.2832V11.7266C12.2832 12.0342 12.0342 12.2832 11.7266 12.2832H7.27344C6.96584 12.2832 6.7168 12.0342 6.7168 11.7266V11.17H3.58555C2.86583 11.17 2.22932 10.7112 2.00144 10.0284L0 4.02307V16.1797C0 17.1005 0.749146 17.8496 1.66992 17.8496H17.3301C18.2509 17.8496 19 17.1005 19 16.1797V4.02351L16.9984 10.0284C16.7707 10.7112 16.1342 11.17 15.4145 11.17Z"
  />
  <path
    d="M11.7268 1.15039H7.2737C6.35293 1.15039 5.60378 1.89954 5.60378 2.82031V3.37695H0.958008L3.05744 9.67612C3.13354 9.90385 3.34605 10.0566 3.58582 10.0566H6.71706V9.5C6.71706 9.1924 6.9661 8.94336 7.2737 8.94336H11.7268C12.0344 8.94336 12.2835 9.1924 12.2835 9.5V10.0566H15.4147C15.6545 10.0566 15.867 9.90385 15.9431 9.67612L18.0427 3.37695H13.3968V2.82031C13.3968 1.89954 12.6476 1.15039 11.7268 1.15039ZM6.71706 3.37695V2.82031C6.71706 2.51315 6.96654 2.26367 7.2737 2.26367H11.7268C12.034 2.26367 12.2835 2.51315 12.2835 2.82031V3.37695H6.71706Z"
  />
</svg>
