<svg
  width="16"
  height="15"
  viewBox="0 0 16 15"
  fill="none"
  xmlns="http://www.w3.org/2000/svg"
>
  <path
    d="M1.59961 7.19983C1.59961 11.1762 4.82317 14.3997 8.79952 14.3997C12.7759 14.3997 15.9994 11.1762 15.9994 7.19983H8.79952H1.59961Z"
    fill="#DC4C2C"
  />
  <path
    d="M8.7998 0V7.19991H15.9997C15.9997 3.22356 12.7762 0 8.7998 0Z"
    fill="#F7A278"
  />
  <path
    d="M8.8005 0C4.82415 0 1.60059 3.22356 1.60059 7.19991H8.8005V0Z"
    fill="#C06346"
  />
  <path
    d="M7.32751 11.1999H0.672392C0.301196 11.1999 0 10.8987 0 10.5275V3.87234C0 3.50115 0.301196 3.19995 0.672392 3.19995H7.32751C7.6987 3.19995 7.9999 3.50115 7.9999 3.87234V10.5275C7.9999 10.8987 7.6987 11.1999 7.32751 11.1999Z"
    fill="#9B341F"
  />
  <path
    d="M4.26957 5.20471H2.40039V9.20466H3.20998V7.79628H4.12037C4.87076 7.79628 5.47915 7.18789 5.47915 6.4375V6.4143C5.47915 5.74631 4.93756 5.20471 4.26957 5.20471ZM4.62836 6.5431C4.62836 6.88669 4.34957 7.16549 4.00597 7.16549H3.20998V5.8355H4.00597C4.34957 5.8355 4.62836 6.1143 4.62836 6.4579V6.5431Z"
    fill="white"
  />
</svg>
