<svg
  width="21"
  height="21"
  viewBox="0 0 21 21"
  fill="none"
  xmlns="http://www.w3.org/2000/svg"
>
  <path
    d="M17.7414 5.7931V0.724138H5.72645C5.57689 0.303021 5.17911 0 4.7069 0C4.10687 0 3.62069 0.486177 3.62069 1.08621C3.62069 1.55842 3.92371 1.9562 4.34483 2.10576V4.26121L0 7.60345L4.34483 10.9457V13.3966H2.17241V16.2931H4.34483V18.8942C3.92371 19.0438 3.62069 19.4416 3.62069 19.9138C3.62069 20.5138 4.10687 21 4.7069 21C5.30693 21 5.7931 20.5138 5.7931 19.9138C5.7931 19.4416 5.49008 19.0438 5.06897 18.8942V16.2931H7.24138V13.3966H5.06897V10.9457L8.94317 7.96552H13.7586V9.41379H21V5.7931H17.7414ZM13.7586 7.24138H8.94317L5.06897 4.26156V2.10612C5.37605 1.99686 5.61755 1.75572 5.72645 1.44863H17.0172V5.79346H13.7586V7.24138ZM19.5517 8.68966H14.4828V7.96552H19.5517V8.68966ZM20.2759 7.24138H14.4828V6.51724H20.2759V7.24138Z"
    fill="#DADADA"
  />
</svg>
