<svg
  width="80"
  height="80"
  viewBox="0 0 80 80"
  fill="none"
  xmlns="http://www.w3.org/2000/svg"
>
  <path
    d="M37.0295 33.5623H37.9412L38.7961 39.6586C39.1961 39.6816 39.5917 39.7189 39.9978 39.7189C40.3907 39.7189 40.7756 39.6825 41.1623 39.6603L41.8257 33.5623H42.7675C51.1394 33.5623 58.0108 23.3395 59.8315 20.3641C59.8369 20.1956 59.8573 20.0297 59.8573 19.8603C59.859 8.89253 50.9665 0 39.9987 0C29.0309 0 20.1393 8.89253 20.1393 19.8603C20.1393 20.1477 20.1694 20.4288 20.1819 20.7135C22.289 24.064 28.9715 33.5623 37.0295 33.5623ZM23.5537 20.247V15.7861C23.5537 14.6092 24.7013 13.6887 26.1655 13.6887H36.3928C37.857 13.6887 39.0028 13.561 39.0028 14.7387V15.1449H40.6373V14.7387C40.6373 13.5618 41.7831 13.6887 43.2473 13.6887H53.4737C54.9388 13.6887 56.0855 14.6092 56.0855 15.7861V20.247C56.0855 21.423 54.9388 22.3453 53.4737 22.3453H43.2482C41.784 22.3453 40.6382 21.423 40.6382 20.247V18.0946H39.0037V20.247C39.0037 21.423 37.8578 22.3453 36.3936 22.3453H26.1655C24.7013 22.3453 23.5537 21.423 23.5537 20.247ZM63.5289 41.4083C62.8513 39.5983 59.6134 31.2875 61.2284 21.5631C61.2284 21.5631 53.2466 36.1129 42.7675 36.1129L40.6036 49.681H44.4144V51.4999H40.3136L40.2603 51.8325L40.1921 51.4999H39.9987V50.5598L39.7194 49.1985H35.5831V47.3787H39.346L37.0304 36.1129C26.5504 36.1129 18.5687 21.5631 18.5687 21.5631C20.3672 32.3925 16.1467 41.7276 16.1467 41.7276C11.8924 45.9198 9.24512 51.7367 9.24512 58.1664V74.2736L9.29212 74.5662L10.5843 74.9697C21.8323 78.4844 31.6968 79.8173 39.9987 80V79.2887H44.4144V79.9938C59.8945 79.5654 68.8394 75.1781 69.4194 74.8855L70.6246 74.2744H70.7532V58.1664C70.7541 51.5744 67.9747 45.6227 63.5289 41.4083ZM35.5831 51.6303H39.9987V53.4492H35.5831V51.6303ZM35.5831 55.8828H39.9987V57.7017H35.5831V55.8828ZM35.5831 60.1352H39.9987V61.9542H35.5831V60.1352ZM35.5831 68.4824H39.9987V70.3013H35.5831V68.4824ZM35.5831 72.7348H39.9987V74.5538H35.5831V72.7348ZM39.9987 78.8054H35.5831V76.9865H39.9987V78.8054ZM44.4153 76.857H39.9996V75.038H44.4153V76.857ZM44.4153 72.6045H39.9996V70.7855H44.4153V72.6045ZM44.4153 68.352H39.9996V66.5331H44.4153V68.352ZM44.4153 64.2574H39.9996V66.0497H35.5839V64.2308H39.9996V62.4384H44.4153V64.2574ZM44.4153 60.0049H39.9996V58.1859H44.4153V60.0049ZM44.4153 55.7533H39.9996V53.9334H44.4153V55.7533Z"
    fill="#E0E0E0"
  />
</svg>
