<svg
  width="23"
  height="23"
  viewBox="0 0 23 23"
  xmlns="http://www.w3.org/2000/svg"
>
  <g clip-path="url(#clip0)">
    <path
      d="M19.431 6.34483V0.793103H6.27183C6.10802 0.33188 5.67235 0 5.15517 0C4.498 0 3.96552 0.532479 3.96552 1.18966C3.96552 1.70684 4.2974 2.1425 4.75862 2.30631V4.66703L0 8.32759L4.75862 11.9881V14.6724H2.37931V17.8448H4.75862V20.6937C4.2974 20.8575 3.96552 21.2932 3.96552 21.8103C3.96552 22.4675 4.498 23 5.15517 23C5.81235 23 6.34483 22.4675 6.34483 21.8103C6.34483 21.2932 6.01295 20.8575 5.55172 20.6937V17.8448H7.93103V14.6724H5.55172V11.9881L9.7949 8.72414H15.069V10.3103H23V6.34483H19.431ZM15.069 7.93103H9.7949L5.55172 4.66742V2.3067C5.88806 2.18704 6.15255 1.92293 6.27183 1.58659H18.6379V6.34521H15.069V7.93103ZM21.4138 9.51724H15.8621V8.72414H21.4138V9.51724ZM22.2069 7.93103H15.8621V7.13793H22.2069V7.93103Z"
    />
    <path
      d="M10.707 20.2241H21.8105V14.6724H10.707V20.2241ZM13.0863 15.4655H21.0174V16.2586H13.0863V15.4655ZM13.0863 17.0517H21.0174V17.8448H13.0863V17.0517ZM13.0863 18.6379H21.0174V19.431H13.0863V18.6379ZM11.5001 15.4655H12.2932V16.2586H11.5001V15.4655ZM11.5001 17.0517H12.2932V17.8448H11.5001V17.0517ZM11.5001 18.6379H12.2932V19.431H11.5001V18.6379Z"
    />
  </g>
  <defs>
    <clipPath id="clip0">
      <rect
        width="23"
        height="23"
        fill="white"
      />
    </clipPath>
  </defs>
</svg>
