<svg
  width="20"
  height="20"
  viewBox="0 0 20 20"
  fill="none"
  xmlns="http://www.w3.org/2000/svg"
>
  <path
    d="M2.96066 0H1.77155L0.246094 1.42452L1.04239 2.27709C1.35647 2.00046 1.54344 1.79836 1.60332 1.67137H1.62575V1.80602C1.62575 2.10512 1.62379 2.55745 1.62009 3.16324C1.61632 3.76895 1.61444 4.22509 1.61444 4.5317H0.41417V5.64223H4.17196V4.5317H2.96066V0Z"
    fill="#DADADA"
  />
  <path
    d="M19.8597 2.87718C19.7883 2.80611 19.7044 2.77063 19.6071 2.77063H5.96714C5.86994 2.77063 5.78598 2.80611 5.71479 2.87718C5.64388 2.94825 5.6084 3.03233 5.6084 3.12957V5.28325C5.6084 5.38049 5.64376 5.46457 5.71479 5.53564C5.78598 5.60664 5.86994 5.64219 5.96714 5.64219H19.6072C19.7045 5.64219 19.7886 5.60664 19.8597 5.53564C19.9307 5.46457 19.9661 5.38049 19.9661 5.28325V3.12957C19.9662 3.03237 19.9307 2.94825 19.8597 2.87718Z"
    fill="#DADADA"
  />
  <path
    d="M2.89378 16.534L3.9594 15.244V14.2569H0.224043V15.9619H1.41299V15.3673C1.53267 15.3673 1.71398 15.364 1.95714 15.3565C2.20002 15.3488 2.38146 15.3452 2.50113 15.3452V15.3565C2.35887 15.4911 2.22065 15.6349 2.08601 15.7883C1.95136 15.9417 1.79248 16.1435 1.60924 16.3937C1.42612 16.6443 1.30471 16.8071 1.24484 16.8818L1.5364 17.51C2.32158 17.45 2.71423 17.6593 2.71423 18.1381C2.71423 18.3474 2.63385 18.5063 2.47304 18.6146C2.31239 18.7233 2.12349 18.7774 1.90661 18.7774C1.48041 18.7774 1.08403 18.6092 0.717664 18.2726L0.078125 19.2597C0.571668 19.7533 1.21478 20 2.00755 20C2.61322 20 3.11981 19.8282 3.52754 19.4841C3.93508 19.14 4.13883 18.6689 4.13883 18.0708C4.13883 17.6893 4.02651 17.3603 3.80245 17.0835C3.57803 16.807 3.27531 16.6236 2.89378 16.534Z"
    fill="#DADADA"
  />
  <path
    d="M2.98322 11.7106H1.55862C1.5662 11.5236 1.69892 11.3273 1.95693 11.1219C2.21494 10.9163 2.49703 10.7275 2.80379 10.5554C3.11028 10.3833 3.39073 10.1424 3.64504 9.83206C3.89932 9.52168 4.02641 9.17955 4.02641 8.80564C4.02641 8.27466 3.83952 7.854 3.46565 7.54366C3.09186 7.23335 2.63183 7.07812 2.08595 7.07812C1.65213 7.07812 1.25763 7.18468 0.902423 7.39786C0.547255 7.61096 0.279975 7.90825 0.100465 8.28975L1.054 8.95152C1.31578 8.5177 1.61861 8.3009 1.96255 8.3009C2.14964 8.3009 2.29729 8.35139 2.40576 8.45232C2.51408 8.55345 2.56845 8.69729 2.56845 8.88426C2.56845 9.05623 2.48053 9.2245 2.30479 9.389C2.12897 9.5535 1.91776 9.71612 1.67091 9.87692C1.42418 10.0377 1.17733 10.2154 0.930632 10.4098C0.6839 10.6042 0.472489 10.8584 0.296751 11.1724C0.121092 11.4865 0.0332031 11.8343 0.0332031 12.2157C0.0332031 12.3502 0.0556369 12.5522 0.100426 12.8214H4.16102V11.0376V11.0374H2.98322V11.7106Z"
    fill="#DADADA"
  />
  <path
    d="M19.6071 14.2569H5.96714C5.86252 14.2569 5.77647 14.2906 5.70929 14.3578C5.64199 14.4251 5.6084 14.5111 5.6084 14.6157V16.7695C5.6084 16.8667 5.64376 16.9508 5.71479 17.0218C5.78598 17.0929 5.86994 17.1283 5.96714 17.1283H19.6072C19.7045 17.1283 19.7886 17.0931 19.8597 17.0218C19.9307 16.9508 19.9661 16.8667 19.9661 16.7695V14.6158C19.9661 14.5187 19.9305 14.4345 19.8597 14.3635C19.7885 14.2925 19.7044 14.2569 19.6071 14.2569Z"
    fill="#DADADA"
  />
  <path
    d="M19.6071 8.51373H5.96714C5.86252 8.51373 5.77647 8.54732 5.70929 8.61463C5.64199 8.68193 5.6084 8.76797 5.6084 8.87263V11.0264C5.6084 11.1236 5.64376 11.2076 5.71479 11.2787C5.78598 11.3499 5.86994 11.3854 5.96714 11.3854H19.6072C19.7045 11.3854 19.7886 11.3499 19.8597 11.2787C19.9307 11.2076 19.9661 11.1236 19.9661 11.0264V8.87263C19.9661 8.77543 19.9305 8.69132 19.8597 8.62028C19.7885 8.54925 19.7044 8.51373 19.6071 8.51373Z"
    fill="#DADADA"
  />
</svg>
