<svg
  width="20"
  height="20"
  viewBox="0 0 20 20"
  fill="none"
  xmlns="http://www.w3.org/2000/svg"
>
  <path
    d="M9.9998 0.000244141C4.47707 0.000244141 0 4.47744 0 10C0 15.5226 4.47707 19.9998 9.9998 19.9998C15.5223 19.9998 20 15.5225 20 10C20 4.47724 15.5223 0.000244141 9.9998 0.000244141ZM7.3978 5.43224L9.51193 3.31831C9.6504 3.17998 9.83127 3.11131 10.0123 3.11131C10.0141 3.11131 10.0159 3.11131 10.0175 3.11131C10.0195 3.11131 10.0211 3.11131 10.0227 3.11131C10.2037 3.11131 10.385 3.17998 10.5235 3.31831L12.6373 5.43224C12.9139 5.70871 12.9139 6.15704 12.6373 6.43338C12.4991 6.57171 12.3177 6.64084 12.1367 6.64084C11.9553 6.64084 11.7743 6.57171 11.6362 6.43338L10.7018 5.49918V7.64978V9.03304V9.29224C10.7018 9.68338 10.3847 10.0003 9.9936 10.0003C9.60247 10.0003 9.28573 9.68338 9.28573 9.29224V9.03304V7.64978V5.54718L8.39927 6.43351C8.2608 6.57184 8.07973 6.64098 7.89873 6.64098C7.71733 6.64098 7.53633 6.57184 7.398 6.43351C7.12127 6.15704 7.12127 5.70851 7.3978 5.43224ZM15.4384 13.9546H15.4382C15.4382 14.9102 14.5011 15.6589 13.3045 15.6589H6.69573C5.4994 15.6589 4.56207 14.9102 4.56207 13.9546V9.35404C4.56207 8.39824 5.4992 7.64951 6.69573 7.64951H7.58807C7.68953 7.66764 7.79333 7.67824 7.8986 7.67824C8.0032 7.67824 8.10627 7.66751 8.20727 7.64951H8.24807V9.03278H6.69573C6.2114 9.03278 5.94533 9.27418 5.94533 9.35404V13.9546C5.94533 14.0344 6.21147 14.2756 6.69573 14.2756H13.3047C13.7891 14.2756 14.0551 14.0342 14.0551 13.9546V9.35404C14.0551 9.27418 13.789 9.03278 13.3047 9.03278H11.7391V7.64951H11.8349C11.9336 7.66664 12.0341 7.67824 12.1366 7.67824C12.2419 7.67824 12.3455 7.66771 12.4471 7.64951H13.3047C14.5013 7.64951 15.4384 8.39838 15.4384 9.35404V13.9546Z"
    fill="#74A1E3"
  />
</svg>
