<svg
  width="12"
  height="6"
  viewBox="0 0 12 6"
  fill="none"
  xmlns="http://www.w3.org/2000/svg"
>
  <path
    d="M11.9305 2.82003L9.26388 0.389435C9.18979 0.32926 9.1088 0.317682 9.02082 0.354726C8.93294 0.391819 8.88882 0.458902 8.88882 0.556171V2.11174H0.222217C0.157371 2.11174 0.104103 2.13253 0.0624863 2.1742C0.0208936 2.21584 0 2.26911 0 2.33391V3.66721C0 3.73198 0.0207963 3.78525 0.062462 3.82684C0.104176 3.86848 0.157444 3.88928 0.222193 3.88928H8.88887V5.44482C8.88887 5.53754 8.93306 5.60462 9.02089 5.64617C9.10894 5.68336 9.18994 5.6693 9.26403 5.60462L11.9306 3.14611C11.9769 3.09984 12 3.04439 12 2.97952C12 2.91949 11.9768 2.86632 11.9305 2.82003Z"
    fill="#CECECE"
  />
</svg>
