<svg width="18" height="11" viewBox="0 0 18 11" fill="none" xmlns="http://www.w3.org/2000/svg">
<path fill-rule="evenodd" clip-rule="evenodd" d="M16.9174 0.743118C17.0459 0.323923 16.9174 0.019054 16.3486 0.019054H14.4587C13.9816 0.019054 13.7615 0.285815 13.633 0.57163C13.633 0.57163 12.6605 3.01058 11.3028 4.59209C10.8624 5.0494 10.6605 5.20183 10.422 5.20183C10.2936 5.20183 10.1284 5.0494 10.1284 4.6302V0.724064C10.1284 0.228651 9.98165 0 9.57798 0H6.6055C6.31193 0 6.12844 0.228651 6.12844 0.457303C6.12844 0.933661 6.80734 1.04799 6.88073 2.38179V5.27805C6.88073 5.90684 6.77064 6.02117 6.53211 6.02117C5.88991 6.02117 4.33027 3.56316 3.39449 0.762173C3.21101 0.209598 3.02752 0 2.55046 0H0.642202C0.0917431 0 0 0.26676 0 0.552575C0 1.06704 0.642202 3.65843 2.99083 7.08821C4.55046 9.4319 6.77064 10.6895 8.77064 10.6895C9.98165 10.6895 10.1284 10.4037 10.1284 9.92731V8.15526C10.1284 7.58363 10.2385 7.48835 10.6239 7.48835C10.8991 7.48835 11.3945 7.64079 12.5138 8.76499C13.7982 10.0988 14.0183 10.7085 14.7339 10.7085H16.6239C17.1743 10.7085 17.4312 10.4227 17.2844 9.87015C17.1193 9.31757 16.4954 8.51729 15.6881 7.56457C15.2477 7.03105 14.5872 6.44037 14.3853 6.15455C14.1101 5.77346 14.1835 5.62103 14.3853 5.27805C14.367 5.27805 16.6789 1.88638 16.9174 0.743118Z" fill="white"/>
</svg>
