<svg width="140" height="140" viewBox="0 0 140 140" fill="none" xmlns="http://www.w3.org/2000/svg">
<path d="M70 140C108.66 140 140 108.66 140 70C140 31.3401 108.66 0 70 0C31.3401 0 0 31.3401 0 70C0 108.66 31.3401 140 70 140Z" fill="#1C9AEA"/>
<path d="M91.6502 39.9098L91.4702 39.7298C90.2302 38.8398 88.5502 39.1998 87.6702 40.4398C87.6702 40.4398 73.0702 62.0298 72.1802 63.2698C70.4102 65.7498 70.7702 66.0998 68.7302 63.1798C67.7602 61.7598 53.3302 40.4398 53.3302 40.4398C52.4502 39.1998 50.7702 38.8398 49.5302 39.7298L49.2602 39.9098C48.0202 40.6998 47.7602 42.4698 48.6402 43.7098C48.6402 43.7098 65.0102 67.4298 66.0802 68.9298C67.1402 70.5298 67.6702 72.0298 67.6702 74.0698C67.6702 76.0998 67.6702 101.06 67.6702 101.06C67.6702 102.56 68.9102 103.8 70.4102 103.8H70.5902C72.0902 103.8 73.3302 102.56 73.3302 101.06C73.3302 101.06 73.3302 76.1898 73.3302 74.1498C73.3302 72.2098 73.9502 70.3498 75.0102 68.7598C76.0802 67.2498 92.3602 43.7098 92.3602 43.7098C93.2402 42.4698 92.8902 40.6998 91.6502 39.9098Z" fill="white"/>
</svg>
